<?xml version="1.0" standalone="no"?>
<!DOCTYPE svg PUBLIC "-//W3C//DTD SVG 1.1//EN" "http://www.w3.org/Graphics/SVG/1.1/DTD/svg11.dtd" >
<svg xmlns="http://www.w3.org/2000/svg" xmlns:xlink="http://www.w3.org/1999/xlink" version="1.1">
<metadata>
Created by FontForge 20201107 at Fri Oct 26 22:49:56 2018
 By Jimmy Wärting
Copyright \(c\) 2018 by Alexander Pravdin. All rights reserved.
</metadata>
<defs>
<font id="SONGERSemiExpanded-Medium" horiz-adv-x="826" >
  <font-face 
    font-family="SONGER SemiExpanded"
    font-weight="500"
    font-stretch="semi-expanded"
    units-per-em="1000"
    panose-1="2 0 6 3 3 0 0 2 0 4"
    ascent="800"
    descent="-200"
    x-height="712"
    cap-height="712"
    bbox="-105 -318 1375 1007"
    underline-thickness="114"
    underline-position="-127"
    stemh="165"
    stemv="172"
    unicode-range="U+0020-F6C3"
  />
<missing-glyph horiz-adv-x="725" 
d="M64 0v712h597v-712h-597zM141 76h445v561h-445v-561z" />
    <glyph glyph-name=".notdef" horiz-adv-x="725" 
d="M64 0v712h597v-712h-597zM141 76h445v561h-445v-561z" />
    <glyph glyph-name="A" unicode="A" horiz-adv-x="748" 
d="M9 0l308 712h114l308 -712h-126l-42 98h-393l-43 -98h-126zM226 212h296l-148 347z" />
    <glyph glyph-name="space" unicode=" " horiz-adv-x="475" 
 />
    <glyph glyph-name="L" unicode="L" horiz-adv-x="657" 
d="M67 0v712h116v-597h434v-115h-550z" />
    <glyph glyph-name="E" unicode="E" horiz-adv-x="667" 
d="M67 0v712h551v-116h-435v-181h317v-115h-317v-185h435v-115h-551z" />
    <glyph glyph-name="R" unicode="R" horiz-adv-x="709" 
d="M183 289h199c92 0 166 70 166 155s-76 155 -168 155h-197v-310zM67 0v712h315c154 0 282 -119 282 -268c0 -101 -60 -187 -145 -233l147 -211h-143l-123 178c-4 -1 -11 -1 -15 -1h-202v-177h-116z" />
    <glyph glyph-name="O" unicode="O" 
d="M33 357c0 208 170 379 379 379c211 0 381 -171 381 -379c0 -211 -170 -381 -381 -381c-209 0 -379 170 -379 381zM677 357c0 144 -118 263 -265 263c-144 0 -263 -119 -263 -263c0 -147 119 -265 263 -265c147 0 265 118 265 265z" />
    <glyph glyph-name="S" unicode="S" horiz-adv-x="689" 
d="M30 94l69 101c101 -71 192 -102 268 -102c106 0 168 47 168 90c0 149 -498 92 -498 341c0 128 125 212 277 212c95 0 200 -32 311 -103l-65 -99c-92 58 -182 86 -255 86c-97 0 -152 -46 -152 -92c0 -128 498 -79 498 -342c0 -113 -112 -210 -289 -210
c-99 0 -213 38 -332 118z" />
    <glyph glyph-name="D" unicode="D" horiz-adv-x="742" 
d="M67 0v712h287c197 0 355 -160 355 -357c0 -195 -158 -355 -355 -355h-287zM183 115h173c134 0 239 109 239 240c0 133 -105 241 -239 241h-173v-481z" />
    <glyph glyph-name="M" unicode="M" horiz-adv-x="957" 
d="M67 0v712h150l261 -567l261 567h151v-712h-117v517l-237 -517h-116l-237 513v-513h-116z" />
    <glyph glyph-name="I" unicode="I" horiz-adv-x="251" 
d="M67 0v712h116v-712h-116z" />
    <glyph glyph-name="T" unicode="T" horiz-adv-x="689" 
d="M286 0v596h-257v116h631v-116h-258v-596h-116z" />
    <glyph glyph-name="N" unicode="N" horiz-adv-x="775" 
d="M67 0v712h139l385 -547v547h116v-712h-138l-386 547v-547h-116z" />
    <glyph glyph-name="F" unicode="F" horiz-adv-x="653" 
d="M67 0v712h548v-116h-432v-183h310v-116h-310v-297h-116z" />
    <glyph glyph-name="P" unicode="P" horiz-adv-x="689" 
d="M67 0v712h311c154 0 282 -119 282 -268c0 -147 -127 -267 -282 -267h-195v-177h-116zM183 289h195c92 0 167 70 167 155s-76 155 -168 155h-194v-310z" />
    <glyph glyph-name="Q" unicode="Q" 
d="M630 -87l-64 95c-46 -19 -99 -32 -154 -32c-209 0 -379 170 -379 381c0 208 170 379 379 379c210 0 381 -171 381 -379c0 -114 -51 -217 -129 -287l63 -94zM412 91c147 0 265 119 265 266c0 144 -118 263 -265 263c-145 0 -263 -119 -263 -263c0 -147 118 -266 263 -266z
" />
    <glyph glyph-name="H" unicode="H" horiz-adv-x="759" 
d="M67 0v712h116v-297h393v297h116v-712h-116v300h-393v-300h-116z" />
    <glyph glyph-name="Y" unicode="Y" horiz-adv-x="692" 
d="M288 0v175l-279 537h132l205 -402l206 402h131l-279 -537v-175h-116z" />
    <glyph glyph-name="Z" unicode="Z" horiz-adv-x="709" 
d="M60 0v134l445 461h-445v117h589v-135l-445 -462h445v-115h-589z" />
    <glyph glyph-name="C" unicode="C" horiz-adv-x="774" 
d="M647 237l104 -53c-63 -124 -189 -208 -339 -208c-209 0 -379 170 -379 381c0 208 170 379 379 379c149 0 278 -84 339 -207l-104 -53c-42 86 -131 144 -235 144c-144 0 -263 -119 -263 -263c0 -147 119 -265 263 -265c104 0 191 59 235 145z" />
    <glyph glyph-name="G" unicode="G" horiz-adv-x="825" 
d="M569 299v115h220c3 -18 4 -39 4 -57c0 -211 -171 -381 -381 -381c-209 0 -379 170 -379 381c0 208 170 379 379 379c100 0 190 -38 258 -101l-77 -85c-48 43 -111 70 -181 70c-144 0 -263 -119 -263 -263c0 -147 119 -265 263 -265c128 0 233 89 259 207h-102z" />
    <glyph glyph-name="B" unicode="B" horiz-adv-x="681" 
d="M67 0v712h345c114 0 207 -93 207 -207c0 -60 -25 -107 -65 -141c50 -34 83 -90 83 -157c0 -115 -93 -207 -207 -207h-363zM183 115h247c50 0 91 42 91 93s-41 94 -91 94h-247v-187zM183 413h228c50 0 91 40 91 91s-41 93 -91 93h-228v-184z" />
    <glyph glyph-name="K" unicode="K" horiz-adv-x="758" 
d="M67 0v712h116v-459l399 459h153l-308 -355l308 -357h-155l-231 267l-166 -191v-76h-116z" />
    <glyph glyph-name="ampersand" unicode="&#x26;" horiz-adv-x="795" 
d="M495 419h278v-115h-138c27 -29 43 -66 43 -109c0 -131 -136 -219 -311 -219c-179 0 -316 88 -316 223c0 74 39 133 104 170c-55 32 -89 81 -89 151c0 108 93 216 259 216c69 0 153 -19 243 -62l-48 -105c-71 34 -143 52 -198 52c-92 0 -140 -51 -140 -99
c0 -83 153 -103 313 -103zM166 203c0 -71 96 -112 199 -112c93 0 197 36 197 112c0 75 -107 106 -197 106c-89 0 -199 -30 -199 -106z" />
    <glyph glyph-name="U" unicode="U" horiz-adv-x="751" 
d="M63 295v417h116v-417c0 -112 88 -204 196 -204c109 0 196 92 196 204v417h116v-417c0 -178 -140 -319 -312 -319c-171 0 -312 141 -312 319z" />
    <glyph glyph-name="J" unicode="J" horiz-adv-x="560" 
d="M9 41l71 90c30 -25 70 -39 111 -39c105 0 189 78 189 179v441h116v-442c0 -166 -136 -294 -305 -294c-69 0 -132 24 -182 65z" />
    <glyph glyph-name="V" unicode="V" horiz-adv-x="738" 
d="M304 0l-295 712h128l233 -568l232 568h127l-294 -712h-131z" />
    <glyph glyph-name="X" unicode="X" horiz-adv-x="738" 
d="M22 0l274 357l-272 355h146l199 -260l199 260h146l-273 -355l275 -357h-145l-202 262l-202 -262h-145z" />
    <glyph glyph-name="W" unicode="W" horiz-adv-x="998" 
d="M989 712l-249 -712h-125l-117 490l-115 -490h-126l-248 712h122l180 -519l126 519h123c42 -173 83 -347 124 -519c61 172 120 346 180 519h125z" />
    <glyph glyph-name="period" unicode="." horiz-adv-x="257" 
d="M42 62c0 48 38 86 87 86c47 0 86 -38 86 -86c0 -49 -39 -86 -86 -86c-49 0 -87 37 -87 86z" />
    <glyph glyph-name="parenright" unicode=")" horiz-adv-x="296" 
d="M97 -182l-96 63c84 127 133 295 133 474s-49 346 -133 472l96 65c98 -145 153 -335 153 -537s-55 -394 -153 -537z" />
    <glyph glyph-name="parenleft" unicode="(" horiz-adv-x="296" 
d="M295 -119l-96 -63c-98 143 -153 335 -153 537s55 392 153 537l96 -65c-84 -126 -133 -293 -133 -472s49 -347 133 -474z" />
    <glyph glyph-name="zero" unicode="0" horiz-adv-x="746" 
d="M374 92c128 0 206 126 206 265c0 138 -79 263 -206 263c-129 0 -209 -123 -209 -263c0 -141 80 -265 209 -265zM374 -23c-198 0 -325 171 -325 380c0 207 127 379 325 379c195 0 322 -172 322 -379c0 -209 -127 -380 -322 -380z" />
    <glyph glyph-name="one" unicode="1" horiz-adv-x="347" 
d="M154 0v577l-74 -50l-63 98l133 87h120v-712h-116z" />
    <glyph glyph-name="two" unicode="2" horiz-adv-x="672" 
d="M617 481c0 -176 -167 -289 -328 -366h321v-115h-540v134c157 62 429 199 429 347c0 83 -59 140 -148 140c-79 0 -165 -54 -193 -157l-110 31c40 153 166 241 302 241c157 0 267 -106 267 -255z" />
    <glyph glyph-name="three" unicode="3" horiz-adv-x="642" 
d="M28 139l101 56c43 -73 116 -102 184 -102c101 0 159 51 159 107c0 58 -55 105 -175 105h-85v113h85c111 0 162 48 162 100c0 63 -69 101 -149 101c-62 0 -128 -24 -168 -82l-96 61c59 96 162 138 261 138c141 0 269 -86 269 -217c0 -60 -33 -121 -87 -154
c67 -34 100 -98 100 -166c0 -114 -105 -223 -278 -223c-108 0 -220 49 -283 163z" />
    <glyph glyph-name="four" unicode="4" horiz-adv-x="691" 
d="M36 119v132l391 461h128v-480h100v-113h-100v-119h-116v119h-403zM165 232h274v324z" />
    <glyph glyph-name="five" unicode="5" horiz-adv-x="655" 
d="M39 182l108 43c43 -106 117 -133 178 -133c112 0 165 74 165 146c0 77 -62 135 -142 135c-54 0 -114 -24 -173 -78l-101 50l30 367h458v-115h-353l-17 -160c52 35 108 49 162 49c131 0 252 -97 252 -247c0 -141 -106 -263 -282 -263c-127 0 -234 73 -285 206z" />
    <glyph glyph-name="six" unicode="6" horiz-adv-x="660" 
d="M269 642l89 112l93 -71l-139 -173c204 15 312 -125 312 -262c0 -150 -131 -272 -295 -272c-163 0 -295 122 -295 272c0 90 30 137 235 394zM151 249c0 -85 78 -158 178 -158c101 0 180 73 180 158c0 86 -79 159 -180 159c-100 0 -178 -72 -178 -159z" />
    <glyph glyph-name="seven" unicode="7" horiz-adv-x="626" 
d="M158 22l302 574h-422v116h554v-115l-328 -630z" />
    <glyph glyph-name="eight" unicode="8" horiz-adv-x="692" 
d="M154 366c-52 32 -86 81 -86 146c0 122 125 224 279 224c151 0 277 -102 277 -224c0 -65 -34 -113 -87 -146c68 -36 105 -93 105 -157c0 -129 -134 -233 -295 -233c-163 0 -296 104 -296 233c0 64 36 122 103 157zM167 205c0 -57 74 -114 180 -114c104 0 178 57 178 114
c0 64 -88 109 -178 109c-92 0 -180 -45 -180 -109zM183 513c0 -58 78 -99 164 -99c83 0 162 41 162 99c0 60 -77 107 -162 107c-97 0 -164 -52 -164 -107z" />
    <glyph glyph-name="nine" unicode="9" horiz-adv-x="658" 
d="M208 28l138 175c-202 -15 -311 124 -311 262c0 149 131 271 295 271c163 0 294 -122 294 -271c0 -91 -30 -138 -235 -396l-88 -111zM150 465c0 -87 79 -159 180 -159c99 0 177 72 177 159c0 85 -78 157 -177 157c-101 0 -180 -72 -180 -157z" />
    <glyph glyph-name="quotesingle" unicode="'" horiz-adv-x="229" 
d="M56 482v254h117v-254h-117z" />
    <glyph glyph-name="numbersign" unicode="#" horiz-adv-x="800" 
d="M117 0l25 137h-117v108h136l39 220h-115v108h133l24 139h110l-24 -139h221l23 139h111l-25 -139h117v-108h-136l-38 -220h115v-108h-136l-23 -137h-110l24 137h-219l-24 -137h-111zM271 245h220l38 220h-220z" />
    <glyph glyph-name="AE" unicode="&#xc6;" horiz-adv-x="1092" 
d="M4 0l431 712h609v-116h-430v-181h311v-115h-311v-185h430v-115h-544v98h-302l-59 -98h-135zM266 212h234v390z" />
    <glyph glyph-name="dollar" unicode="$" horiz-adv-x="689" 
d="M279 -130v115c-80 15 -163 51 -250 109c23 34 47 67 70 100c101 -70 191 -101 267 -101c106 0 168 47 168 90c0 149 -497 92 -497 341c0 118 106 198 242 209v110h111v-115c75 -13 153 -44 235 -96l-65 -98c-93 58 -183 86 -255 86c-98 0 -152 -46 -152 -92
c0 -128 498 -79 498 -343c0 -107 -101 -198 -261 -207v-108h-111z" />
    <glyph glyph-name="uni0417" unicode="&#x417;" horiz-adv-x="670" 
d="M20 110l76 86c98 -86 185 -105 239 -105c97 0 171 50 171 117c0 41 -35 95 -144 95h-166v114h164c96 0 131 53 131 92c0 54 -54 111 -160 111c-57 0 -132 -20 -213 -81l-69 90c107 85 209 107 281 107c176 0 278 -116 278 -227c0 -56 -26 -107 -77 -144
c60 -38 91 -98 91 -157c0 -127 -123 -232 -290 -232c-74 0 -190 25 -312 134z" />
    <glyph glyph-name="uni0410" unicode="&#x410;" horiz-adv-x="748" 
d="M9 0l308 712h114l308 -712h-126l-42 98h-393l-43 -98h-126zM226 212h296l-148 347z" />
    <glyph glyph-name="uni0412" unicode="&#x412;" horiz-adv-x="681" 
d="M67 0v712h345c114 0 207 -93 207 -207c0 -60 -25 -107 -65 -141c50 -34 83 -90 83 -157c0 -115 -93 -207 -207 -207h-363zM183 115h247c50 0 91 42 91 93s-41 94 -91 94h-247v-187zM183 413h228c50 0 91 40 91 91s-41 93 -91 93h-228v-184z" />
    <glyph glyph-name="uni0421" unicode="&#x421;" horiz-adv-x="774" 
d="M647 237l104 -53c-63 -124 -189 -208 -339 -208c-209 0 -379 170 -379 381c0 208 170 379 379 379c149 0 278 -84 339 -207l-104 -53c-42 86 -131 144 -235 144c-144 0 -263 -119 -263 -263c0 -147 119 -265 263 -265c104 0 191 59 235 145z" />
    <glyph glyph-name="uni0420" unicode="&#x420;" horiz-adv-x="689" 
d="M67 0v712h311c154 0 282 -119 282 -268c0 -147 -127 -267 -282 -267h-195v-177h-116zM183 289h195c92 0 167 70 167 155s-76 155 -168 155h-194v-310z" />
    <glyph glyph-name="uni041E" unicode="&#x41e;" 
d="M677 357c0 144 -118 263 -265 263c-145 0 -263 -119 -263 -263c0 -147 118 -266 263 -266c147 0 265 119 265 266zM33 357c0 208 170 379 379 379c211 0 381 -171 381 -379c0 -211 -170 -381 -381 -381c-209 0 -379 170 -379 381z" />
    <glyph glyph-name="uni041C" unicode="&#x41c;" horiz-adv-x="957" 
d="M67 0v712h150l261 -567l262 567h150v-712h-116v517l-238 -517h-116l-236 513v-513h-117z" />
    <glyph glyph-name="uni041D" unicode="&#x41d;" horiz-adv-x="759" 
d="M67 0v712h116v-297h393v297h116v-712h-116v300h-393v-300h-116z" />
    <glyph glyph-name="uni0422" unicode="&#x422;" horiz-adv-x="688" 
d="M285 0v596h-257v116h630v-116h-257v-596h-116z" />
    <glyph glyph-name="uni0425" unicode="&#x425;" horiz-adv-x="738" 
d="M22 0l274 357l-272 355h146l199 -260l199 260h146l-273 -355l275 -357h-145l-202 262l-202 -262h-145z" />
    <glyph glyph-name="uni0415" unicode="&#x415;" horiz-adv-x="667" 
d="M67 0v712h551v-116h-435v-181h317v-115h-317v-185h435v-115h-551z" />
    <glyph glyph-name="uni041A" unicode="&#x41a;" horiz-adv-x="722" 
d="M67 0v712h117v-298h154l208 298h141l-249 -355l249 -357h-141l-209 298h-153v-298h-117z" />
    <glyph glyph-name="uni0416" unicode="&#x416;" horiz-adv-x="1143" 
d="M861 357l249 -357h-141l-209 298h-130v-298h-117v298h-130l-209 -298h-141l248 357l-248 355h141l208 -298h131v298h117v-298h131l208 298h141z" />
    <glyph glyph-name="uni041F" unicode="&#x41f;" horiz-adv-x="755" 
d="M67 0v712h620v-712h-116v596h-387v-596h-117z" />
    <glyph glyph-name="uni042F" unicode="&#x42f;" horiz-adv-x="708" 
d="M45 0c48 70 98 140 146 210c-86 46 -147 132 -147 234c0 149 129 268 283 268h313v-712h-115v177h-201c-4 0 -10 0 -14 1l-123 -178h-142zM327 289h198v310h-197c-91 0 -168 -70 -168 -155s75 -155 167 -155z" />
    <glyph glyph-name="uni041B" unicode="&#x41b;" horiz-adv-x="761" 
d="M165 712h529v-712h-117v596h-295c-1 -144 -4 -263 -28 -359c-33 -134 -99 -215 -222 -254l-36 110c80 26 123 77 145 172c24 103 24 243 24 447z" />
    <glyph glyph-name="uni0418" unicode="&#x418;" horiz-adv-x="775" 
d="M67 0v712h117v-553l385 553h138v-712h-116v553l-385 -553h-139z" />
    <glyph glyph-name="uni0411" unicode="&#x411;" horiz-adv-x="675" 
d="M67 0v712h520v-116h-403v-120h204c138 0 247 -106 247 -236c0 -133 -111 -240 -245 -240h-323zM184 115h204c72 0 130 57 130 123c0 69 -58 125 -129 125h-205v-248z" />
    <glyph glyph-name="uni042C" unicode="&#x42c;" horiz-adv-x="660" 
d="M184 113h197c76 0 138 60 138 130c0 72 -61 133 -137 133h-198v-263zM67 0v712h117v-224h198c140 0 253 -109 253 -244c0 -136 -115 -244 -253 -244h-315z" />
    <glyph glyph-name="uni0414" unicode="&#x414;" horiz-adv-x="795" 
d="M25 -101v217h72c49 92 72 312 72 447v149h513v-596h88v-217h-116v101h-513v-101h-116zM285 563c0 -124 -16 -325 -68 -447h349v480h-281v-33z" />
    <glyph glyph-name="uni042D" unicode="&#x42d;" horiz-adv-x="776" 
d="M25 184l103 53c44 -86 132 -145 235 -145c124 0 230 87 256 205h-372v116h373c-25 117 -132 207 -257 207c-103 0 -192 -58 -235 -144l-103 53c62 123 190 207 338 207c209 0 379 -171 379 -379c0 -211 -170 -381 -379 -381c-148 0 -275 84 -338 208z" />
    <glyph glyph-name="uni0427" unicode="&#x427;" horiz-adv-x="710" 
d="M643 0h-116v257c-72 -38 -159 -71 -247 -71c-134 0 -231 72 -231 236v290h116v-288c0 -86 47 -124 119 -124c80 0 174 43 243 82v330h116v-712z" />
    <glyph glyph-name="Sigma" unicode="&#x3a3;" horiz-adv-x="685" 
d="M55 0v136l223 219l-223 222v135h582v-117h-438l240 -240l-240 -240h438v-115h-582z" />
    <glyph glyph-name="Rho" unicode="&#x3a1;" horiz-adv-x="689" 
d="M67 0v712h311c154 0 282 -119 282 -268c0 -147 -127 -267 -282 -267h-195v-177h-116zM183 289h195c92 0 167 70 167 155s-76 155 -168 155h-194v-310z" />
    <glyph glyph-name="Lambda" unicode="&#x39b;" horiz-adv-x="748" 
d="M9 0l308 712h114l308 -712h-130l-235 555l-235 -555h-130z" />
    <glyph glyph-name="uni03A9" unicode="&#x3a9;" horiz-adv-x="839" 
d="M380 0h-335v114h130c-84 67 -126 154 -126 255c0 197 161 367 371 367s369 -170 369 -367c0 -101 -40 -188 -124 -255h130v-114h-335v119c126 39 214 128 214 248c0 137 -111 253 -254 253s-255 -116 -255 -253c0 -120 87 -209 215 -248v-119z" />
    <glyph glyph-name="Xi" unicode="&#x39e;" horiz-adv-x="646" 
d="M47 0v115h552v-115h-552zM47 597v115h552v-115h-552zM123 300v115h399v-115h-399z" />
    <glyph glyph-name="Psi" unicode="&#x3a8;" horiz-adv-x="870" 
d="M493 0h-117v83c-182 26 -322 183 -322 374v255h116v-255c0 -127 88 -232 206 -258v513h117v-512c118 25 206 130 206 257v255h116v-255c0 -191 -140 -348 -322 -374v-83z" />
    <glyph glyph-name="Theta" unicode="&#x398;" 
d="M33 357c0 208 171 379 379 379c211 0 381 -171 381 -379c0 -211 -170 -381 -381 -381c-208 0 -379 170 -379 381zM412 90c147 0 265 120 265 267c0 144 -118 263 -265 263c-144 0 -264 -119 -264 -263c0 -147 120 -267 264 -267zM207 297v115h413v-115h-413z" />
    <glyph glyph-name="Tau" unicode="&#x3a4;" horiz-adv-x="688" 
d="M285 0v596h-256v116h630v-116h-258v-596h-116z" />
    <glyph glyph-name="Upsilon" unicode="&#x3a5;" horiz-adv-x="692" 
d="M288 0v175l-279 537h132l205 -402l206 402h131l-279 -537v-175h-116z" />
    <glyph glyph-name="Chi" unicode="&#x3a7;" horiz-adv-x="738" 
d="M22 0l274 357l-272 355h146l199 -260l199 260h146l-273 -355l275 -357h-145l-202 262l-202 -262h-145z" />
    <glyph glyph-name="Pi" unicode="&#x3a0;" horiz-adv-x="755" 
d="M67 0v712h620v-712h-116v596h-387v-596h-117z" />
    <glyph glyph-name="Omicron" unicode="&#x39f;" 
d="M677 357c0 144 -118 263 -265 263c-145 0 -263 -119 -263 -263c0 -147 118 -266 263 -266c147 0 265 119 265 266zM33 357c0 208 170 379 379 379c211 0 381 -171 381 -379c0 -211 -170 -381 -381 -381c-209 0 -379 170 -379 381z" />
    <glyph glyph-name="Mu" unicode="&#x39c;" horiz-adv-x="957" 
d="M67 0v712h150l261 -567l261 567h151v-712h-117v517l-237 -517h-116l-237 513v-513h-116z" />
    <glyph glyph-name="Nu" unicode="&#x39d;" horiz-adv-x="775" 
d="M67 0v712h139l385 -547v547h116v-712h-138l-386 547v-547h-116z" />
    <glyph glyph-name="Kappa" unicode="&#x39a;" horiz-adv-x="722" 
d="M67 0v712h117v-298h154l208 298h141l-249 -355l249 -357h-141l-209 298h-153v-298h-117z" />
    <glyph glyph-name="Iota" unicode="&#x399;" horiz-adv-x="251" 
d="M67 0v712h116v-712h-116z" />
    <glyph glyph-name="Eta" unicode="&#x397;" horiz-adv-x="759" 
d="M67 0v712h116v-297h393v297h116v-712h-116v300h-393v-300h-116z" />
    <glyph glyph-name="Zeta" unicode="&#x396;" horiz-adv-x="709" 
d="M60 0v134l445 461h-445v117h589v-135l-445 -462h445v-115h-589z" />
    <glyph glyph-name="Epsilon" unicode="&#x395;" horiz-adv-x="667" 
d="M67 0v712h551v-116h-435v-181h317v-115h-317v-185h435v-115h-551z" />
    <glyph glyph-name="Alpha" unicode="&#x391;" horiz-adv-x="748" 
d="M9 0l308 712h114l308 -712h-126l-42 98h-393l-43 -98h-126zM226 212h296l-148 347z" />
    <glyph glyph-name="Beta" unicode="&#x392;" horiz-adv-x="681" 
d="M67 0v712h345c114 0 207 -93 207 -207c0 -60 -25 -107 -65 -141c50 -34 83 -90 83 -157c0 -115 -93 -207 -207 -207h-363zM183 115h247c50 0 91 42 91 93s-41 94 -91 94h-247v-187zM183 413h228c50 0 91 40 91 91s-41 93 -91 93h-228v-184z" />
    <glyph glyph-name="uni0394" unicode="&#x394;" horiz-adv-x="747" 
d="M170 115h407l-203 465zM438 712l277 -622v-90h-683v90l276 622h130z" />
    <glyph glyph-name="Gamma" unicode="&#x393;" horiz-adv-x="627" 
d="M67 0v712h529v-116h-412v-596h-117z" />
    <glyph glyph-name="Phi" unicode="&#x3a6;" horiz-adv-x="865" 
d="M375 0v74c-206 19 -344 150 -344 328c0 194 164 334 401 334s402 -140 402 -334c0 -178 -138 -309 -344 -328v-74h-115zM375 189v428c-125 -16 -230 -89 -230 -215c0 -128 105 -197 230 -213zM490 617v-428c123 16 230 85 230 213c0 126 -107 199 -230 215z" />
    <glyph glyph-name="uni0424" unicode="&#x424;" horiz-adv-x="865" 
d="M375 0v74c-206 19 -344 150 -344 328c0 194 164 334 401 334s402 -140 402 -334c0 -178 -138 -309 -344 -328v-74h-115zM375 189v428c-125 -16 -230 -89 -230 -215c0 -128 105 -197 230 -213zM490 617v-428c123 16 230 85 230 213c0 126 -107 199 -230 215z" />
    <glyph glyph-name="uni0413" unicode="&#x413;" horiz-adv-x="627" 
d="M67 0v712h529v-116h-412v-596h-117z" />
    <glyph glyph-name="uni042B" unicode="&#x42b;" horiz-adv-x="884" 
d="M67 0v712h117v-224h189c141 0 252 -109 252 -244c0 -136 -113 -244 -252 -244h-306zM184 113h188c76 0 137 60 137 130c0 72 -60 133 -136 133h-189v-263zM816 0h-115v712h115v-712z" />
    <glyph glyph-name="uni042A" unicode="&#x42a;" horiz-adv-x="713" 
d="M119 0v595h-95v117h211v-224h199c140 0 253 -109 253 -244c0 -136 -115 -244 -253 -244h-315zM235 113h198c75 0 138 60 138 130c0 72 -62 133 -137 133h-199v-263z" />
    <glyph glyph-name="uni0426" unicode="&#x426;" horiz-adv-x="790" 
d="M68 0v712h117v-597h377v597h116v-597h88v-216h-117v101h-581z" />
    <glyph glyph-name="uni0428" unicode="&#x428;" horiz-adv-x="1084" 
d="M67 0v712h117v-597h300v597h115v-597h300v597h117v-712h-949z" />
    <glyph glyph-name="uni042E" unicode="&#x42e;" horiz-adv-x="1026" 
d="M67 0v712h117v-298h62c28 182 180 322 371 322c209 0 376 -171 376 -379c0 -211 -167 -381 -376 -381c-191 0 -344 139 -371 323h-62v-299h-117zM617 92c145 0 260 118 260 265c0 144 -115 263 -260 263s-259 -119 -259 -263c0 -147 114 -265 259 -265z" />
    <glyph glyph-name="uni0423" unicode="&#x423;" horiz-adv-x="699" 
d="M193 0l95 183l-270 529h130l204 -401l207 401h130l-365 -712h-131z" />
    <glyph glyph-name="uni0429" unicode="&#x429;" horiz-adv-x="1129" 
d="M67 0v712h117v-597h300v597h115v-597h301v597h116v-597h88v-216h-117v101h-920z" />
    <glyph glyph-name="comma" unicode="," horiz-adv-x="257" 
d="M79 -163l-51 77c30 20 68 48 87 74c-40 -2 -73 30 -73 71c0 50 36 89 87 89c59 0 88 -54 88 -117c0 -78 -56 -142 -138 -194z" />
    <glyph glyph-name="hyphen" unicode="-" horiz-adv-x="396" 
d="M50 295v114h296v-114h-296z" />
    <glyph glyph-name="endash" unicode="&#x2013;" horiz-adv-x="553" 
d="M50 295v114h453v-114h-453z" />
    <glyph glyph-name="emdash" unicode="&#x2014;" horiz-adv-x="776" 
d="M50 295v114h676v-114h-676z" />
    <glyph glyph-name="uni1E9E" unicode="&#x1e9e;" horiz-adv-x="804" 
d="M53 0v282c0 307 174 453 356 453c124 0 251 -72 323 -213l-214 -108c140 -39 245 -115 245 -252c0 -103 -103 -186 -240 -186c-93 0 -201 37 -305 127l75 88c85 -76 169 -99 232 -99c72 0 123 37 123 73c0 106 -162 161 -291 168v103l225 119c-41 41 -101 66 -164 66
c-120 0 -250 -89 -250 -339v-282h-115z" />
    <glyph glyph-name="at" unicode="@" horiz-adv-x="1110" 
d="M723 -34l42 -106c-55 -21 -136 -42 -210 -42c-290 0 -523 233 -523 523c0 289 233 523 523 523c289 0 523 -234 523 -523c0 -240 -118 -340 -224 -340c-79 0 -143 49 -156 139c-41 -46 -100 -76 -172 -76c-146 0 -270 124 -270 277s124 277 270 277c70 0 127 -32 170 -77
v52h112v-412c0 -41 18 -70 48 -70c74 0 110 125 110 230c0 226 -184 411 -411 411c-225 0 -411 -185 -411 -411c0 -227 186 -411 411 -411c55 0 121 17 168 36zM369 341c0 -91 74 -164 164 -164c91 0 164 73 164 164c0 90 -73 163 -164 163c-90 0 -164 -73 -164 -163z" />
    <glyph glyph-name="uni0405" unicode="&#x405;" horiz-adv-x="689" 
d="M30 94l69 101c101 -71 192 -102 268 -102c106 0 168 47 168 90c0 149 -498 92 -498 341c0 128 125 212 277 212c95 0 200 -32 311 -103l-65 -99c-92 58 -182 86 -255 86c-97 0 -152 -46 -152 -92c0 -128 498 -79 498 -342c0 -113 -112 -210 -289 -210
c-99 0 -213 38 -332 118z" />
    <glyph glyph-name="uni0404" unicode="&#x404;" horiz-adv-x="776" 
d="M156 413h373v-116h-373c26 -118 133 -205 256 -205c104 0 192 59 236 145l103 -53c-63 -124 -190 -208 -339 -208c-208 0 -379 170 -379 381c0 208 171 379 379 379c149 0 277 -84 339 -207l-103 -53c-43 86 -132 144 -236 144c-125 0 -231 -90 -256 -207z" />
    <glyph glyph-name="uni040F" unicode="&#x40f;" horiz-adv-x="755" 
d="M67 0v712h117v-596h387v596h117v-712h-253v-101h-117v101h-251z" />
    <glyph glyph-name="uni040B" unicode="&#x40b;" horiz-adv-x="849" 
d="M276 0v596h-248v116h615v-116h-250v-132c56 21 118 38 180 38c133 0 227 -67 227 -228v-274h-116v273c0 84 -47 115 -114 115c-56 0 -118 -21 -177 -46v-342h-117z" />
    <glyph glyph-name="uni0402" unicode="&#x402;" horiz-adv-x="850" 
d="M275 0v596h-247v116h614v-116h-250v-134c36 21 89 40 151 40c178 0 275 -122 275 -250c0 -126 -92 -254 -298 -254h-43v115h43c124 0 183 70 183 139c0 74 -55 136 -162 136c-60 0 -114 -24 -149 -46v-342h-117z" />
    <glyph glyph-name="uni040A" unicode="&#x40a;" horiz-adv-x="1151" 
d="M67 0v712h117v-294h382v294h116v-294h225c117 0 214 -85 214 -203c0 -119 -96 -215 -212 -215h-343v303h-382v-303h-117zM682 114h225c54 0 97 44 97 96s-43 93 -97 93h-225v-189z" />
    <glyph glyph-name="uni0408" unicode="&#x408;" horiz-adv-x="560" 
d="M9 41l71 90c30 -25 70 -39 111 -39c105 0 189 78 189 179v441h116v-442c0 -166 -136 -294 -305 -294c-69 0 -132 24 -182 65z" />
    <glyph glyph-name="uni0406" unicode="&#x406;" horiz-adv-x="251" 
d="M67 0v712h116v-712h-116z" />
    <glyph glyph-name="underscore" unicode="_" horiz-adv-x="675" 
d="M13 -185v115h649v-115h-649z" />
    <glyph glyph-name="uni0490" unicode="&#x490;" horiz-adv-x="623" 
d="M67 0v712h413v103h116v-219h-412v-596h-117z" />
    <glyph glyph-name="OE" unicode="&#x152;" horiz-adv-x="1133" 
d="M656 115h429v-115h-539c-42 -16 -87 -24 -134 -24c-209 0 -379 170 -379 381c0 208 170 379 379 379c47 0 92 -9 134 -24h539v-116h-429v-181h311v-115h-311v-185zM539 125v462c-37 21 -81 33 -127 33c-144 0 -263 -119 -263 -263c0 -147 119 -265 263 -265
c46 0 90 12 127 33z" />
    <glyph glyph-name="Thorn" unicode="&#xde;" horiz-adv-x="693" 
d="M67 0v712h117v-93h199c153 0 278 -117 278 -264c0 -146 -126 -262 -278 -262h-199v-93h-117zM184 204h198c90 0 163 68 163 151s-74 152 -163 152h-198v-303z" />
    <glyph glyph-name="section" unicode="&#xa7;" horiz-adv-x="712" 
d="M70 -61l64 100c92 -59 183 -87 255 -87c98 0 151 47 151 92c0 129 -496 80 -496 342c0 57 28 108 81 145c-42 30 -69 72 -69 130c0 129 125 212 277 212c94 0 200 -32 310 -102l-64 -100c-93 58 -182 87 -255 87c-98 0 -152 -47 -152 -92c0 -129 496 -80 496 -343
c0 -57 -28 -107 -80 -146c42 -29 69 -71 69 -129c0 -128 -125 -212 -277 -212c-94 0 -200 32 -310 103zM469 235c54 17 84 54 84 86c0 87 -170 104 -309 152c-55 -16 -85 -53 -85 -84c0 -89 170 -105 310 -154z" />
    <glyph glyph-name="copyright" unicode="&#xa9;" 
d="M412 -24c-208 0 -379 170 -379 379c0 210 171 381 379 381c211 0 381 -171 381 -381c0 -209 -170 -379 -381 -379zM412 50c170 0 307 137 307 305c0 170 -137 305 -307 305c-167 0 -304 -135 -304 -305c0 -168 137 -305 304 -305zM554 290c25 -13 51 -26 76 -40
c-39 -78 -119 -129 -209 -129c-129 0 -235 104 -235 235c0 130 106 233 235 233c90 0 170 -52 209 -129l-77 -38c-25 46 -74 81 -132 81c-81 0 -147 -66 -147 -147s66 -150 147 -150c58 0 106 36 133 84z" />
    <glyph glyph-name="registered" unicode="&#xae;" horiz-adv-x="531" 
d="M37 509c0 125 102 227 228 227c127 0 228 -102 228 -227c0 -126 -101 -229 -228 -229c-126 0 -228 103 -228 229zM265 332c97 0 176 79 176 177c0 96 -79 175 -176 175s-175 -79 -175 -175c0 -98 78 -177 175 -177zM164 391v235h117c65 0 102 -47 102 -96
c0 -29 -16 -60 -48 -77l43 -62h-72l-35 50h-50v-50h-57zM221 496h60c27 0 42 20 42 34c0 19 -16 39 -43 39h-59v-73z" />
    <glyph glyph-name="trademark" unicode="&#x2122;" horiz-adv-x="760" 
d="M349 397v315h89l88 -223l85 223h87v-315h-67v190l-78 -190h-59l-74 184v-184h-71zM144 397v246h-104v69h277v-69h-102v-246h-71z" />
    <glyph glyph-name="uni20BD" unicode="&#x20bd;" horiz-adv-x="672" 
d="M184 596v-242h217c65 0 129 50 129 119c0 75 -65 123 -146 123h-200zM67 0v712h334c134 0 245 -107 245 -240c0 -131 -109 -230 -246 -230h-216v-52h197v-107h-197v-83h-117z" />
    <glyph glyph-name="asterisk" unicode="*" horiz-adv-x="415" 
d="M66 427l80 105l-128 40l25 76l127 -44l-2 132h79l-2 -132l128 41l24 -75l-127 -38l79 -107l-64 -46l-77 109l-77 -107z" />
    <glyph glyph-name="sterling" unicode="&#xa3;" horiz-adv-x="657" 
d="M213 284c-10 -84 -11 -119 -45 -169h437v-115h-577v114c52 38 60 86 69 161l16 147c19 162 99 314 262 314c93 0 179 -50 253 -108l-73 -90c-55 45 -120 83 -180 83c-102 0 -137 -122 -149 -223h262v-114h-275z" />
    <glyph glyph-name="paragraph" unicode="&#xb6;" horiz-adv-x="653" 
d="M308 0v171c-154 0 -279 118 -279 267c0 152 125 274 279 274h277v-712h-110v599h-58v-599h-109z" />
    <glyph glyph-name="cent" unicode="&#xa2;" horiz-adv-x="582" 
d="M250 -122v105c-125 25 -218 137 -218 268c0 132 93 244 218 270v106h108v-104c82 -13 150 -64 193 -137l-97 -52c-30 53 -82 83 -145 83c-92 0 -167 -75 -167 -166s75 -165 167 -165c62 0 113 31 143 83l97 -54c-39 -71 -108 -120 -191 -135v-102h-108z" />
    <glyph glyph-name="colon" unicode=":" horiz-adv-x="268" 
d="M47 62c0 48 38 86 87 86c47 0 86 -38 86 -86c0 -49 -39 -86 -86 -86c-49 0 -87 37 -87 86zM47 463c0 47 38 86 87 86c47 0 86 -39 86 -86c0 -50 -39 -87 -86 -87c-49 0 -87 37 -87 87z" />
    <glyph glyph-name="less" unicode="&#x3c;" horiz-adv-x="556" 
d="M20 301v105l492 219v-126l-336 -144l336 -141v-126z" />
    <glyph glyph-name="asciicircum" unicode="^" horiz-adv-x="573" 
d="M28 353l208 359h95l214 -359h-127l-133 233l-129 -233h-128z" />
    <glyph glyph-name="percent" unicode="%" horiz-adv-x="946" 
d="M26 538c0 111 87 198 200 198c112 0 200 -87 200 -198c0 -110 -88 -200 -200 -200c-113 0 -200 90 -200 200zM519 176c0 111 87 198 200 198c111 0 200 -87 200 -198c0 -110 -89 -200 -200 -200c-113 0 -200 90 -200 200zM211 0l409 712h115l-408 -712h-116zM226 436
c56 0 102 46 102 102s-44 99 -102 99c-57 0 -101 -43 -101 -99s45 -102 101 -102zM719 74c56 0 101 46 101 102s-44 100 -101 100c-58 0 -102 -44 -102 -100s45 -102 102 -102z" />
    <glyph glyph-name="slash" unicode="/" horiz-adv-x="456" 
d="M14 -24l306 760h122l-306 -760h-122z" />
    <glyph glyph-name="perthousand" unicode="&#x2030;" horiz-adv-x="1392" 
d="M35 538c0 111 87 198 200 198c112 0 200 -87 200 -198c0 -110 -88 -200 -200 -200c-113 0 -200 90 -200 200zM528 176c0 111 87 198 200 198c111 0 200 -87 200 -198c0 -110 -89 -200 -200 -200c-113 0 -200 90 -200 200zM220 0l409 712h115l-408 -712h-116zM235 436
c57 0 102 46 102 102s-44 99 -102 99c-57 0 -101 -43 -101 -99s45 -102 101 -102zM728 74c56 0 102 46 102 102s-45 100 -102 100c-58 0 -101 -44 -101 -100s45 -102 101 -102zM974 176c0 111 87 198 201 198c111 0 200 -87 200 -198c0 -110 -89 -200 -200 -200
c-114 0 -201 90 -201 200zM1175 74c55 0 101 46 101 102s-44 100 -101 100c-59 0 -102 -44 -102 -100s45 -102 102 -102z" />
    <glyph glyph-name="plus" unicode="+" horiz-adv-x="574" 
d="M231 114v182h-182v111h182v182h111v-182h182v-111h-182v-182h-111z" />
    <glyph glyph-name="plusminus" unicode="&#xb1;" horiz-adv-x="577" 
d="M56 49v112h465v-112h-465zM56 357v111h177v170h111v-170h177v-111h-177v-166h-111v166h-177z" />
    <glyph glyph-name="tonos" unicode="&#x384;" horiz-adv-x="168" 
d="M30 499v237h124l-36 -237h-88z" />
    <glyph glyph-name="currency" unicode="&#xa4;" horiz-adv-x="694" 
d="M42 79l73 72c-29 44 -45 96 -45 153c0 56 16 108 45 151c-25 25 -48 49 -73 73l79 80c24 -25 49 -49 73 -73c44 28 96 46 153 46c55 0 108 -17 151 -46l73 73c26 -27 53 -53 80 -80c-25 -24 -49 -48 -73 -73c28 -43 45 -95 45 -151c0 -57 -17 -109 -46 -152l74 -73
l-80 -79c-25 23 -49 48 -74 72c-43 -29 -95 -44 -150 -44c-57 0 -108 16 -152 45c-24 -25 -50 -50 -74 -73c-26 25 -52 52 -79 79zM177 304c0 -94 75 -169 170 -169c92 0 168 75 168 169c0 92 -76 169 -168 169c-95 0 -170 -77 -170 -169z" />
    <glyph glyph-name="yen" unicode="&#xa5;" horiz-adv-x="716" 
d="M109 86v100h186l-16 32h-170v102h117l-206 392h133l205 -402l206 402h131l-206 -392h118v-102h-171l-16 -32h187v-100h-191v-86h-117v86h-190z" />
    <glyph glyph-name="Oslash" unicode="&#xd8;" 
d="M412 91c147 0 265 119 265 266c0 90 -49 173 -118 219l-191 -480c14 -3 29 -5 44 -5zM412 620c-144 0 -263 -119 -263 -263c0 -94 49 -178 120 -223l192 481c-15 3 -32 5 -49 5zM196 -50c11 25 20 50 30 75c-115 65 -193 189 -193 332c0 207 170 378 377 378
c33 0 65 -5 94 -12l16 39h113l-31 -77c114 -66 191 -189 191 -328c0 -211 -169 -380 -379 -380c-31 0 -62 5 -89 12l-15 -39h-114z" />
    <glyph glyph-name="Euro" unicode="&#x20ac;" horiz-adv-x="825" 
d="M23 238v101h58v34h-58v102h75c49 151 191 261 360 261c148 0 276 -84 338 -207l-104 -53c-42 86 -131 144 -234 144s-192 -59 -234 -145h290v-102h-319v-34h319v-101h-289c42 -87 130 -146 233 -146s190 59 234 145l104 -53c-63 -124 -189 -208 -338 -208
c-167 0 -309 109 -360 262h-75z" />
    <glyph glyph-name="asciitilde" unicode="~" horiz-adv-x="601" 
d="M127 261l-86 67c42 55 110 122 178 122c76 0 129 -90 163 -90c17 0 56 32 92 78l86 -67c-42 -55 -110 -121 -178 -121c-74 0 -130 90 -162 90c-16 0 -55 -31 -93 -79z" />
    <glyph glyph-name="equal" unicode="=" horiz-adv-x="551" 
d="M56 383v108h439v-108h-439zM56 211v109h439v-109h-439z" />
    <glyph glyph-name="mu" unicode="&#xb5;" horiz-adv-x="608" 
d="M59 -264v769h113v-270c0 -73 58 -134 132 -134c73 0 132 61 132 134v270h112v-505h-112v46c-37 -36 -85 -56 -136 -56c-53 0 -100 21 -128 46v-300h-113z" />
    <glyph glyph-name="tilde" unicode="&#x2dc;" horiz-adv-x="523" 
d="M116 769l-85 57c38 57 88 112 157 112c82 0 113 -69 148 -69c24 0 49 37 70 66l86 -58c-39 -56 -87 -112 -156 -112c-82 0 -112 70 -149 70c-23 0 -50 -36 -71 -66z" />
    <glyph glyph-name="dieresis" unicode="&#xa8;" horiz-adv-x="431" 
d="M31 852c0 44 34 80 80 80c44 0 79 -36 79 -80c0 -45 -35 -80 -79 -80c-46 0 -80 35 -80 80zM240 852c0 44 35 80 80 80c44 0 80 -36 80 -80c0 -45 -36 -80 -80 -80c-45 0 -80 35 -80 80z" />
    <glyph glyph-name="ring" unicode="&#x2da;" horiz-adv-x="317" 
d="M31 879c0 71 57 128 128 128s127 -57 127 -128c0 -70 -56 -126 -127 -126s-128 56 -128 126zM111 879c0 -25 22 -47 48 -47c25 0 48 22 48 47c0 26 -23 48 -48 48c-26 0 -48 -22 -48 -48z" />
    <glyph glyph-name="circumflex" unicode="&#x2c6;" horiz-adv-x="461" 
d="M229 858l-135 -110c-21 28 -43 55 -63 82l198 153l201 -153c-21 -27 -42 -54 -62 -82z" />
    <glyph glyph-name="acute" unicode="&#xb4;" horiz-adv-x="310" 
d="M279 899l-185 -151l-63 73l175 161z" />
    <glyph glyph-name="Eth" unicode="&#xd0;" horiz-adv-x="749" 
d="M13 301v113h61v298h287c197 0 355 -160 355 -357c0 -195 -158 -355 -355 -355h-287v301h-61zM190 115h173c133 0 238 109 238 240c0 133 -105 241 -238 241h-173v-182h199v-113h-199v-186z" />
    <glyph glyph-name="Alphatonos" unicode="&#x386;" horiz-adv-x="752" 
d="M13 0l309 712h113l308 -712h-126l-42 98h-393l-43 -98h-126zM230 212h296l-148 347zM101 499v237h123l-36 -237h-87z" />
    <glyph glyph-name="Epsilontonos" unicode="&#x388;" horiz-adv-x="785" 
d="M30 499v237h123l-36 -237h-87zM185 0v712h551v-116h-435v-181h316v-115h-316v-185h435v-115h-551z" />
    <glyph glyph-name="Etatonos" unicode="&#x389;" horiz-adv-x="877" 
d="M30 499v237h123l-36 -237h-87zM186 0v712h115v-297h393v297h116v-712h-116v300h-393v-300h-115z" />
    <glyph glyph-name="Iotatonos" unicode="&#x38a;" horiz-adv-x="369" 
d="M30 499v237h123l-36 -237h-87zM185 0v712h117v-712h-117z" />
    <glyph glyph-name="Omicrontonos" unicode="&#x38c;" horiz-adv-x="923" 
d="M774 357c0 144 -118 263 -265 263c-145 0 -264 -119 -264 -263c0 -147 119 -266 264 -266c147 0 265 119 265 266zM130 357c0 208 170 379 379 379c210 0 381 -171 381 -379c0 -211 -171 -381 -381 -381c-209 0 -379 170 -379 381zM30 499v237h123l-36 -237h-87z" />
    <glyph glyph-name="Upsilontonos" unicode="&#x38e;" horiz-adv-x="851" 
d="M30 499v237h123l-36 -237h-87zM447 0v177l-279 535h132l205 -401l206 401h131l-279 -541v-171h-116z" />
    <glyph glyph-name="Ccedilla" unicode="&#xc7;" horiz-adv-x="777" 
d="M648 237l104 -53c-63 -124 -190 -207 -339 -207c-209 0 -379 169 -379 380c0 208 170 379 379 379c149 0 277 -84 339 -207l-104 -53c-42 86 -131 144 -235 144c-145 0 -263 -119 -263 -263c0 -147 118 -265 263 -265c104 0 191 59 235 145zM261 -254l34 77
c33 -15 65 -21 93 -21c64 0 94 19 94 36c0 19 -36 32 -75 32c-21 0 -42 -4 -61 -12l-29 72c27 13 60 19 93 19c83 0 156 -38 156 -109c0 -62 -62 -123 -178 -123c-40 0 -83 9 -127 29z" />
    <glyph glyph-name="divide" unicode="&#xf7;" horiz-adv-x="575" 
d="M50 296v111h475v-111h-475zM206 531c0 44 36 80 81 80c44 0 80 -36 80 -80c0 -45 -36 -80 -80 -80c-45 0 -81 35 -81 80zM207 173c0 44 35 80 80 80c44 0 80 -36 80 -80c0 -45 -36 -80 -80 -80c-45 0 -80 35 -80 80z" />
    <glyph glyph-name="braceright" unicode="}" horiz-adv-x="357" 
d="M26 -116v114c111 0 117 21 117 85v78c0 65 0 139 74 195c-74 56 -74 129 -74 195v78c0 63 -3 83 -116 83v114c189 0 230 -73 230 -189v-77c0 -80 13 -150 86 -150v-109c-73 0 -86 -71 -86 -149v-77c0 -130 -56 -191 -231 -191z" />
    <glyph glyph-name="bracketright" unicode="]" horiz-adv-x="315" 
d="M26 -116v114h115v714h-115v114h229v-942h-229z" />
    <glyph glyph-name="Omegatonos" unicode="&#x38f;" horiz-adv-x="923" 
d="M464 0h-334v114h128c-83 67 -125 154 -125 255c0 197 161 367 370 367c211 0 370 -170 370 -367c0 -101 -41 -188 -124 -255h129v-114h-334v119c127 39 214 128 214 248c0 137 -111 253 -255 253c-142 0 -254 -116 -254 -253c0 -120 86 -209 215 -248v-119zM30 499v237
h123c-12 -80 -24 -158 -35 -237h-88z" />
    <glyph glyph-name="multiply" unicode="&#xd7;" horiz-adv-x="535" 
d="M139 144l-79 80l129 127l-129 129l79 80l128 -131l128 131l80 -80l-131 -129l131 -128l-80 -80l-128 132z" />
    <glyph glyph-name="guillemotright" unicode="&#xbb;" horiz-adv-x="508" 
d="M123 116c-29 20 -59 38 -88 58l126 182c-42 59 -84 120 -126 180l88 59c53 -80 105 -160 158 -239zM323 107l-89 58c43 64 88 128 131 191c-43 63 -87 126 -131 189l88 58l166 -247z" />
    <glyph glyph-name="bar" unicode="|" horiz-adv-x="248" 
d="M67 -140v929h114v-929h-114z" />
    <glyph glyph-name="exclam" unicode="!" horiz-adv-x="250" 
d="M39 62c0 47 37 85 86 85c47 0 86 -38 86 -85c0 -50 -39 -86 -86 -86c-49 0 -86 36 -86 86zM67 207v505h116v-505h-116z" />
    <glyph glyph-name="quotedbl" unicode="&#x22;" horiz-adv-x="389" 
d="M56 482v254h114v-254h-114zM219 482v254h114v-254h-114z" />
    <glyph glyph-name="semicolon" unicode=";" horiz-adv-x="268" 
d="M47 463c0 47 38 86 87 86c47 0 86 -39 86 -86c0 -50 -39 -87 -86 -87c-49 0 -87 37 -87 87zM85 -163l-52 77c30 20 68 48 87 74c-40 -2 -73 30 -73 71c0 50 35 89 87 89c59 0 88 -54 88 -117c0 -78 -56 -142 -137 -194z" />
    <glyph glyph-name="question" unicode="?" horiz-adv-x="639" 
d="M209 200v115h84c140 0 200 78 200 157c0 74 -57 147 -161 147c-79 0 -169 -49 -215 -168l-108 44c66 167 197 239 320 239c182 0 281 -132 281 -266c0 -135 -97 -268 -317 -268h-84zM218 62c0 47 37 85 86 85c47 0 86 -38 86 -85c0 -49 -39 -86 -86 -86
c-49 0 -86 37 -86 86z" />
    <glyph glyph-name="questiondown" unicode="&#xbf;" horiz-adv-x="639" 
d="M430 396h-84c-140 0 -200 -79 -200 -158c0 -74 56 -146 161 -146c79 0 169 48 215 167l108 -44c-66 -168 -197 -239 -320 -239c-182 0 -281 132 -281 266c0 135 97 269 317 269h84v-115zM249 650c0 49 39 86 86 86c48 0 86 -37 86 -86c0 -47 -38 -85 -86 -85
c-47 0 -86 38 -86 85z" />
    <glyph glyph-name="exclamdown" unicode="&#xa1;" horiz-adv-x="250" 
d="M40 650c0 49 38 86 85 86c49 0 86 -37 86 -86c0 -47 -37 -85 -86 -85c-47 0 -85 38 -85 85zM67 0v504h116v-504h-116z" />
    <glyph glyph-name="ellipsis" unicode="&#x2026;" horiz-adv-x="730" 
d="M42 62c0 48 38 86 87 86c47 0 86 -38 86 -86c0 -49 -39 -86 -86 -86c-49 0 -87 37 -87 86zM279 62c0 48 37 86 86 86c47 0 86 -38 86 -86c0 -49 -39 -86 -86 -86c-49 0 -86 37 -86 86zM515 62c0 48 37 86 86 86c48 0 87 -38 87 -86c0 -49 -39 -86 -87 -86
c-49 0 -86 37 -86 86z" />
    <glyph glyph-name="dagger" unicode="&#x2020;" horiz-adv-x="620" 
d="M253 -140v594h-220v113h220v222h114v-222h219v-113h-219v-594h-114z" />
    <glyph glyph-name="uni20BF" unicode="&#x20bf;" horiz-adv-x="679" 
d="M63 0v712h91v120h109v-120h96v120h109v-129c85 -26 147 -105 147 -198c0 -60 -26 -108 -65 -141c49 -34 83 -90 83 -157c0 -101 -71 -184 -165 -203v-122h-109v118h-96v-118h-109v118h-91zM179 115h246c51 0 92 42 92 93s-41 93 -92 93h-246v-186zM179 412h227
c51 0 93 41 93 92s-42 93 -93 93h-227v-185z" />
    <glyph glyph-name="greater" unicode="&#x3e;" horiz-adv-x="557" 
d="M44 88v126l336 141l-336 144v126l493 -219v-105z" />
    <glyph glyph-name="backslash" unicode="\" horiz-adv-x="456" 
d="M319 -24l-305 760h122l306 -760h-123z" />
    <glyph glyph-name="bracketleft" unicode="[" horiz-adv-x="316" 
d="M60 -116v942h229v-114h-116v-714h116v-114h-229z" />
    <glyph glyph-name="braceleft" unicode="{" horiz-adv-x="357" 
d="M100 75v77c0 77 -12 149 -86 149v109c74 0 86 70 86 150v86c2 114 49 179 230 179v-113c-113 0 -116 -20 -116 -83v-79c0 -67 -1 -139 -73 -194c75 -57 73 -135 73 -203v-71c0 -63 6 -83 117 -83v-114c-175 0 -231 61 -231 190z" />
    <glyph glyph-name="guillemotleft" unicode="&#xab;" horiz-adv-x="508" 
d="M473 174l-89 -58l-158 240c53 79 105 159 158 239c30 -20 59 -40 89 -59c-42 -60 -84 -121 -126 -180zM273 165c-29 -19 -58 -39 -88 -58l-166 249l166 247c30 -19 59 -38 88 -58c-43 -63 -88 -126 -131 -189c43 -63 88 -127 131 -191z" />
    <glyph glyph-name="guilsinglleft" unicode="&#x2039;" horiz-adv-x="300" 
d="M266 174c-30 -20 -60 -38 -89 -58l-158 240c53 79 105 159 158 239c29 -20 59 -40 89 -59l-125 -180c41 -61 83 -121 125 -182z" />
    <glyph glyph-name="guilsinglright" unicode="&#x203a;" horiz-adv-x="300" 
d="M123 116l-89 58c41 61 84 121 125 182c-41 59 -84 120 -125 180c30 19 59 39 89 59c53 -80 105 -160 158 -239z" />
    <glyph glyph-name="daggerdbl" unicode="&#x2021;" horiz-adv-x="638" 
d="M262 -140v221h-219v114h219v259h-219v113h219v222h114v-222h220v-113h-220v-259h220v-114h-220v-221h-114z" />
    <glyph glyph-name="degree" unicode="&#xb0;" horiz-adv-x="456" 
d="M228 352c-108 0 -192 84 -192 192s84 192 192 192s192 -84 192 -192s-84 -192 -192 -192zM228 444c55 0 100 46 100 100s-45 99 -100 99c-54 0 -100 -45 -100 -99s46 -100 100 -100z" />
    <glyph glyph-name="uni041B.ss02" horiz-adv-x="748" 
d="M9 0l308 712h114l308 -712h-130l-235 555l-235 -555h-130z" />
    <glyph glyph-name="uni0409" unicode="&#x409;" horiz-adv-x="1143" 
d="M890 436c122 0 222 -93 222 -214c0 -124 -99 -222 -221 -222h-334v596h-276c-1 -144 -4 -263 -28 -359c-33 -134 -99 -215 -222 -254l-36 110c80 26 123 77 145 172c24 103 24 243 24 447h508v-276h218zM890 114c58 0 106 47 106 103c0 57 -48 104 -106 104h-218v-207
h218z" />
    <glyph glyph-name="uni0414.ss02" horiz-adv-x="835" 
d="M28 0v116h83l238 596h137l238 -596h83v-116h-779zM235 116h365l-183 464z" />
    <glyph glyph-name="uni0426.ss02" horiz-adv-x="817" 
d="M67 0v712h117v-596h377v596h116v-596h114v-116h-724z" />
    <glyph glyph-name="uni0429.ss02" horiz-adv-x="1156" 
d="M67 0v712h117v-596h300v596h115v-596h300v596h117v-596h113v-116h-1062z" />
    <glyph glyph-name="zero.slash" horiz-adv-x="746" 
d="M374 -24c-198 0 -325 173 -325 381c0 207 127 379 325 379c195 0 322 -172 322 -379c0 -208 -127 -381 -322 -381zM217 171l226 440c-20 8 -44 13 -69 13c-131 0 -211 -125 -211 -267c0 -74 19 -139 54 -186zM529 539l-226 -438c22 -9 45 -13 71 -13
c130 0 208 128 208 269c0 72 -19 137 -53 182z" />
    <glyph glyph-name="K.ss02" horiz-adv-x="722" 
d="M67 0v712h117v-298h154l208 298h141l-249 -355l249 -357h-141l-209 298h-153v-298h-117z" />
    <glyph glyph-name="uni0414.loclBGR" horiz-adv-x="836" 
d="M28 -101v217h83l238 596h137l238 -596h84v-217h-116v101h-548v-101h-116zM235 116h365l-183 464z" />
    <glyph glyph-name="uni041B.loclBGR" horiz-adv-x="748" 
d="M9 0l308 712h114l308 -712h-130l-235 555l-235 -555h-130z" />
    <glyph glyph-name="uni0424.loclBGR" horiz-adv-x="869" 
d="M377 -101v81c-197 25 -344 181 -344 377c0 193 147 349 344 375v80h115v-80c197 -26 344 -181 344 -375c0 -197 -147 -353 -344 -377v-81h-115zM492 616v-520c132 22 229 127 229 261c0 130 -96 236 -229 259zM377 96v519c-133 -23 -229 -128 -229 -258
c0 -135 97 -238 229 -261z" />
    <glyph glyph-name="quotesinglbase" unicode="&#x201a;" horiz-adv-x="247" 
d="M60 -145l-41 82c34 18 69 40 85 58c-35 3 -61 32 -61 67c0 43 33 84 83 84c53 0 83 -43 83 -100c0 -92 -63 -147 -149 -191z" />
    <glyph glyph-name="quotedblbase" unicode="&#x201e;" horiz-adv-x="432" 
d="M60 -145l-41 82c34 18 69 40 85 58c-35 3 -61 32 -61 67c0 43 33 84 83 84c53 0 83 -43 83 -100c0 -92 -63 -147 -149 -191zM245 -145l-41 82c34 18 70 40 85 58c-34 3 -58 32 -58 67c0 43 30 84 80 84c53 0 83 -43 83 -100c0 -92 -63 -147 -149 -191z" />
    <glyph glyph-name="quotedblright" unicode="&#x201d;" horiz-adv-x="431" 
d="M59 484l-41 82c34 17 69 40 84 57c-34 4 -60 33 -60 68c0 42 33 84 83 84c53 0 82 -43 82 -101c0 -91 -62 -146 -148 -190zM244 484l-41 82c34 17 69 40 85 57c-35 4 -59 33 -59 68c0 42 31 84 81 84c53 0 83 -43 83 -101c0 -91 -63 -146 -149 -190z" />
    <glyph glyph-name="quotedblleft" unicode="&#x201c;" horiz-adv-x="432" 
d="M372 806l41 -82c-34 -17 -70 -40 -85 -57c34 -4 60 -33 60 -68c0 -42 -32 -84 -82 -84c-53 0 -83 43 -83 101c0 91 63 146 149 190zM187 806l40 -82c-33 -17 -69 -40 -84 -57c34 -4 58 -33 58 -68c0 -42 -31 -84 -80 -84c-53 0 -83 43 -83 101c0 91 63 146 149 190z" />
    <glyph glyph-name="quoteleft" unicode="&#x2018;" horiz-adv-x="246" 
d="M187 806l40 -82c-33 -17 -69 -40 -84 -57c34 -4 60 -33 60 -68c0 -42 -33 -84 -82 -84c-53 0 -83 43 -83 101c0 91 63 146 149 190z" />
    <glyph glyph-name="quoteright" unicode="&#x2019;" horiz-adv-x="245" 
d="M59 484l-41 82c34 17 69 40 84 57c-34 4 -60 33 -60 68c0 42 33 84 83 84c53 0 82 -43 82 -101c0 -91 -62 -146 -148 -190z" />
    <glyph glyph-name="bullet" unicode="&#x2022;" horiz-adv-x="399" 
d="M44 357c0 86 69 156 155 156s156 -70 156 -156s-70 -155 -156 -155s-155 69 -155 155z" />
    <glyph glyph-name="brokenbar" unicode="&#xa6;" horiz-adv-x="248" 
d="M67 404v385h114v-385h-114zM67 -140v386h114v-386h-114z" />
    <glyph glyph-name="periodcentered" unicode="&#xb7;" horiz-adv-x="246" 
d="M36 357c0 47 38 86 87 86c47 0 86 -39 86 -86c0 -50 -39 -87 -86 -87c-49 0 -87 37 -87 87z" />
    <glyph glyph-name="brevecyr" horiz-adv-x="478" 
d="M31 886l88 51c13 -24 70 -103 120 -103c52 0 109 84 119 103l89 -50c-40 -70 -120 -153 -208 -153c-89 0 -169 85 -208 152z" />
    <glyph glyph-name="uni0419" unicode="&#x419;" horiz-adv-x="775" 
d="M67 0v712h117v-553l385 553h138v-712h-116v553l-385 -553h-139zM179 875l88 51c13 -24 70 -103 120 -103c52 0 109 84 119 103l89 -50c-40 -70 -120 -153 -208 -153c-89 0 -169 85 -208 152z" />
    <glyph glyph-name="uni040E" unicode="&#x40e;" horiz-adv-x="699" 
d="M193 0l95 183l-270 529h130l204 -401l207 401h130l-365 -712h-131zM144 875l88 51c13 -24 70 -103 120 -103c52 0 109 84 119 103l89 -50c-40 -70 -120 -153 -208 -153c-89 0 -169 85 -208 152z" />
    <glyph glyph-name="uni040C" unicode="&#x40c;" horiz-adv-x="722" 
d="M530 888l-185 -151l-63 73l175 161zM67 0v712h117v-298h154l208 298h141l-249 -355l249 -357h-141l-209 298h-153v-298h-117z" />
    <glyph glyph-name="uni0403" unicode="&#x403;" horiz-adv-x="627" 
d="M495 893l-185 -151l-63 73l175 161zM67 0v712h529v-116h-412v-596h-117z" />
    <glyph glyph-name="uni0401" unicode="&#x401;" horiz-adv-x="667" 
d="M67 0v712h551v-116h-435v-181h317v-115h-317v-185h435v-115h-551zM155 847c0 44 34 80 80 80c44 0 79 -36 79 -80c0 -45 -35 -80 -79 -80c-46 0 -80 35 -80 80zM364 847c0 44 35 80 80 80c44 0 80 -36 80 -80c0 -45 -36 -80 -80 -80c-45 0 -80 35 -80 80z" />
    <glyph glyph-name="uni0407" unicode="&#x407;" horiz-adv-x="251" 
d="M67 0v712h116v-712h-116zM-59 847c0 44 35 80 80 80c44 0 80 -36 80 -80c0 -45 -36 -80 -80 -80c-45 0 -80 35 -80 80zM151 847c0 44 35 80 80 80c43 0 80 -36 80 -80c0 -45 -37 -80 -80 -80c-45 0 -80 35 -80 80z" />
    <glyph glyph-name="Iotadieresis" unicode="&#x3aa;" horiz-adv-x="251" 
d="M67 0v712h116v-712h-116zM-59 852c0 44 35 80 80 80c44 0 80 -36 80 -80c0 -45 -36 -80 -80 -80c-45 0 -80 35 -80 80zM151 852c0 44 35 80 80 80c43 0 80 -36 80 -80c0 -45 -37 -80 -80 -80c-45 0 -80 35 -80 80z" />
    <glyph glyph-name="Ydieresis" unicode="&#x178;" horiz-adv-x="692" 
d="M288 0v175l-279 537h132l205 -402l206 402h131l-279 -537v-175h-116zM161 852c0 44 34 80 80 80c44 0 79 -36 79 -80c0 -45 -35 -80 -79 -80c-46 0 -80 35 -80 80zM370 852c0 44 35 80 80 80c44 0 80 -36 80 -80c0 -45 -36 -80 -80 -80c-45 0 -80 35 -80 80z" />
    <glyph glyph-name="Upsilondieresis" unicode="&#x3ab;" horiz-adv-x="692" 
d="M288 0v175l-279 537h132l205 -402l206 402h131l-279 -537v-175h-116zM162 852c0 44 34 80 80 80c44 0 79 -36 79 -80c0 -45 -35 -80 -79 -80c-46 0 -80 35 -80 80zM371 852c0 44 35 80 80 80c44 0 80 -36 80 -80c0 -45 -36 -80 -80 -80c-45 0 -80 35 -80 80z" />
    <glyph glyph-name="grave" unicode="`" horiz-adv-x="310" 
d="M31 899l72 83l176 -161l-64 -73z" />
    <glyph glyph-name="caron" unicode="&#x2c7;" horiz-adv-x="461" 
d="M230 750l-199 153l63 82l136 -109l138 109l62 -82z" />
    <glyph glyph-name="Dcroat" unicode="&#x110;" horiz-adv-x="749" 
d="M13 301v113h61v298h287c197 0 355 -160 355 -357c0 -195 -158 -355 -355 -355h-287v301h-61zM190 115h173c133 0 238 109 238 240c0 133 -105 241 -238 241h-173v-182h199v-113h-199v-186z" />
    <glyph glyph-name="dotaccent" unicode="&#x2d9;" horiz-adv-x="221" 
d="M31 852c0 44 34 80 80 80c44 0 79 -36 79 -80c0 -45 -35 -80 -79 -80c-46 0 -80 35 -80 80z" />
    <glyph glyph-name="cedilla" unicode="&#xb8;" horiz-adv-x="367" 
d="M31 -254l34 77c33 -15 65 -21 93 -21c64 0 94 19 94 36c0 19 -36 32 -75 32c-21 0 -42 -4 -61 -12l-29 72c27 13 60 19 93 19c83 0 156 -38 156 -109c0 -62 -62 -123 -178 -123c-40 0 -83 9 -127 29z" />
    <glyph glyph-name="breve" unicode="&#x2d8;" horiz-adv-x="491" 
d="M31 918l90 52c15 -24 73 -106 124 -106c54 0 113 86 124 106l91 -52c-42 -72 -124 -157 -215 -157c-92 0 -174 87 -214 157z" />
    <glyph glyph-name="Tbar" unicode="&#x166;" horiz-adv-x="688" 
d="M159 339v111h127v146h-257v116h630v-116h-258v-146h129v-111h-129v-339h-115v339h-127z" />
    <glyph glyph-name="Hbar" unicode="&#x126;" horiz-adv-x="760" 
d="M18 496v110h50v106h116v-106h393v106h115v-106h51v-110h-51v-496h-115v299h-393v-299h-116v496h-50zM184 413h393v83h-393v-83z" />
    <glyph glyph-name="Lslash" unicode="&#x141;" horiz-adv-x="665" 
d="M42 181l-37 105l70 24v402h116v-362l133 46l36 -104l-169 -59v-118h434v-115h-550v192z" />
    <glyph glyph-name="Aacute" unicode="&#xc1;" horiz-adv-x="748" 
d="M9 0l308 712h114l308 -712h-126l-42 98h-393l-43 -98h-126zM226 212h296l-148 347zM537 899l-185 -151l-63 73l175 161z" />
    <glyph glyph-name="Abreve" unicode="&#x102;" horiz-adv-x="748" 
d="M9 0l308 712h114l308 -712h-126l-42 98h-393l-43 -98h-126zM226 212h296l-148 347zM160 918l90 52c15 -24 73 -106 124 -106c54 0 113 86 124 106l91 -52c-42 -72 -124 -157 -215 -157c-92 0 -174 87 -214 157z" />
    <glyph glyph-name="Acircumflex" unicode="&#xc2;" horiz-adv-x="748" 
d="M9 0l308 712h114l308 -712h-126l-42 98h-393l-43 -98h-126zM226 212h296l-148 347zM373 858l-135 -110c-21 28 -43 55 -63 82l198 153l201 -153c-21 -27 -42 -54 -62 -82z" />
    <glyph glyph-name="Agrave" unicode="&#xc0;" horiz-adv-x="748" 
d="M9 0l308 712h114l308 -712h-126l-42 98h-393l-43 -98h-126zM226 212h296l-148 347zM200 899l72 83l176 -161l-64 -73z" />
    <glyph glyph-name="Adieresis" unicode="&#xc4;" horiz-adv-x="748" 
d="M9 0l308 712h114l308 -712h-126l-42 98h-393l-43 -98h-126zM226 212h296l-148 347zM190 852c0 44 34 80 80 80c44 0 79 -36 79 -80c0 -45 -35 -80 -79 -80c-46 0 -80 35 -80 80zM399 852c0 44 35 80 80 80c44 0 80 -36 80 -80c0 -45 -36 -80 -80 -80c-45 0 -80 35 -80 80
z" />
    <glyph glyph-name="Zdotaccent" unicode="&#x17b;" horiz-adv-x="709" 
d="M60 0v134l445 461h-445v117h589v-135l-445 -462h445v-115h-589zM274 852c0 44 34 80 80 80c44 0 79 -36 79 -80c0 -45 -35 -80 -79 -80c-46 0 -80 35 -80 80z" />
    <glyph glyph-name="Atilde" unicode="&#xc3;" horiz-adv-x="748" 
d="M9 0l308 712h114l308 -712h-126l-42 98h-393l-43 -98h-126zM226 212h296l-148 347zM229 769l-85 57c38 57 88 112 157 112c82 0 113 -69 148 -69c24 0 49 37 70 66l86 -58c-39 -56 -87 -112 -156 -112c-82 0 -112 70 -149 70c-23 0 -50 -36 -71 -66z" />
    <glyph glyph-name="AEacute" unicode="&#x1fc;" horiz-adv-x="1092" 
d="M4 0l431 712h609v-116h-430v-181h311v-115h-311v-185h430v-115h-544v98h-302l-59 -98h-135zM266 212h234v390zM789 899l-185 -151l-63 73l175 161z" />
    <glyph glyph-name="Cacute" unicode="&#x106;" horiz-adv-x="774" 
d="M647 237l104 -53c-63 -124 -189 -208 -339 -208c-209 0 -379 170 -379 381c0 208 170 379 379 379c149 0 278 -84 339 -207l-104 -53c-42 86 -131 144 -235 144c-144 0 -263 -119 -263 -263c0 -147 119 -265 263 -265c104 0 191 59 235 145zM575 899l-185 -151l-63 73
l175 161z" />
    <glyph glyph-name="Ccaron" unicode="&#x10c;" horiz-adv-x="774" 
d="M647 237l104 -53c-63 -124 -189 -208 -339 -208c-209 0 -379 170 -379 381c0 208 170 379 379 379c149 0 278 -84 339 -207l-104 -53c-42 86 -131 144 -235 144c-144 0 -263 -119 -263 -263c0 -147 119 -265 263 -265c104 0 191 59 235 145zM412 750l-199 153l63 82
l136 -109l138 109l62 -82z" />
    <glyph glyph-name="Ccircumflex" unicode="&#x108;" horiz-adv-x="774" 
d="M647 237l104 -53c-63 -124 -189 -208 -339 -208c-209 0 -379 170 -379 381c0 208 170 379 379 379c149 0 278 -84 339 -207l-104 -53c-42 86 -131 144 -235 144c-144 0 -263 -119 -263 -263c0 -147 119 -265 263 -265c104 0 191 59 235 145zM411 858l-135 -110
c-21 28 -43 55 -63 82l198 153l201 -153c-21 -27 -42 -54 -62 -82z" />
    <glyph glyph-name="Cdotaccent" unicode="&#x10a;" horiz-adv-x="774" 
d="M647 237l104 -53c-63 -124 -189 -208 -339 -208c-209 0 -379 170 -379 381c0 208 170 379 379 379c149 0 278 -84 339 -207l-104 -53c-42 86 -131 144 -235 144c-144 0 -263 -119 -263 -263c0 -147 119 -265 263 -265c104 0 191 59 235 145zM332 852c0 44 34 80 80 80
c44 0 79 -36 79 -80c0 -45 -35 -80 -79 -80c-46 0 -80 35 -80 80z" />
    <glyph glyph-name="Dcaron" unicode="&#x10e;" horiz-adv-x="742" 
d="M67 0v712h287c197 0 355 -160 355 -357c0 -195 -158 -355 -355 -355h-287zM183 115h173c134 0 239 109 239 240c0 133 -105 241 -239 241h-173v-481zM348 750l-199 153l63 82l136 -109l138 109l62 -82z" />
    <glyph glyph-name="Eacute" unicode="&#xc9;" horiz-adv-x="667" 
d="M67 0v712h551v-116h-435v-181h317v-115h-317v-185h435v-115h-551zM502 899l-185 -151l-63 73l175 161z" />
    <glyph glyph-name="Ebreve" unicode="&#x114;" horiz-adv-x="667" 
d="M67 0v712h551v-116h-435v-181h317v-115h-317v-185h435v-115h-551zM124 918l90 52c15 -24 73 -106 124 -106c54 0 113 86 124 106l91 -52c-42 -72 -124 -157 -215 -157c-92 0 -174 87 -214 157z" />
    <glyph glyph-name="Ecaron" unicode="&#x11a;" horiz-adv-x="667" 
d="M67 0v712h551v-116h-435v-181h317v-115h-317v-185h435v-115h-551zM339 750l-199 153l63 82l136 -109l138 109l62 -82z" />
    <glyph glyph-name="Ecircumflex" unicode="&#xca;" horiz-adv-x="667" 
d="M67 0v712h551v-116h-435v-181h317v-115h-317v-185h435v-115h-551zM338 858l-135 -110c-21 28 -43 55 -63 82l198 153l201 -153c-21 -27 -42 -54 -62 -82z" />
    <glyph glyph-name="Edieresis" unicode="&#xcb;" horiz-adv-x="667" 
d="M67 0v712h551v-116h-435v-181h317v-115h-317v-185h435v-115h-551zM155 852c0 44 34 80 80 80c44 0 79 -36 79 -80c0 -45 -35 -80 -79 -80c-46 0 -80 35 -80 80zM364 852c0 44 35 80 80 80c44 0 80 -36 80 -80c0 -45 -36 -80 -80 -80c-45 0 -80 35 -80 80z" />
    <glyph glyph-name="Edotaccent" unicode="&#x116;" horiz-adv-x="667" 
d="M67 0v712h551v-116h-435v-181h317v-115h-317v-185h435v-115h-551zM259 852c0 44 34 80 80 80c44 0 79 -36 79 -80c0 -45 -35 -80 -79 -80c-46 0 -80 35 -80 80z" />
    <glyph glyph-name="Egrave" unicode="&#xc8;" horiz-adv-x="667" 
d="M67 0v712h551v-116h-435v-181h317v-115h-317v-185h435v-115h-551zM164 899l72 83l176 -161l-64 -73z" />
    <glyph glyph-name="Gbreve" unicode="&#x11e;" horiz-adv-x="825" 
d="M569 299v115h220c3 -18 4 -39 4 -57c0 -211 -171 -381 -381 -381c-209 0 -379 170 -379 381c0 208 170 379 379 379c100 0 190 -38 258 -101l-77 -85c-48 43 -111 70 -181 70c-144 0 -263 -119 -263 -263c0 -147 119 -265 263 -265c128 0 233 89 259 207h-102zM198 918
l90 52c15 -24 73 -106 124 -106c54 0 113 86 124 106l91 -52c-42 -72 -124 -157 -215 -157c-92 0 -174 87 -214 157z" />
    <glyph glyph-name="Gcircumflex" unicode="&#x11c;" horiz-adv-x="825" 
d="M569 299v115h220c3 -18 4 -39 4 -57c0 -211 -171 -381 -381 -381c-209 0 -379 170 -379 381c0 208 170 379 379 379c100 0 190 -38 258 -101l-77 -85c-48 43 -111 70 -181 70c-144 0 -263 -119 -263 -263c0 -147 119 -265 263 -265c128 0 233 89 259 207h-102zM412 858
l-135 -110c-21 28 -43 55 -63 82l198 153l201 -153c-21 -27 -42 -54 -62 -82z" />
    <glyph glyph-name="Gdotaccent" unicode="&#x120;" horiz-adv-x="825" 
d="M569 299v115h220c3 -18 4 -39 4 -57c0 -211 -171 -381 -381 -381c-209 0 -379 170 -379 381c0 208 170 379 379 379c100 0 190 -38 258 -101l-77 -85c-48 43 -111 70 -181 70c-144 0 -263 -119 -263 -263c0 -147 119 -265 263 -265c128 0 233 89 259 207h-102zM332 852
c0 44 34 80 80 80c44 0 79 -36 79 -80c0 -45 -35 -80 -79 -80c-46 0 -80 35 -80 80z" />
    <glyph glyph-name="Hcircumflex" unicode="&#x124;" horiz-adv-x="759" 
d="M67 0v712h116v-297h393v297h116v-712h-116v300h-393v-300h-116zM379 858l-135 -110c-21 28 -43 55 -63 82l198 153l201 -153c-21 -27 -42 -54 -62 -82z" />
    <glyph glyph-name="Iacute" unicode="&#xcd;" horiz-adv-x="251" 
d="M67 0v712h116v-712h-116zM288 899l-185 -151l-63 73l175 161z" />
    <glyph glyph-name="Ibreve" unicode="&#x12c;" horiz-adv-x="251" 
d="M67 0v712h116v-712h-116zM-89 918l90 52c15 -24 73 -106 124 -106c54 0 113 86 124 106l91 -52c-42 -72 -124 -157 -215 -157c-92 0 -174 87 -214 157z" />
    <glyph glyph-name="Icircumflex" unicode="&#xce;" horiz-adv-x="251" 
d="M67 0v712h116v-712h-116zM124 858l-135 -110c-21 28 -43 55 -63 82l198 153l201 -153c-21 -27 -42 -54 -62 -82z" />
    <glyph glyph-name="Idieresis" unicode="&#xcf;" horiz-adv-x="251" 
d="M67 0v712h116v-712h-116zM-59 852c0 44 34 80 80 80c44 0 79 -36 79 -80c0 -45 -35 -80 -79 -80c-46 0 -80 35 -80 80zM150 852c0 44 35 80 80 80c44 0 80 -36 80 -80c0 -45 -36 -80 -80 -80c-45 0 -80 35 -80 80z" />
    <glyph glyph-name="Idotaccent" unicode="&#x130;" horiz-adv-x="251" 
d="M67 0v712h116v-712h-116zM45 852c0 44 34 80 80 80c44 0 79 -36 79 -80c0 -45 -35 -80 -79 -80c-46 0 -80 35 -80 80z" />
    <glyph glyph-name="Igrave" unicode="&#xcc;" horiz-adv-x="251" 
d="M67 0v712h116v-712h-116zM-49 899l72 83l176 -161l-64 -73z" />
    <glyph glyph-name="Itilde" unicode="&#x128;" horiz-adv-x="251" 
d="M67 0v712h116v-712h-116zM-20 769l-85 57c38 57 88 112 157 112c82 0 113 -69 148 -69c24 0 49 37 70 66l86 -58c-39 -56 -87 -112 -156 -112c-82 0 -112 70 -149 70c-23 0 -50 -36 -71 -66z" />
    <glyph glyph-name="Jcircumflex" unicode="&#x134;" horiz-adv-x="560" 
d="M9 41l71 90c30 -25 70 -39 111 -39c105 0 189 78 189 179v441h116v-442c0 -166 -136 -294 -305 -294c-69 0 -132 24 -182 65zM436 858l-135 -110c-21 28 -43 55 -63 82l198 153l201 -153c-21 -27 -42 -54 -62 -82z" />
    <glyph glyph-name="Lacute" unicode="&#x139;" horiz-adv-x="657" 
d="M67 0v712h116v-597h434v-115h-550zM287 899l-185 -151l-63 73l175 161z" />
    <glyph glyph-name="Lcaron" unicode="&#x13d;" horiz-adv-x="657" 
d="M338 736c52 0 80 -45 80 -102c0 -76 -50 -126 -119 -169l-47 73c26 16 55 37 67 52c-33 1 -61 29 -61 65c0 41 31 81 80 81zM67 0v712h116v-597h434v-115h-550z" />
    <glyph glyph-name="Nacute" unicode="&#x143;" horiz-adv-x="775" 
d="M67 0v712h139l385 -547v547h116v-712h-138l-386 547v-547h-116zM556 899l-185 -151l-63 73l175 161z" />
    <glyph glyph-name="Ncaron" unicode="&#x147;" horiz-adv-x="775" 
d="M67 0v712h139l385 -547v547h116v-712h-138l-386 547v-547h-116zM393 750l-199 153l63 82l136 -109l138 109l62 -82z" />
    <glyph glyph-name="Ntilde" unicode="&#xd1;" horiz-adv-x="775" 
d="M67 0v712h139l385 -547v547h116v-712h-138l-386 547v-547h-116zM248 769l-85 57c38 57 88 112 157 112c82 0 113 -69 148 -69c24 0 49 37 70 66l86 -58c-39 -56 -87 -112 -156 -112c-82 0 -112 70 -149 70c-23 0 -50 -36 -71 -66z" />
    <glyph glyph-name="Oacute" unicode="&#xd3;" 
d="M33 357c0 208 170 379 379 379c211 0 381 -171 381 -379c0 -211 -170 -381 -381 -381c-209 0 -379 170 -379 381zM677 357c0 144 -118 263 -265 263c-144 0 -263 -119 -263 -263c0 -147 119 -265 263 -265c147 0 265 118 265 265zM576 899l-185 -151l-63 73l175 161z" />
    <glyph glyph-name="Obreve" unicode="&#x14e;" 
d="M33 357c0 208 170 379 379 379c211 0 381 -171 381 -379c0 -211 -170 -381 -381 -381c-209 0 -379 170 -379 381zM677 357c0 144 -118 263 -265 263c-144 0 -263 -119 -263 -263c0 -147 119 -265 263 -265c147 0 265 118 265 265zM199 918l90 52c15 -24 73 -106 124 -106
c54 0 113 86 124 106l91 -52c-42 -72 -124 -157 -215 -157c-92 0 -174 87 -214 157z" />
    <glyph glyph-name="Ocircumflex" unicode="&#xd4;" 
d="M33 357c0 208 170 379 379 379c211 0 381 -171 381 -379c0 -211 -170 -381 -381 -381c-209 0 -379 170 -379 381zM677 357c0 144 -118 263 -265 263c-144 0 -263 -119 -263 -263c0 -147 119 -265 263 -265c147 0 265 118 265 265zM412 858l-135 -110
c-21 28 -43 55 -63 82l198 153l201 -153c-21 -27 -42 -54 -62 -82z" />
    <glyph glyph-name="Odieresis" unicode="&#xd6;" 
d="M33 357c0 208 170 379 379 379c211 0 381 -171 381 -379c0 -211 -170 -381 -381 -381c-209 0 -379 170 -379 381zM677 357c0 144 -118 263 -265 263c-144 0 -263 -119 -263 -263c0 -147 119 -265 263 -265c147 0 265 118 265 265zM229 852c0 44 34 80 80 80
c44 0 79 -36 79 -80c0 -45 -35 -80 -79 -80c-46 0 -80 35 -80 80zM438 852c0 44 35 80 80 80c44 0 80 -36 80 -80c0 -45 -36 -80 -80 -80c-45 0 -80 35 -80 80z" />
    <glyph glyph-name="Ograve" unicode="&#xd2;" 
d="M33 357c0 208 170 379 379 379c211 0 381 -171 381 -379c0 -211 -170 -381 -381 -381c-209 0 -379 170 -379 381zM677 357c0 144 -118 263 -265 263c-144 0 -263 -119 -263 -263c0 -147 119 -265 263 -265c147 0 265 118 265 265zM238 899l72 83l176 -161l-64 -73z" />
    <glyph glyph-name="Oslashacute" unicode="&#x1fe;" 
d="M575 899c-61 -50 -122 -101 -184 -151c-21 25 -42 48 -64 73c59 53 118 107 176 161zM412 91c147 0 265 119 265 266c0 90 -49 173 -118 219l-191 -480c14 -3 29 -5 44 -5zM412 620c-144 0 -263 -119 -263 -263c0 -94 49 -178 120 -223l192 481c-15 3 -32 5 -49 5z
M196 -50c11 25 20 50 30 75c-115 65 -193 189 -193 332c0 207 170 378 377 378c33 0 65 -5 94 -12l16 39h113l-31 -77c114 -66 191 -189 191 -328c0 -211 -169 -380 -379 -380c-31 0 -62 5 -89 12l-15 -39h-114z" />
    <glyph glyph-name="Otilde" unicode="&#xd5;" 
d="M33 357c0 208 170 379 379 379c211 0 381 -171 381 -379c0 -211 -170 -381 -381 -381c-209 0 -379 170 -379 381zM677 357c0 144 -118 263 -265 263c-144 0 -263 -119 -263 -263c0 -147 119 -265 263 -265c147 0 265 118 265 265zM268 769l-85 57c38 57 88 112 157 112
c82 0 113 -69 148 -69c24 0 49 37 70 66l86 -58c-39 -56 -87 -112 -156 -112c-82 0 -112 70 -149 70c-23 0 -50 -36 -71 -66z" />
    <glyph glyph-name="Racute" unicode="&#x154;" horiz-adv-x="709" 
d="M183 289h199c92 0 166 70 166 155s-76 155 -168 155h-197v-310zM67 0v712h315c154 0 282 -119 282 -268c0 -101 -60 -187 -145 -233l147 -211h-143l-123 178c-4 -1 -11 -1 -15 -1h-202v-177h-116zM526 899l-185 -151l-63 73l175 161z" />
    <glyph glyph-name="Rcaron" unicode="&#x158;" horiz-adv-x="709" 
d="M183 289h199c92 0 166 70 166 155s-76 155 -168 155h-197v-310zM67 0v712h315c154 0 282 -119 282 -268c0 -101 -60 -187 -145 -233l147 -211h-143l-123 178c-4 -1 -11 -1 -15 -1h-202v-177h-116zM359 750l-199 153l63 82l136 -109l138 109l62 -82z" />
    <glyph glyph-name="Sacute" unicode="&#x15a;" horiz-adv-x="689" 
d="M30 94l69 101c101 -71 192 -102 268 -102c106 0 168 47 168 90c0 149 -498 92 -498 341c0 128 125 212 277 212c95 0 200 -32 311 -103l-65 -99c-92 58 -182 86 -255 86c-97 0 -152 -46 -152 -92c0 -128 498 -79 498 -342c0 -113 -112 -210 -289 -210
c-99 0 -213 38 -332 118zM489 899l-185 -151l-63 73l175 161z" />
    <glyph glyph-name="Scaron" unicode="&#x160;" horiz-adv-x="689" 
d="M30 94l69 101c101 -71 192 -102 268 -102c106 0 168 47 168 90c0 149 -498 92 -498 341c0 128 125 212 277 212c95 0 200 -32 311 -103l-65 -99c-92 58 -182 86 -255 86c-97 0 -152 -46 -152 -92c0 -128 498 -79 498 -342c0 -113 -112 -210 -289 -210
c-99 0 -213 38 -332 118zM326 750l-199 153l63 82l136 -109l138 109l62 -82z" />
    <glyph glyph-name="Scircumflex" unicode="&#x15c;" horiz-adv-x="689" 
d="M30 94l69 101c101 -71 192 -102 268 -102c106 0 168 47 168 90c0 149 -498 92 -498 341c0 128 125 212 277 212c95 0 200 -32 311 -103l-65 -99c-92 58 -182 86 -255 86c-97 0 -152 -46 -152 -92c0 -128 498 -79 498 -342c0 -113 -112 -210 -289 -210
c-99 0 -213 38 -332 118zM325 858l-135 -110c-21 28 -43 55 -63 82l198 153l201 -153c-21 -27 -42 -54 -62 -82z" />
    <glyph glyph-name="Tcaron" unicode="&#x164;" horiz-adv-x="689" 
d="M286 0v596h-257v116h631v-116h-258v-596h-116zM344 750l-199 153l63 82l136 -109l138 109l62 -82z" />
    <glyph glyph-name="Uacute" unicode="&#xda;" horiz-adv-x="751" 
d="M63 295v417h116v-417c0 -112 88 -204 196 -204c109 0 196 92 196 204v417h116v-417c0 -178 -140 -319 -312 -319c-171 0 -312 141 -312 319zM539 899l-185 -151l-63 73l175 161z" />
    <glyph glyph-name="Ubreve" unicode="&#x16c;" horiz-adv-x="751" 
d="M63 295v417h116v-417c0 -112 88 -204 196 -204c109 0 196 92 196 204v417h116v-417c0 -178 -140 -319 -312 -319c-171 0 -312 141 -312 319zM161 918l90 52c15 -24 73 -106 124 -106c54 0 113 86 124 106l91 -52c-42 -72 -124 -157 -215 -157c-92 0 -174 87 -214 157z
" />
    <glyph glyph-name="Ucircumflex" unicode="&#xdb;" horiz-adv-x="751" 
d="M63 295v417h116v-417c0 -112 88 -204 196 -204c109 0 196 92 196 204v417h116v-417c0 -178 -140 -319 -312 -319c-171 0 -312 141 -312 319zM375 858l-135 -110c-21 28 -43 55 -63 82l198 153l201 -153c-21 -27 -42 -54 -62 -82z" />
    <glyph glyph-name="Udieresis" unicode="&#xdc;" horiz-adv-x="751" 
d="M63 295v417h116v-417c0 -112 88 -204 196 -204c109 0 196 92 196 204v417h116v-417c0 -178 -140 -319 -312 -319c-171 0 -312 141 -312 319zM191 852c0 44 34 80 80 80c44 0 79 -36 79 -80c0 -45 -35 -80 -79 -80c-46 0 -80 35 -80 80zM400 852c0 44 35 80 80 80
c44 0 80 -36 80 -80c0 -45 -36 -80 -80 -80c-45 0 -80 35 -80 80z" />
    <glyph glyph-name="Ugrave" unicode="&#xd9;" horiz-adv-x="751" 
d="M63 295v417h116v-417c0 -112 88 -204 196 -204c109 0 196 92 196 204v417h116v-417c0 -178 -140 -319 -312 -319c-171 0 -312 141 -312 319zM201 899l72 83l176 -161l-64 -73z" />
    <glyph glyph-name="Uring" unicode="&#x16e;" horiz-adv-x="751" 
d="M63 295v417h116v-417c0 -112 88 -204 196 -204c109 0 196 92 196 204v417h116v-417c0 -178 -140 -319 -312 -319c-171 0 -312 141 -312 319zM247 879c0 71 57 128 128 128s127 -57 127 -128c0 -70 -56 -126 -127 -126s-128 56 -128 126zM327 879c0 -25 22 -47 48 -47
c25 0 48 22 48 47c0 26 -23 48 -48 48c-26 0 -48 -22 -48 -48z" />
    <glyph glyph-name="Utilde" unicode="&#x168;" horiz-adv-x="751" 
d="M63 295v417h116v-417c0 -112 88 -204 196 -204c109 0 196 92 196 204v417h116v-417c0 -178 -140 -319 -312 -319c-171 0 -312 141 -312 319zM231 769l-85 57c38 57 88 112 157 112c82 0 113 -69 148 -69c24 0 49 37 70 66l86 -58c-39 -56 -87 -112 -156 -112
c-82 0 -112 70 -149 70c-23 0 -50 -36 -71 -66z" />
    <glyph glyph-name="Wacute" unicode="&#x1e82;" horiz-adv-x="998" 
d="M989 712l-249 -712h-125l-117 490l-115 -490h-126l-248 712h122l180 -519l126 519h123c42 -173 83 -347 124 -519c61 172 120 346 180 519h125zM662 899l-185 -151l-63 73l175 161z" />
    <glyph glyph-name="Wcircumflex" unicode="&#x174;" horiz-adv-x="998" 
d="M989 712l-249 -712h-125l-117 490l-115 -490h-126l-248 712h122l180 -519l126 519h123c42 -173 83 -347 124 -519c61 172 120 346 180 519h125zM498 858l-135 -110c-21 28 -43 55 -63 82l198 153l201 -153c-21 -27 -42 -54 -62 -82z" />
    <glyph glyph-name="Wdieresis" unicode="&#x1e84;" horiz-adv-x="998" 
d="M989 712l-249 -712h-125l-117 490l-115 -490h-126l-248 712h122l180 -519l126 519h123c42 -173 83 -347 124 -519c61 172 120 346 180 519h125zM315 852c0 44 34 80 80 80c44 0 79 -36 79 -80c0 -45 -35 -80 -79 -80c-46 0 -80 35 -80 80zM524 852c0 44 35 80 80 80
c44 0 80 -36 80 -80c0 -45 -36 -80 -80 -80c-45 0 -80 35 -80 80z" />
    <glyph glyph-name="Wgrave" unicode="&#x1e80;" horiz-adv-x="998" 
d="M989 712l-249 -712h-125l-117 490l-115 -490h-126l-248 712h122l180 -519l126 519h123c42 -173 83 -347 124 -519c61 172 120 346 180 519h125zM324 899l72 83l176 -161l-64 -73z" />
    <glyph glyph-name="Yacute" unicode="&#xdd;" horiz-adv-x="692" 
d="M288 0v175l-279 537h132l205 -402l206 402h131l-279 -537v-175h-116zM509 899l-185 -151l-63 73l175 161z" />
    <glyph glyph-name="Ycircumflex" unicode="&#x176;" horiz-adv-x="692" 
d="M288 0v175l-279 537h132l205 -402l206 402h131l-279 -537v-175h-116zM345 858l-135 -110c-21 28 -43 55 -63 82l198 153l201 -153c-21 -27 -42 -54 -62 -82z" />
    <glyph glyph-name="Ygrave" unicode="&#x1ef2;" horiz-adv-x="692" 
d="M288 0v175l-279 537h132l205 -402l206 402h131l-279 -537v-175h-116zM171 899l72 83l176 -161l-64 -73z" />
    <glyph glyph-name="Zacute" unicode="&#x179;" horiz-adv-x="709" 
d="M60 0v134l445 461h-445v117h589v-135l-445 -462h445v-115h-589zM517 899l-185 -151l-63 73l175 161z" />
    <glyph glyph-name="Zcaron" unicode="&#x17d;" horiz-adv-x="709" 
d="M60 0v134l445 461h-445v117h589v-135l-445 -462h445v-115h-589zM354 750l-199 153l63 82l136 -109l138 109l62 -82z" />
    <glyph glyph-name="Eng" unicode="&#x14a;" horiz-adv-x="774" 
d="M67 0v712h138l386 -547v547h116v-588c0 -165 -134 -292 -302 -292c-69 0 -132 24 -181 65l70 89c30 -25 69 -39 111 -39c61 0 118 30 152 73l-374 526v-546h-116z" />
    <glyph glyph-name="macron" unicode="&#xaf;" horiz-adv-x="407" 
d="M31 783v105h345v-105h-345z" />
    <glyph glyph-name="Amacron" unicode="&#x100;" horiz-adv-x="748" 
d="M9 0l308 712h114l308 -712h-126l-42 98h-393l-43 -98h-126zM226 212h296l-148 347zM202 783v105h345v-105h-345z" />
    <glyph glyph-name="Emacron" unicode="&#x112;" horiz-adv-x="667" 
d="M67 0v712h551v-116h-435v-181h317v-115h-317v-185h435v-115h-551zM166 783v105h345v-105h-345z" />
    <glyph glyph-name="Imacron" unicode="&#x12a;" horiz-adv-x="251" 
d="M67 0v712h116v-712h-116zM-47 783v105h345v-105h-345z" />
    <glyph glyph-name="Omacron" unicode="&#x14c;" 
d="M33 357c0 208 170 379 379 379c211 0 381 -171 381 -379c0 -211 -170 -381 -381 -381c-209 0 -379 170 -379 381zM677 357c0 144 -118 263 -265 263c-144 0 -263 -119 -263 -263c0 -147 119 -265 263 -265c147 0 265 118 265 265zM240 783v105h345v-105h-345z" />
    <glyph glyph-name="Umacron" unicode="&#x16a;" horiz-adv-x="751" 
d="M63 295v417h116v-417c0 -112 88 -204 196 -204c109 0 196 92 196 204v417h116v-417c0 -178 -140 -319 -312 -319c-171 0 -312 141 -312 319zM203 783v105h345v-105h-345z" />
    <glyph glyph-name="Scedilla" unicode="&#x15e;" horiz-adv-x="689" 
d="M30 94l69 101c101 -71 192 -102 268 -102c106 0 168 47 168 90c0 149 -498 92 -498 341c0 128 125 212 277 212c95 0 200 -32 311 -103l-65 -99c-92 58 -182 86 -255 86c-97 0 -152 -46 -152 -92c0 -128 498 -79 498 -342c0 -113 -112 -210 -289 -210
c-99 0 -213 38 -332 118zM198 -254l34 77c33 -15 65 -21 93 -21c64 0 94 19 94 36c0 19 -36 32 -75 32c-21 0 -42 -4 -61 -12l-29 72c27 13 60 19 93 19c83 0 156 -38 156 -109c0 -62 -62 -123 -178 -123c-40 0 -83 9 -127 29z" />
    <glyph glyph-name="Tcommaaccent" unicode="&#x162;" horiz-adv-x="689" 
d="M286 0v596h-257v116h631v-116h-258v-596h-116zM197 -254l34 77c33 -15 65 -21 93 -21c64 0 94 19 94 36c0 19 -36 32 -75 32c-21 0 -42 -4 -61 -12l-29 72c27 13 60 19 93 19c83 0 156 -38 156 -109c0 -62 -62 -123 -178 -123c-40 0 -83 9 -127 29z" />
    <glyph glyph-name="Ldot" unicode="&#x13f;" horiz-adv-x="657" 
d="M283 295c0 44 34 80 80 80c44 0 79 -36 79 -80c0 -45 -35 -80 -79 -80c-46 0 -80 35 -80 80zM67 0v712h116v-597h434v-115h-550z" />
    <glyph glyph-name="commaaccent" unicode="&#xf6c3;" horiz-adv-x="244" 
d="M132 -52c52 0 81 -46 81 -105c0 -70 -43 -118 -105 -161l-51 70c23 16 48 35 59 50c-34 -1 -63 27 -63 66c0 41 32 80 79 80z" />
    <glyph glyph-name="Gcommaaccent" unicode="&#x122;" horiz-adv-x="825" 
d="M569 299v115h220c3 -18 4 -39 4 -57c0 -211 -171 -381 -381 -381c-209 0 -379 170 -379 381c0 208 170 379 379 379c100 0 190 -38 258 -101l-77 -85c-48 43 -111 70 -181 70c-144 0 -263 -119 -263 -263c0 -147 119 -265 263 -265c128 0 233 89 259 207h-102zM412 -52
c52 0 81 -46 81 -105c0 -70 -43 -118 -105 -161l-51 70c23 16 48 35 59 50c-34 -1 -63 27 -63 66c0 41 32 80 79 80z" />
    <glyph glyph-name="Kcommaaccent" unicode="&#x136;" horiz-adv-x="758" 
d="M67 0v712h116v-459l399 459h153l-308 -355l308 -357h-155l-231 267l-166 -191v-76h-116zM368 -52c52 0 81 -46 81 -105c0 -70 -43 -118 -105 -161l-51 70c23 16 48 35 59 50c-34 -1 -63 27 -63 66c0 41 32 80 79 80z" />
    <glyph glyph-name="Lcommaaccent" unicode="&#x13b;" horiz-adv-x="657" 
d="M67 0v712h116v-597h434v-115h-550zM334 -52c52 0 81 -46 81 -105c0 -70 -43 -118 -105 -161l-51 70c23 16 48 35 59 50c-34 -1 -63 27 -63 66c0 41 32 80 79 80z" />
    <glyph glyph-name="Ncommaaccent" unicode="&#x145;" horiz-adv-x="775" 
d="M67 0v712h139l385 -547v547h116v-712h-138l-386 547v-547h-116zM375 -52c52 0 81 -46 81 -105c0 -70 -43 -118 -105 -161l-51 70c23 16 48 35 59 50c-34 -1 -63 27 -63 66c0 41 32 80 79 80z" />
    <glyph glyph-name="Rcommaaccent" unicode="&#x156;" horiz-adv-x="709" 
d="M183 289h199c92 0 166 70 166 155s-76 155 -168 155h-197v-310zM67 0v712h315c154 0 282 -119 282 -268c0 -101 -60 -187 -145 -233l147 -211h-143l-123 178c-4 -1 -11 -1 -15 -1h-202v-177h-116zM339 -52c52 0 81 -46 81 -105c0 -70 -43 -118 -105 -161l-51 70
c23 16 48 35 59 50c-34 -1 -63 27 -63 66c0 41 32 80 79 80z" />
    <glyph glyph-name="Scommaaccent" unicode="&#x218;" horiz-adv-x="689" 
d="M30 94l69 101c101 -71 192 -102 268 -102c106 0 168 47 168 90c0 149 -498 92 -498 341c0 128 125 212 277 212c95 0 200 -32 311 -103l-65 -99c-92 58 -182 86 -255 86c-97 0 -152 -46 -152 -92c0 -128 498 -79 498 -342c0 -113 -112 -210 -289 -210
c-99 0 -213 38 -332 118zM344 -52c52 0 81 -46 81 -105c0 -70 -43 -118 -105 -161l-51 70c23 16 48 35 59 50c-34 -1 -63 27 -63 66c0 41 32 80 79 80z" />
    <glyph glyph-name="ogonek" unicode="&#x2db;" horiz-adv-x="348" 
d="M154 36l87 -36c-67 -24 -112 -58 -112 -83c0 -16 15 -23 35 -23c32 0 80 17 105 33l48 -82c-53 -32 -102 -46 -144 -46c-89 0 -142 54 -142 107c0 69 93 111 123 130z" />
    <glyph glyph-name="Aogonek" unicode="&#x104;" horiz-adv-x="799" 
d="M9 0l308 712h114l308 -712c-67 -24 -112 -58 -112 -83c0 -16 15 -23 35 -23c32 0 80 17 105 33l48 -82c-53 -32 -102 -46 -144 -46c-89 0 -142 54 -142 107c0 47 42 82 79 104l-37 88h-393l-43 -98h-126zM226 212h296l-148 347z" />
    <glyph glyph-name="Iogonek" unicode="&#x12e;" horiz-adv-x="251" 
d="M183 712v-712c-67 -24 -112 -58 -112 -83c0 -16 15 -23 35 -23c32 0 80 17 105 33l48 -82c-53 -32 -102 -46 -144 -46c-89 0 -142 54 -142 107s55 91 94 113v693h116z" />
    <glyph glyph-name="Uogonek" unicode="&#x172;" horiz-adv-x="751" 
d="M63 295v417h116v-417c0 -112 88 -204 196 -204c109 0 196 92 196 204v417h116v-417c0 -170 -128 -306 -289 -318c-37 -20 -59 -42 -59 -60c0 -16 15 -23 35 -23c32 0 80 17 105 33l48 -82c-53 -32 -102 -46 -144 -46c-89 0 -142 54 -142 107c0 34 22 61 48 83
c-130 37 -226 159 -226 306z" />
    <glyph glyph-name="Aring" unicode="&#xc5;" horiz-adv-x="748" 
d="M9 0l308 712h114l308 -712h-126l-42 98h-393l-43 -98h-126zM226 212h296l-148 347zM246 879c0 71 57 128 128 128s127 -57 127 -128c0 -70 -56 -126 -127 -126s-128 56 -128 126zM326 879c0 -25 22 -47 48 -47c25 0 48 22 48 47c0 26 -23 48 -48 48
c-26 0 -48 -22 -48 -48z" />
    <glyph glyph-name="Kcommaaccent.ss02" horiz-adv-x="722" 
d="M67 0v712h117v-298h154l208 298h141l-249 -355l249 -357h-141l-209 298h-153v-298h-117zM344 -52c52 0 81 -46 81 -105c0 -70 -43 -118 -105 -161l-51 70c23 16 48 35 59 50c-34 -1 -63 27 -63 66c0 41 32 80 79 80z" />
    <glyph glyph-name="Omega" unicode="&#x2126;" horiz-adv-x="839" 
d="M380 0h-335v114h130c-84 67 -126 154 -126 255c0 197 161 367 371 367s369 -170 369 -367c0 -101 -40 -188 -124 -255h130v-114h-335v119c126 39 214 128 214 248c0 137 -111 253 -254 253s-255 -116 -255 -253c0 -120 87 -209 215 -248v-119z" />
    <glyph glyph-name="Delta" unicode="&#x2206;" horiz-adv-x="747" 
d="M170 115h407l-203 465zM438 712l277 -622v-90h-683v90l276 622h130z" />
    <glyph glyph-name="afii61352" unicode="&#x2116;" horiz-adv-x="1285" 
d="M67 0v712h138c127 -182 253 -365 379 -547v547h116v-712h-138l-379 546v-546h-116zM1137 482c0 79 -53 141 -133 141c-79 0 -132 -61 -132 -141s53 -142 132 -142c80 0 133 61 133 142zM761 482c0 144 104 254 243 254c140 0 246 -110 246 -254
c0 -145 -106 -254 -246 -254c-139 0 -243 109 -243 254zM1146 0h-283v114h283v-114z" />
    <glyph glyph-name="uni021A" unicode="&#x21a;" horiz-adv-x="689" 
d="M286 0v596h-257v116h631v-116h-258v-596h-116zM343 -52c52 0 81 -46 81 -105c0 -70 -43 -118 -105 -161l-51 70c23 16 48 35 59 50c-34 -1 -63 27 -63 66c0 41 32 80 79 80z" />
    <glyph glyph-name="uni2715" unicode="&#x2715;" horiz-adv-x="908" 
d="M32 16c113 113 227 227 341 339l-341 339l84 84l338 -342l338 342c29 -28 56 -57 85 -84l-342 -339c114 -112 228 -226 342 -339c-29 -27 -56 -55 -85 -83c-113 113 -225 228 -338 342l-338 -342z" />
    <glyph glyph-name="hungarumlaut" unicode="&#x2dd;" horiz-adv-x="462" 
d="M107 748l-76 54l135 197l87 -63zM285 748l-76 54l135 197l87 -63c-49 -63 -98 -125 -146 -188z" />
    <glyph glyph-name="Ohungarumlaut" unicode="&#x150;" 
d="M33 357c0 208 170 379 379 379c211 0 381 -171 381 -379c0 -211 -170 -381 -381 -381c-209 0 -379 170 -379 381zM677 357c0 144 -118 263 -265 263c-144 0 -263 -119 -263 -263c0 -147 119 -265 263 -265c147 0 265 118 265 265zM333 748l-76 54l135 197l87 -63z
M511 748l-76 54l135 197l87 -63c-49 -63 -98 -125 -146 -188z" />
    <glyph glyph-name="Uhungarumlaut" unicode="&#x170;" horiz-adv-x="751" 
d="M63 295v417h116v-417c0 -112 88 -204 196 -204c109 0 196 92 196 204v417h116v-417c0 -178 -140 -319 -312 -319c-171 0 -312 141 -312 319zM296 748l-76 54l135 197l87 -63zM474 748l-76 54l135 197l87 -63c-49 -63 -98 -125 -146 -188z" />
    <glyph glyph-name="Eogonek" unicode="&#x118;" horiz-adv-x="667" 
d="M67 0v712h551v-116h-435v-181h317v-115h-317v-185h435v-115c-67 -24 -112 -58 -112 -83c0 -16 15 -23 35 -23c32 0 80 17 105 33l48 -82c-53 -32 -102 -46 -144 -46c-89 0 -142 54 -142 107c0 41 31 72 64 94h-405z" />
    <glyph glyph-name="arrowright" unicode="&#x2192;" horiz-adv-x="716" 
d="M249 44l262 254h-472v115h472l-262 255l82 82l345 -346v-96c-115 -115 -230 -231 -345 -345z" />
    <glyph glyph-name="arrowup" unicode="&#x2191;" horiz-adv-x="820" 
d="M97 247l-81 82l345 345h97l346 -345l-83 -82l-254 262v-472h-115v472z" />
    <glyph glyph-name="arrowleft" unicode="&#x2190;" horiz-adv-x="716" 
d="M39 308v96l345 346l82 -82l-262 -255h472v-115h-472l262 -254l-82 -81c-115 114 -230 230 -345 345z" />
    <glyph glyph-name="arrowdown" unicode="&#x2193;" horiz-adv-x="820" 
d="M16 382l81 82l255 -262v472h115v-472l254 262l83 -82l-346 -345h-97z" />
    <glyph glyph-name="minus" unicode="&#x2212;" horiz-adv-x="574" 
d="M50 295v114h475v-114h-475z" />
    <glyph glyph-name="franc" unicode="&#x20a3;" horiz-adv-x="653" 
d="M16 125v108h51v479h548v-116h-432v-182h310v-115h-310v-66h128v-108h-128v-125h-116v125h-51z" />
    <glyph glyph-name="a" unicode="a" horiz-adv-x="748" 
d="M9 0l308 712h114l308 -712h-126l-42 98h-393l-43 -98h-126zM226 212h296l-148 347z" />
    <glyph glyph-name="aacute" unicode="&#xe1;" horiz-adv-x="748" 
d="M9 0l308 712h114l308 -712h-126l-42 98h-393l-43 -98h-126zM226 212h296l-148 347zM537 899l-185 -151l-63 73l175 161z" />
    <glyph glyph-name="abreve" unicode="&#x103;" horiz-adv-x="748" 
d="M9 0l308 712h114l308 -712h-126l-42 98h-393l-43 -98h-126zM226 212h296l-148 347zM160 918l90 52c15 -24 73 -106 124 -106c54 0 113 86 124 106l91 -52c-42 -72 -124 -157 -215 -157c-92 0 -174 87 -214 157z" />
    <glyph glyph-name="acircumflex" unicode="&#xe2;" horiz-adv-x="748" 
d="M9 0l308 712h114l308 -712h-126l-42 98h-393l-43 -98h-126zM226 212h296l-148 347zM373 858l-135 -110c-21 28 -43 55 -63 82l198 153l201 -153c-21 -27 -42 -54 -62 -82z" />
    <glyph glyph-name="agrave" unicode="&#xe0;" horiz-adv-x="748" 
d="M9 0l308 712h114l308 -712h-126l-42 98h-393l-43 -98h-126zM226 212h296l-148 347zM200 899l72 83l176 -161l-64 -73z" />
    <glyph glyph-name="adieresis" unicode="&#xe4;" horiz-adv-x="748" 
d="M9 0l308 712h114l308 -712h-126l-42 98h-393l-43 -98h-126zM226 212h296l-148 347zM190 852c0 44 34 80 80 80c44 0 79 -36 79 -80c0 -45 -35 -80 -79 -80c-46 0 -80 35 -80 80zM399 852c0 44 35 80 80 80c44 0 80 -36 80 -80c0 -45 -36 -80 -80 -80c-45 0 -80 35 -80 80
z" />
    <glyph glyph-name="amacron" unicode="&#x101;" horiz-adv-x="748" 
d="M9 0l308 712h114l308 -712h-126l-42 98h-393l-43 -98h-126zM226 212h296l-148 347zM202 783v105h345v-105h-345z" />
    <glyph glyph-name="aogonek" unicode="&#x105;" horiz-adv-x="799" 
d="M9 0l308 712h114l308 -712c-67 -24 -112 -58 -112 -83c0 -16 15 -23 35 -23c32 0 80 17 105 33l48 -82c-53 -32 -102 -46 -144 -46c-89 0 -142 54 -142 107c0 47 42 82 79 104l-37 88h-393l-43 -98h-126zM226 212h296l-148 347z" />
    <glyph glyph-name="aring" unicode="&#xe5;" horiz-adv-x="748" 
d="M9 0l308 712h114l308 -712h-126l-42 98h-393l-43 -98h-126zM226 212h296l-148 347zM246 879c0 71 57 128 128 128s127 -57 127 -128c0 -70 -56 -126 -127 -126s-128 56 -128 126zM326 879c0 -25 22 -47 48 -47c25 0 48 22 48 47c0 26 -23 48 -48 48
c-26 0 -48 -22 -48 -48z" />
    <glyph glyph-name="atilde" unicode="&#xe3;" horiz-adv-x="748" 
d="M9 0l308 712h114l308 -712h-126l-42 98h-393l-43 -98h-126zM226 212h296l-148 347zM229 769l-85 57c38 57 88 112 157 112c82 0 113 -69 148 -69c24 0 49 37 70 66l86 -58c-39 -56 -87 -112 -156 -112c-82 0 -112 70 -149 70c-23 0 -50 -36 -71 -66z" />
    <glyph glyph-name="ae" unicode="&#xe6;" horiz-adv-x="1092" 
d="M4 0l431 712h609v-116h-430v-181h311v-115h-311v-185h430v-115h-544v98h-302l-59 -98h-135zM266 212h234v390z" />
    <glyph glyph-name="aeacute" unicode="&#x1fd;" horiz-adv-x="1092" 
d="M4 0l431 712h609v-116h-430v-181h311v-115h-311v-185h430v-115h-544v98h-302l-59 -98h-135zM266 212h234v390zM789 899l-185 -151l-63 73l175 161z" />
    <glyph glyph-name="b" unicode="b" horiz-adv-x="681" 
d="M67 0v712h345c114 0 207 -93 207 -207c0 -60 -25 -107 -65 -141c50 -34 83 -90 83 -157c0 -115 -93 -207 -207 -207h-363zM183 115h247c50 0 91 42 91 93s-41 94 -91 94h-247v-187zM183 413h228c50 0 91 40 91 91s-41 93 -91 93h-228v-184z" />
    <glyph glyph-name="cacute" unicode="&#x107;" horiz-adv-x="774" 
d="M647 237l104 -53c-63 -124 -189 -208 -339 -208c-209 0 -379 170 -379 381c0 208 170 379 379 379c149 0 278 -84 339 -207l-104 -53c-42 86 -131 144 -235 144c-144 0 -263 -119 -263 -263c0 -147 119 -265 263 -265c104 0 191 59 235 145zM575 899l-185 -151l-63 73
l175 161z" />
    <glyph glyph-name="ccaron" unicode="&#x10d;" horiz-adv-x="774" 
d="M647 237l104 -53c-63 -124 -189 -208 -339 -208c-209 0 -379 170 -379 381c0 208 170 379 379 379c149 0 278 -84 339 -207l-104 -53c-42 86 -131 144 -235 144c-144 0 -263 -119 -263 -263c0 -147 119 -265 263 -265c104 0 191 59 235 145zM412 750l-199 153l63 82
l136 -109l138 109l62 -82z" />
    <glyph glyph-name="ccedilla" unicode="&#xe7;" horiz-adv-x="777" 
d="M648 237l104 -53c-63 -124 -190 -207 -339 -207c-209 0 -379 169 -379 380c0 208 170 379 379 379c149 0 277 -84 339 -207l-104 -53c-42 86 -131 144 -235 144c-145 0 -263 -119 -263 -263c0 -147 118 -265 263 -265c104 0 191 59 235 145zM261 -254l34 77
c33 -15 65 -21 93 -21c64 0 94 19 94 36c0 19 -36 32 -75 32c-21 0 -42 -4 -61 -12l-29 72c27 13 60 19 93 19c83 0 156 -38 156 -109c0 -62 -62 -123 -178 -123c-40 0 -83 9 -127 29z" />
    <glyph glyph-name="ccircumflex" unicode="&#x109;" horiz-adv-x="774" 
d="M647 237l104 -53c-63 -124 -189 -208 -339 -208c-209 0 -379 170 -379 381c0 208 170 379 379 379c149 0 278 -84 339 -207l-104 -53c-42 86 -131 144 -235 144c-144 0 -263 -119 -263 -263c0 -147 119 -265 263 -265c104 0 191 59 235 145zM411 858l-135 -110
c-21 28 -43 55 -63 82l198 153l201 -153c-21 -27 -42 -54 -62 -82z" />
    <glyph glyph-name="cdotaccent" unicode="&#x10b;" horiz-adv-x="774" 
d="M647 237l104 -53c-63 -124 -189 -208 -339 -208c-209 0 -379 170 -379 381c0 208 170 379 379 379c149 0 278 -84 339 -207l-104 -53c-42 86 -131 144 -235 144c-144 0 -263 -119 -263 -263c0 -147 119 -265 263 -265c104 0 191 59 235 145zM332 852c0 44 34 80 80 80
c44 0 79 -36 79 -80c0 -45 -35 -80 -79 -80c-46 0 -80 35 -80 80z" />
    <glyph glyph-name="c" unicode="c" horiz-adv-x="774" 
d="M647 237l104 -53c-63 -124 -189 -208 -339 -208c-209 0 -379 170 -379 381c0 208 170 379 379 379c149 0 278 -84 339 -207l-104 -53c-42 86 -131 144 -235 144c-144 0 -263 -119 -263 -263c0 -147 119 -265 263 -265c104 0 191 59 235 145z" />
    <glyph glyph-name="dcaron" unicode="&#x10f;" horiz-adv-x="742" 
d="M67 0v712h287c197 0 355 -160 355 -357c0 -195 -158 -355 -355 -355h-287zM183 115h173c134 0 239 109 239 240c0 133 -105 241 -239 241h-173v-481zM347 750l-199 153l63 82l136 -109l138 109l62 -82z" />
    <glyph glyph-name="dcroat" unicode="&#x111;" horiz-adv-x="749" 
d="M13 301v113h61v298h287c197 0 355 -160 355 -357c0 -195 -158 -355 -355 -355h-287v301h-61zM190 115h173c133 0 238 109 238 240c0 133 -105 241 -238 241h-173v-182h199v-113h-199v-186z" />
    <glyph glyph-name="d" unicode="d" horiz-adv-x="742" 
d="M67 0v712h287c197 0 355 -160 355 -357c0 -195 -158 -355 -355 -355h-287zM183 115h173c134 0 239 109 239 240c0 133 -105 241 -239 241h-173v-481z" />
    <glyph glyph-name="eacute" unicode="&#xe9;" horiz-adv-x="667" 
d="M67 0v712h551v-116h-435v-181h317v-115h-317v-185h435v-115h-551zM502 899l-185 -151l-63 73l175 161z" />
    <glyph glyph-name="ebreve" unicode="&#x115;" horiz-adv-x="667" 
d="M67 0v712h551v-116h-435v-181h317v-115h-317v-185h435v-115h-551zM124 918l90 52c15 -24 73 -106 124 -106c54 0 113 86 124 106l91 -52c-42 -72 -124 -157 -215 -157c-92 0 -174 87 -214 157z" />
    <glyph glyph-name="ecaron" unicode="&#x11b;" horiz-adv-x="667" 
d="M67 0v712h551v-116h-435v-181h317v-115h-317v-185h435v-115h-551zM339 750l-199 153l63 82l136 -109l138 109l62 -82z" />
    <glyph glyph-name="ecircumflex" unicode="&#xea;" horiz-adv-x="667" 
d="M67 0v712h551v-116h-435v-181h317v-115h-317v-185h435v-115h-551zM338 858l-135 -110c-21 28 -43 55 -63 82l198 153l201 -153c-21 -27 -42 -54 -62 -82z" />
    <glyph glyph-name="edieresis" unicode="&#xeb;" horiz-adv-x="667" 
d="M67 0v712h551v-116h-435v-181h317v-115h-317v-185h435v-115h-551zM155 852c0 44 34 80 80 80c44 0 79 -36 79 -80c0 -45 -35 -80 -79 -80c-46 0 -80 35 -80 80zM364 852c0 44 35 80 80 80c44 0 80 -36 80 -80c0 -45 -36 -80 -80 -80c-45 0 -80 35 -80 80z" />
    <glyph glyph-name="edotaccent" unicode="&#x117;" horiz-adv-x="667" 
d="M67 0v712h551v-116h-435v-181h317v-115h-317v-185h435v-115h-551zM259 852c0 44 34 80 80 80c44 0 79 -36 79 -80c0 -45 -35 -80 -79 -80c-46 0 -80 35 -80 80z" />
    <glyph glyph-name="egrave" unicode="&#xe8;" horiz-adv-x="667" 
d="M67 0v712h551v-116h-435v-181h317v-115h-317v-185h435v-115h-551zM164 899l72 83l176 -161l-64 -73z" />
    <glyph glyph-name="emacron" unicode="&#x113;" horiz-adv-x="667" 
d="M67 0v712h551v-116h-435v-181h317v-115h-317v-185h435v-115h-551zM166 783v105h345v-105h-345z" />
    <glyph glyph-name="eogonek" unicode="&#x119;" horiz-adv-x="667" 
d="M67 0v712h551v-116h-435v-181h317v-115h-317v-185h435v-115c-67 -24 -112 -58 -112 -83c0 -16 15 -23 35 -23c32 0 80 17 105 33l48 -82c-53 -32 -102 -46 -144 -46c-89 0 -142 54 -142 107c0 41 31 72 64 94h-405z" />
    <glyph glyph-name="e" unicode="e" horiz-adv-x="667" 
d="M67 0v712h551v-116h-435v-181h317v-115h-317v-185h435v-115h-551z" />
    <glyph glyph-name="f" unicode="f" horiz-adv-x="653" 
d="M67 0v712h548v-116h-432v-183h310v-116h-310v-297h-116z" />
    <glyph glyph-name="g" unicode="g" horiz-adv-x="825" 
d="M569 299v115h220c3 -18 4 -39 4 -57c0 -211 -171 -381 -381 -381c-209 0 -379 170 -379 381c0 208 170 379 379 379c100 0 190 -38 258 -101l-77 -85c-48 43 -111 70 -181 70c-144 0 -263 -119 -263 -263c0 -147 119 -265 263 -265c128 0 233 89 259 207h-102z" />
    <glyph glyph-name="gbreve" unicode="&#x11f;" horiz-adv-x="825" 
d="M569 299v115h220c3 -18 4 -39 4 -57c0 -211 -171 -381 -381 -381c-209 0 -379 170 -379 381c0 208 170 379 379 379c100 0 190 -38 258 -101l-77 -85c-48 43 -111 70 -181 70c-144 0 -263 -119 -263 -263c0 -147 119 -265 263 -265c128 0 233 89 259 207h-102zM198 918
l90 52c15 -24 73 -106 124 -106c54 0 113 86 124 106l91 -52c-42 -72 -124 -157 -215 -157c-92 0 -174 87 -214 157z" />
    <glyph glyph-name="gcircumflex" unicode="&#x11d;" horiz-adv-x="825" 
d="M569 299v115h220c3 -18 4 -39 4 -57c0 -211 -171 -381 -381 -381c-209 0 -379 170 -379 381c0 208 170 379 379 379c100 0 190 -38 258 -101l-77 -85c-48 43 -111 70 -181 70c-144 0 -263 -119 -263 -263c0 -147 119 -265 263 -265c128 0 233 89 259 207h-102zM412 858
l-135 -110c-21 28 -43 55 -63 82l198 153l201 -153c-21 -27 -42 -54 -62 -82z" />
    <glyph glyph-name="gcommaaccent" unicode="&#x123;" horiz-adv-x="825" 
d="M569 299v115h220c3 -18 4 -39 4 -57c0 -211 -171 -381 -381 -381c-209 0 -379 170 -379 381c0 208 170 379 379 379c100 0 190 -38 258 -101l-77 -85c-48 43 -111 70 -181 70c-144 0 -263 -119 -263 -263c0 -147 119 -265 263 -265c128 0 233 89 259 207h-102zM412 -52
c52 0 81 -46 81 -105c0 -70 -43 -118 -105 -161l-51 70c23 16 48 35 59 50c-34 -1 -63 27 -63 66c0 41 32 80 79 80z" />
    <glyph glyph-name="gdotaccent" unicode="&#x121;" horiz-adv-x="825" 
d="M569 299v115h220c3 -18 4 -39 4 -57c0 -211 -171 -381 -381 -381c-209 0 -379 170 -379 381c0 208 170 379 379 379c100 0 190 -38 258 -101l-77 -85c-48 43 -111 70 -181 70c-144 0 -263 -119 -263 -263c0 -147 119 -265 263 -265c128 0 233 89 259 207h-102zM332 852
c0 44 34 80 80 80c44 0 79 -36 79 -80c0 -45 -35 -80 -79 -80c-46 0 -80 35 -80 80z" />
    <glyph glyph-name="h" unicode="h" horiz-adv-x="759" 
d="M67 0v712h116v-297h393v297h116v-712h-116v300h-393v-300h-116z" />
    <glyph glyph-name="hbar" unicode="&#x127;" horiz-adv-x="760" 
d="M18 496v110h50v106h116v-106h393v106h115v-106h51v-110h-51v-496h-115v299h-393v-299h-116v496h-50zM184 413h393v83h-393v-83z" />
    <glyph glyph-name="hcircumflex" unicode="&#x125;" horiz-adv-x="759" 
d="M67 0v712h116v-297h393v297h116v-712h-116v300h-393v-300h-116zM379 858l-135 -110c-21 28 -43 55 -63 82l198 153l201 -153c-21 -27 -42 -54 -62 -82z" />
    <glyph glyph-name="iacute" unicode="&#xed;" horiz-adv-x="251" 
d="M67 0v712h116v-712h-116zM288 899l-185 -151l-63 73l175 161z" />
    <glyph glyph-name="ibreve" unicode="&#x12d;" horiz-adv-x="251" 
d="M67 0v712h116v-712h-116zM-89 918l90 52c15 -24 73 -106 124 -106c54 0 113 86 124 106l91 -52c-42 -72 -124 -157 -215 -157c-92 0 -174 87 -214 157z" />
    <glyph glyph-name="icircumflex" unicode="&#xee;" horiz-adv-x="251" 
d="M67 0v712h116v-712h-116zM124 858l-135 -110c-21 28 -43 55 -63 82l198 153l201 -153c-21 -27 -42 -54 -62 -82z" />
    <glyph glyph-name="i" unicode="i" horiz-adv-x="251" 
d="M67 0v712h116v-712h-116z" />
    <glyph glyph-name="idieresis" unicode="&#xef;" horiz-adv-x="251" 
d="M67 0v712h116v-712h-116zM-59 852c0 44 34 80 80 80c44 0 79 -36 79 -80c0 -45 -35 -80 -79 -80c-46 0 -80 35 -80 80zM150 852c0 44 35 80 80 80c44 0 80 -36 80 -80c0 -45 -36 -80 -80 -80c-45 0 -80 35 -80 80z" />
    <glyph glyph-name="igrave" unicode="&#xec;" horiz-adv-x="251" 
d="M67 0v712h116v-712h-116zM-49 899l72 83l176 -161l-64 -73z" />
    <glyph glyph-name="imacron" unicode="&#x12b;" horiz-adv-x="251" 
d="M67 0v712h116v-712h-116zM-47 783v105h345v-105h-345z" />
    <glyph glyph-name="iogonek" unicode="&#x12f;" horiz-adv-x="251" 
d="M183 712v-712c-67 -24 -112 -58 -112 -83c0 -16 15 -23 35 -23c32 0 80 17 105 33l48 -82c-53 -32 -102 -46 -144 -46c-89 0 -142 54 -142 107s55 91 94 113v693h116z" />
    <glyph glyph-name="itilde" unicode="&#x129;" horiz-adv-x="251" 
d="M67 0v712h116v-712h-116zM-20 769l-85 57c38 57 88 112 157 112c82 0 113 -69 148 -69c24 0 49 37 70 66l86 -58c-39 -56 -87 -112 -156 -112c-82 0 -112 70 -149 70c-23 0 -50 -36 -71 -66z" />
    <glyph glyph-name="dotlessi" unicode="&#x131;" horiz-adv-x="251" 
d="M67 0v712h116v-712h-116z" />
    <glyph glyph-name="j" unicode="j" horiz-adv-x="560" 
d="M9 41l71 90c30 -25 70 -39 111 -39c105 0 189 78 189 179v441h116v-442c0 -166 -136 -294 -305 -294c-69 0 -132 24 -182 65z" />
    <glyph glyph-name="jcircumflex" unicode="&#x135;" horiz-adv-x="560" 
d="M9 41l71 90c30 -25 70 -39 111 -39c105 0 189 78 189 179v441h116v-442c0 -166 -136 -294 -305 -294c-69 0 -132 24 -182 65zM436 858l-135 -110c-21 28 -43 55 -63 82l198 153l201 -153c-21 -27 -42 -54 -62 -82z" />
    <glyph glyph-name="kcommaaccent" unicode="&#x137;" horiz-adv-x="758" 
d="M67 0v712h116v-459l399 459h153l-308 -355l308 -357h-155l-231 267l-166 -191v-76h-116zM368 -52c52 0 81 -46 81 -105c0 -70 -43 -118 -105 -161l-51 70c23 16 48 35 59 50c-34 -1 -63 27 -63 66c0 41 32 80 79 80z" />
    <glyph glyph-name="k" unicode="k" horiz-adv-x="758" 
d="M67 0v712h116v-459l399 459h153l-308 -355l308 -357h-155l-231 267l-166 -191v-76h-116z" />
    <glyph glyph-name="lacute" unicode="&#x13a;" horiz-adv-x="657" 
d="M67 0v712h116v-597h434v-115h-550zM287 899l-185 -151l-63 73l175 161z" />
    <glyph glyph-name="l" unicode="l" horiz-adv-x="657" 
d="M67 0v712h116v-597h434v-115h-550z" />
    <glyph glyph-name="lcommaaccent" unicode="&#x13c;" horiz-adv-x="657" 
d="M67 0v712h116v-597h434v-115h-550zM334 -52c52 0 81 -46 81 -105c0 -70 -43 -118 -105 -161l-51 70c23 16 48 35 59 50c-34 -1 -63 27 -63 66c0 41 32 80 79 80z" />
    <glyph glyph-name="ldot" unicode="&#x140;" horiz-adv-x="657" 
d="M283 295c0 44 34 80 80 80c44 0 79 -36 79 -80c0 -45 -35 -80 -79 -80c-46 0 -80 35 -80 80zM67 0v712h116v-597h434v-115h-550z" />
    <glyph glyph-name="lslash" unicode="&#x142;" horiz-adv-x="665" 
d="M42 181l-37 105l70 24v402h116v-362l133 46l36 -104l-169 -59v-118h434v-115h-550v192z" />
    <glyph glyph-name="m" unicode="m" horiz-adv-x="957" 
d="M67 0v712h150l261 -567l261 567h151v-712h-117v517l-237 -517h-116l-237 513v-513h-116z" />
    <glyph glyph-name="nacute" unicode="&#x144;" horiz-adv-x="775" 
d="M67 0v712h139l385 -547v547h116v-712h-138l-386 547v-547h-116zM556 899l-185 -151l-63 73l175 161z" />
    <glyph glyph-name="n" unicode="n" horiz-adv-x="775" 
d="M67 0v712h139l385 -547v547h116v-712h-138l-386 547v-547h-116z" />
    <glyph glyph-name="ncaron" unicode="&#x148;" horiz-adv-x="775" 
d="M67 0v712h139l385 -547v547h116v-712h-138l-386 547v-547h-116zM393 750l-199 153l63 82l136 -109l138 109l62 -82z" />
    <glyph glyph-name="ncommaaccent" unicode="&#x146;" horiz-adv-x="775" 
d="M67 0v712h139l385 -547v547h116v-712h-138l-386 547v-547h-116zM375 -52c52 0 81 -46 81 -105c0 -70 -43 -118 -105 -161l-51 70c23 16 48 35 59 50c-34 -1 -63 27 -63 66c0 41 32 80 79 80z" />
    <glyph glyph-name="ntilde" unicode="&#xf1;" horiz-adv-x="775" 
d="M67 0v712h139l385 -547v547h116v-712h-138l-386 547v-547h-116zM248 769l-85 57c38 57 88 112 157 112c82 0 113 -69 148 -69c24 0 49 37 70 66l86 -58c-39 -56 -87 -112 -156 -112c-82 0 -112 70 -149 70c-23 0 -50 -36 -71 -66z" />
    <glyph glyph-name="oacute" unicode="&#xf3;" 
d="M33 357c0 208 170 379 379 379c211 0 381 -171 381 -379c0 -211 -170 -381 -381 -381c-209 0 -379 170 -379 381zM677 357c0 144 -118 263 -265 263c-144 0 -263 -119 -263 -263c0 -147 119 -265 263 -265c147 0 265 118 265 265zM576 899l-185 -151l-63 73l175 161z" />
    <glyph glyph-name="obreve" unicode="&#x14f;" 
d="M33 357c0 208 170 379 379 379c211 0 381 -171 381 -379c0 -211 -170 -381 -381 -381c-209 0 -379 170 -379 381zM677 357c0 144 -118 263 -265 263c-144 0 -263 -119 -263 -263c0 -147 119 -265 263 -265c147 0 265 118 265 265zM198 918l90 52c15 -24 73 -106 124 -106
c54 0 113 86 124 106l91 -52c-42 -72 -124 -157 -215 -157c-92 0 -174 87 -214 157z" />
    <glyph glyph-name="ocircumflex" unicode="&#xf4;" 
d="M33 357c0 208 170 379 379 379c211 0 381 -171 381 -379c0 -211 -170 -381 -381 -381c-209 0 -379 170 -379 381zM677 357c0 144 -118 263 -265 263c-144 0 -263 -119 -263 -263c0 -147 119 -265 263 -265c147 0 265 118 265 265zM412 858l-135 -110
c-21 28 -43 55 -63 82l198 153l201 -153c-21 -27 -42 -54 -62 -82z" />
    <glyph glyph-name="o" unicode="o" 
d="M33 357c0 208 170 379 379 379c211 0 381 -171 381 -379c0 -211 -170 -381 -381 -381c-209 0 -379 170 -379 381zM677 357c0 144 -118 263 -265 263c-144 0 -263 -119 -263 -263c0 -147 119 -265 263 -265c147 0 265 118 265 265z" />
    <glyph glyph-name="odieresis" unicode="&#xf6;" 
d="M33 357c0 208 170 379 379 379c211 0 381 -171 381 -379c0 -211 -170 -381 -381 -381c-209 0 -379 170 -379 381zM677 357c0 144 -118 263 -265 263c-144 0 -263 -119 -263 -263c0 -147 119 -265 263 -265c147 0 265 118 265 265zM229 852c0 44 34 80 80 80
c44 0 79 -36 79 -80c0 -45 -35 -80 -79 -80c-46 0 -80 35 -80 80zM438 852c0 44 35 80 80 80c44 0 80 -36 80 -80c0 -45 -36 -80 -80 -80c-45 0 -80 35 -80 80z" />
    <glyph glyph-name="ograve" unicode="&#xf2;" 
d="M33 357c0 208 170 379 379 379c211 0 381 -171 381 -379c0 -211 -170 -381 -381 -381c-209 0 -379 170 -379 381zM677 357c0 144 -118 263 -265 263c-144 0 -263 -119 -263 -263c0 -147 119 -265 263 -265c147 0 265 118 265 265zM238 899l72 83l176 -161l-64 -73z" />
    <glyph glyph-name="ohungarumlaut" unicode="&#x151;" 
d="M33 357c0 208 170 379 379 379c211 0 381 -171 381 -379c0 -211 -170 -381 -381 -381c-209 0 -379 170 -379 381zM677 357c0 144 -118 263 -265 263c-144 0 -263 -119 -263 -263c0 -147 119 -265 263 -265c147 0 265 118 265 265zM333 748l-76 54l135 197l87 -63z
M511 748l-76 54l135 197l87 -63c-49 -63 -98 -125 -146 -188z" />
    <glyph glyph-name="omacron" unicode="&#x14d;" 
d="M33 357c0 208 170 379 379 379c211 0 381 -171 381 -379c0 -211 -170 -381 -381 -381c-209 0 -379 170 -379 381zM677 357c0 144 -118 263 -265 263c-144 0 -263 -119 -263 -263c0 -147 119 -265 263 -265c147 0 265 118 265 265zM240 783v105h345v-105h-345z" />
    <glyph glyph-name="oslash" unicode="&#xf8;" 
d="M412 91c147 0 265 119 265 266c0 90 -49 173 -118 219l-191 -480c14 -3 29 -5 44 -5zM412 620c-144 0 -263 -119 -263 -263c0 -94 49 -178 120 -223l192 481c-15 3 -32 5 -49 5zM196 -50c11 25 20 50 30 75c-115 65 -193 189 -193 332c0 207 170 378 377 378
c33 0 65 -5 94 -12l16 39h113l-31 -77c114 -66 191 -189 191 -328c0 -211 -169 -380 -379 -380c-31 0 -62 5 -89 12l-15 -39h-114z" />
    <glyph glyph-name="oslashacute" unicode="&#x1ff;" 
d="M575 899c-61 -50 -122 -101 -184 -151c-21 25 -42 48 -64 73c59 53 118 107 176 161zM412 91c147 0 265 119 265 266c0 90 -49 173 -118 219l-191 -480c14 -3 29 -5 44 -5zM412 620c-144 0 -263 -119 -263 -263c0 -94 49 -178 120 -223l192 481c-15 3 -32 5 -49 5z
M196 -50c11 25 20 50 30 75c-115 65 -193 189 -193 332c0 207 170 378 377 378c33 0 65 -5 94 -12l16 39h113l-31 -77c114 -66 191 -189 191 -328c0 -211 -169 -380 -379 -380c-31 0 -62 5 -89 12l-15 -39h-114z" />
    <glyph glyph-name="otilde" unicode="&#xf5;" 
d="M33 357c0 208 170 379 379 379c211 0 381 -171 381 -379c0 -211 -170 -381 -381 -381c-209 0 -379 170 -379 381zM677 357c0 144 -118 263 -265 263c-144 0 -263 -119 -263 -263c0 -147 119 -265 263 -265c147 0 265 118 265 265zM268 769l-85 57c38 57 88 112 157 112
c82 0 113 -69 148 -69c24 0 49 37 70 66l86 -58c-39 -56 -87 -112 -156 -112c-82 0 -112 70 -149 70c-23 0 -50 -36 -71 -66z" />
    <glyph glyph-name="oe" unicode="&#x153;" horiz-adv-x="1133" 
d="M656 115h429v-115h-539c-42 -16 -87 -24 -134 -24c-209 0 -379 170 -379 381c0 208 170 379 379 379c47 0 92 -9 134 -24h539v-116h-429v-181h311v-115h-311v-185zM539 125v462c-37 21 -81 33 -127 33c-144 0 -263 -119 -263 -263c0 -147 119 -265 263 -265
c46 0 90 12 127 33z" />
    <glyph glyph-name="p" unicode="p" horiz-adv-x="689" 
d="M67 0v712h311c154 0 282 -119 282 -268c0 -147 -127 -267 -282 -267h-195v-177h-116zM183 289h195c92 0 167 70 167 155s-76 155 -168 155h-194v-310z" />
    <glyph glyph-name="q" unicode="q" 
d="M630 -87l-64 95c-46 -19 -99 -32 -154 -32c-209 0 -379 170 -379 381c0 208 170 379 379 379c210 0 381 -171 381 -379c0 -114 -51 -217 -129 -287l63 -94zM412 91c147 0 265 119 265 266c0 144 -118 263 -265 263c-145 0 -263 -119 -263 -263c0 -147 118 -266 263 -266z
" />
    <glyph glyph-name="racute" unicode="&#x155;" horiz-adv-x="709" 
d="M183 289h199c92 0 166 70 166 155s-76 155 -168 155h-197v-310zM67 0v712h315c154 0 282 -119 282 -268c0 -101 -60 -187 -145 -233l147 -211h-143l-123 178c-4 -1 -11 -1 -15 -1h-202v-177h-116zM526 899l-185 -151l-63 73l175 161z" />
    <glyph glyph-name="rcaron" unicode="&#x159;" horiz-adv-x="709" 
d="M183 289h199c92 0 166 70 166 155s-76 155 -168 155h-197v-310zM67 0v712h315c154 0 282 -119 282 -268c0 -101 -60 -187 -145 -233l147 -211h-143l-123 178c-4 -1 -11 -1 -15 -1h-202v-177h-116zM359 750l-199 153l63 82l136 -109l138 109l62 -82z" />
    <glyph glyph-name="rcommaaccent" unicode="&#x157;" horiz-adv-x="709" 
d="M183 289h199c92 0 166 70 166 155s-76 155 -168 155h-197v-310zM67 0v712h315c154 0 282 -119 282 -268c0 -101 -60 -187 -145 -233l147 -211h-143l-123 178c-4 -1 -11 -1 -15 -1h-202v-177h-116zM339 -52c52 0 81 -46 81 -105c0 -70 -43 -118 -105 -161l-51 70
c23 16 48 35 59 50c-34 -1 -63 27 -63 66c0 41 32 80 79 80z" />
    <glyph glyph-name="r" unicode="r" horiz-adv-x="709" 
d="M183 289h199c92 0 166 70 166 155s-76 155 -168 155h-197v-310zM67 0v712h315c154 0 282 -119 282 -268c0 -101 -60 -187 -145 -233l147 -211h-143l-123 178c-4 -1 -11 -1 -15 -1h-202v-177h-116z" />
    <glyph glyph-name="sacute" unicode="&#x15b;" horiz-adv-x="689" 
d="M30 94l69 101c101 -71 192 -102 268 -102c106 0 168 47 168 90c0 149 -498 92 -498 341c0 128 125 212 277 212c95 0 200 -32 311 -103l-65 -99c-92 58 -182 86 -255 86c-97 0 -152 -46 -152 -92c0 -128 498 -79 498 -342c0 -113 -112 -210 -289 -210
c-99 0 -213 38 -332 118zM489 899l-185 -151l-63 73l175 161z" />
    <glyph glyph-name="scaron" unicode="&#x161;" horiz-adv-x="689" 
d="M30 94l69 101c101 -71 192 -102 268 -102c106 0 168 47 168 90c0 149 -498 92 -498 341c0 128 125 212 277 212c95 0 200 -32 311 -103l-65 -99c-92 58 -182 86 -255 86c-97 0 -152 -46 -152 -92c0 -128 498 -79 498 -342c0 -113 -112 -210 -289 -210
c-99 0 -213 38 -332 118zM326 750l-199 153l63 82l136 -109l138 109l62 -82z" />
    <glyph glyph-name="scedilla" unicode="&#x15f;" horiz-adv-x="689" 
d="M30 94l69 101c101 -71 192 -102 268 -102c106 0 168 47 168 90c0 149 -498 92 -498 341c0 128 125 212 277 212c95 0 200 -32 311 -103l-65 -99c-92 58 -182 86 -255 86c-97 0 -152 -46 -152 -92c0 -128 498 -79 498 -342c0 -113 -112 -210 -289 -210
c-99 0 -213 38 -332 118zM198 -254l34 77c33 -15 65 -21 93 -21c64 0 94 19 94 36c0 19 -36 32 -75 32c-21 0 -42 -4 -61 -12l-29 72c27 13 60 19 93 19c83 0 156 -38 156 -109c0 -62 -62 -123 -178 -123c-40 0 -83 9 -127 29z" />
    <glyph glyph-name="scircumflex" unicode="&#x15d;" horiz-adv-x="689" 
d="M30 94l69 101c101 -71 192 -102 268 -102c106 0 168 47 168 90c0 149 -498 92 -498 341c0 128 125 212 277 212c95 0 200 -32 311 -103l-65 -99c-92 58 -182 86 -255 86c-97 0 -152 -46 -152 -92c0 -128 498 -79 498 -342c0 -113 -112 -210 -289 -210
c-99 0 -213 38 -332 118zM325 858l-135 -110c-21 28 -43 55 -63 82l198 153l201 -153c-21 -27 -42 -54 -62 -82z" />
    <glyph glyph-name="scommaaccent" unicode="&#x219;" horiz-adv-x="689" 
d="M30 94l69 101c101 -71 192 -102 268 -102c106 0 168 47 168 90c0 149 -498 92 -498 341c0 128 125 212 277 212c95 0 200 -32 311 -103l-65 -99c-92 58 -182 86 -255 86c-97 0 -152 -46 -152 -92c0 -128 498 -79 498 -342c0 -113 -112 -210 -289 -210
c-99 0 -213 38 -332 118zM344 -52c52 0 81 -46 81 -105c0 -70 -43 -118 -105 -161l-51 70c23 16 48 35 59 50c-34 -1 -63 27 -63 66c0 41 32 80 79 80z" />
    <glyph glyph-name="s" unicode="s" horiz-adv-x="689" 
d="M30 94l69 101c101 -71 192 -102 268 -102c106 0 168 47 168 90c0 149 -498 92 -498 341c0 128 125 212 277 212c95 0 200 -32 311 -103l-65 -99c-92 58 -182 86 -255 86c-97 0 -152 -46 -152 -92c0 -128 498 -79 498 -342c0 -113 -112 -210 -289 -210
c-99 0 -213 38 -332 118z" />
    <glyph glyph-name="tbar" unicode="&#x167;" horiz-adv-x="688" 
d="M159 339v111h127v146h-257v116h630v-116h-258v-146h129v-111h-129v-339h-115v339h-127z" />
    <glyph glyph-name="tcaron" unicode="&#x165;" horiz-adv-x="689" 
d="M286 0v596h-257v116h631v-116h-258v-596h-116zM344 750l-199 153l63 82l136 -109l138 109l62 -82z" />
    <glyph glyph-name="tcommaaccent" unicode="&#x163;" horiz-adv-x="689" 
d="M286 0v596h-257v116h631v-116h-258v-596h-116zM197 -254l34 77c33 -15 65 -21 93 -21c64 0 94 19 94 36c0 19 -36 32 -75 32c-21 0 -42 -4 -61 -12l-29 72c27 13 60 19 93 19c83 0 156 -38 156 -109c0 -62 -62 -123 -178 -123c-40 0 -83 9 -127 29z" />
    <glyph glyph-name="t" unicode="t" horiz-adv-x="689" 
d="M286 0v596h-257v116h631v-116h-258v-596h-116z" />
    <glyph glyph-name="uacute" unicode="&#xfa;" horiz-adv-x="751" 
d="M63 295v417h116v-417c0 -112 88 -204 196 -204c109 0 196 92 196 204v417h116v-417c0 -178 -140 -319 -312 -319c-171 0 -312 141 -312 319zM539 899l-185 -151l-63 73l175 161z" />
    <glyph glyph-name="ubreve" unicode="&#x16d;" horiz-adv-x="751" 
d="M63 295v417h116v-417c0 -112 88 -204 196 -204c109 0 196 92 196 204v417h116v-417c0 -178 -140 -319 -312 -319c-171 0 -312 141 -312 319zM161 918l90 52c15 -24 73 -106 124 -106c54 0 113 86 124 106l91 -52c-42 -72 -124 -157 -215 -157c-92 0 -174 87 -214 157z
" />
    <glyph glyph-name="ucircumflex" unicode="&#xfb;" horiz-adv-x="751" 
d="M63 295v417h116v-417c0 -112 88 -204 196 -204c109 0 196 92 196 204v417h116v-417c0 -178 -140 -319 -312 -319c-171 0 -312 141 -312 319zM375 858l-135 -110c-21 28 -43 55 -63 82l198 153l201 -153c-21 -27 -42 -54 -62 -82z" />
    <glyph glyph-name="udieresis" unicode="&#xfc;" horiz-adv-x="751" 
d="M63 295v417h116v-417c0 -112 88 -204 196 -204c109 0 196 92 196 204v417h116v-417c0 -178 -140 -319 -312 -319c-171 0 -312 141 -312 319zM192 852c0 44 34 80 80 80c44 0 79 -36 79 -80c0 -45 -35 -80 -79 -80c-46 0 -80 35 -80 80zM401 852c0 44 35 80 80 80
c44 0 80 -36 80 -80c0 -45 -36 -80 -80 -80c-45 0 -80 35 -80 80z" />
    <glyph glyph-name="ugrave" unicode="&#xf9;" horiz-adv-x="751" 
d="M63 295v417h116v-417c0 -112 88 -204 196 -204c109 0 196 92 196 204v417h116v-417c0 -178 -140 -319 -312 -319c-171 0 -312 141 -312 319zM201 899l72 83l176 -161l-64 -73z" />
    <glyph glyph-name="uhungarumlaut" unicode="&#x171;" horiz-adv-x="751" 
d="M63 295v417h116v-417c0 -112 88 -204 196 -204c109 0 196 92 196 204v417h116v-417c0 -178 -140 -319 -312 -319c-171 0 -312 141 -312 319zM296 748l-76 54l135 197l87 -63zM474 748l-76 54l135 197l87 -63c-49 -63 -98 -125 -146 -188z" />
    <glyph glyph-name="umacron" unicode="&#x16b;" horiz-adv-x="751" 
d="M63 295v417h116v-417c0 -112 88 -204 196 -204c109 0 196 92 196 204v417h116v-417c0 -178 -140 -319 -312 -319c-171 0 -312 141 -312 319zM203 783v105h345v-105h-345z" />
    <glyph glyph-name="uogonek" unicode="&#x173;" horiz-adv-x="751" 
d="M63 295v417h116v-417c0 -112 88 -204 196 -204c109 0 196 92 196 204v417h116v-417c0 -170 -127 -305 -288 -318c-37 -20 -59 -42 -59 -60c0 -16 15 -23 35 -23c32 0 80 17 105 33l48 -82c-53 -32 -102 -46 -144 -46c-89 0 -142 54 -142 107c0 34 22 61 48 82
c-131 37 -227 159 -227 307z" />
    <glyph glyph-name="uring" unicode="&#x16f;" horiz-adv-x="751" 
d="M63 295v417h116v-417c0 -112 88 -204 196 -204c109 0 196 92 196 204v417h116v-417c0 -178 -140 -319 -312 -319c-171 0 -312 141 -312 319zM247 879c0 71 57 128 128 128s127 -57 127 -128c0 -70 -56 -126 -127 -126s-128 56 -128 126zM327 879c0 -25 22 -47 48 -47
c25 0 48 22 48 47c0 26 -23 48 -48 48c-26 0 -48 -22 -48 -48z" />
    <glyph glyph-name="utilde" unicode="&#x169;" horiz-adv-x="751" 
d="M63 295v417h116v-417c0 -112 88 -204 196 -204c109 0 196 92 196 204v417h116v-417c0 -178 -140 -319 -312 -319c-171 0 -312 141 -312 319zM231 769l-85 57c38 57 88 112 157 112c82 0 113 -69 148 -69c24 0 49 37 70 66l86 -58c-39 -56 -87 -112 -156 -112
c-82 0 -112 70 -149 70c-23 0 -50 -36 -71 -66z" />
    <glyph glyph-name="u" unicode="u" horiz-adv-x="751" 
d="M63 295v417h116v-417c0 -112 88 -204 196 -204c109 0 196 92 196 204v417h116v-417c0 -178 -140 -319 -312 -319c-171 0 -312 141 -312 319z" />
    <glyph glyph-name="v" unicode="v" horiz-adv-x="738" 
d="M304 0l-295 712h128l233 -568l232 568h127l-294 -712h-131z" />
    <glyph glyph-name="wacute" unicode="&#x1e83;" horiz-adv-x="998" 
d="M989 712l-249 -712h-125l-117 490l-115 -490h-126l-248 712h122l180 -519l126 519h123c42 -173 83 -347 124 -519c61 172 120 346 180 519h125zM662 899l-185 -151l-63 73l175 161z" />
    <glyph glyph-name="wcircumflex" unicode="&#x175;" horiz-adv-x="998" 
d="M989 712l-249 -712h-125l-117 490l-115 -490h-126l-248 712h122l180 -519l126 519h123c42 -173 83 -347 124 -519c61 172 120 346 180 519h125zM498 858l-135 -110c-21 28 -43 55 -63 82l198 153l201 -153c-21 -27 -42 -54 -62 -82z" />
    <glyph glyph-name="wdieresis" unicode="&#x1e85;" horiz-adv-x="998" 
d="M989 712l-249 -712h-125l-117 490l-115 -490h-126l-248 712h122l180 -519l126 519h123c42 -173 83 -347 124 -519c61 172 120 346 180 519h125zM315 852c0 44 34 80 80 80c44 0 79 -36 79 -80c0 -45 -35 -80 -79 -80c-46 0 -80 35 -80 80zM524 852c0 44 35 80 80 80
c44 0 80 -36 80 -80c0 -45 -36 -80 -80 -80c-45 0 -80 35 -80 80z" />
    <glyph glyph-name="wgrave" unicode="&#x1e81;" horiz-adv-x="998" 
d="M989 712l-249 -712h-125l-117 490l-115 -490h-126l-248 712h122l180 -519l126 519h123c42 -173 83 -347 124 -519c61 172 120 346 180 519h125zM324 899l72 83l176 -161l-64 -73z" />
    <glyph glyph-name="w" unicode="w" horiz-adv-x="998" 
d="M989 712l-249 -712h-125l-117 490l-115 -490h-126l-248 712h122l180 -519l126 519h123c42 -173 83 -347 124 -519c61 172 120 346 180 519h125z" />
    <glyph glyph-name="x" unicode="x" horiz-adv-x="738" 
d="M22 0l274 357l-272 355h146l199 -260l199 260h146l-273 -355l275 -357h-145l-202 262l-202 -262h-145z" />
    <glyph glyph-name="eth" unicode="&#xf0;" horiz-adv-x="749" 
d="M13 301v113h61v298h287c197 0 355 -160 355 -357c0 -195 -158 -355 -355 -355h-287v301h-61zM190 115h173c133 0 238 109 238 240c0 133 -105 241 -238 241h-173v-182h199v-113h-199v-186z" />
    <glyph glyph-name="yacute" unicode="&#xfd;" horiz-adv-x="692" 
d="M288 0v175l-279 537h132l205 -402l206 402h131l-279 -537v-175h-116zM509 899l-185 -151l-63 73l175 161z" />
    <glyph glyph-name="ycircumflex" unicode="&#x177;" horiz-adv-x="692" 
d="M288 0v175l-279 537h132l205 -402l206 402h131l-279 -537v-175h-116zM345 858l-135 -110c-21 28 -43 55 -63 82l198 153l201 -153c-21 -27 -42 -54 -62 -82z" />
    <glyph glyph-name="ydieresis" unicode="&#xff;" horiz-adv-x="692" 
d="M288 0v175l-279 537h132l205 -402l206 402h131l-279 -537v-175h-116zM162 852c0 44 34 80 80 80c44 0 79 -36 79 -80c0 -45 -35 -80 -79 -80c-46 0 -80 35 -80 80zM371 852c0 44 35 80 80 80c44 0 80 -36 80 -80c0 -45 -36 -80 -80 -80c-45 0 -80 35 -80 80z" />
    <glyph glyph-name="ygrave" unicode="&#x1ef3;" horiz-adv-x="692" 
d="M288 0v175l-279 537h132l205 -402l206 402h131l-279 -537v-175h-116zM171 899l72 83l176 -161l-64 -73z" />
    <glyph glyph-name="y" unicode="y" horiz-adv-x="692" 
d="M288 0v175l-279 537h132l205 -402l206 402h131l-279 -537v-175h-116z" />
    <glyph glyph-name="zacute" unicode="&#x17a;" horiz-adv-x="709" 
d="M60 0v134l445 461h-445v117h589v-135l-445 -462h445v-115h-589zM517 899l-185 -151l-63 73l175 161z" />
    <glyph glyph-name="zcaron" unicode="&#x17e;" horiz-adv-x="709" 
d="M60 0v134l445 461h-445v117h589v-135l-445 -462h445v-115h-589zM354 750l-199 153l63 82l136 -109l138 109l62 -82z" />
    <glyph glyph-name="zdotaccent" unicode="&#x17c;" horiz-adv-x="709" 
d="M60 0v134l445 461h-445v117h589v-135l-445 -462h445v-115h-589zM274 852c0 44 34 80 80 80c44 0 79 -36 79 -80c0 -45 -35 -80 -79 -80c-46 0 -80 35 -80 80z" />
    <glyph glyph-name="z" unicode="z" horiz-adv-x="709" 
d="M60 0v134l445 461h-445v117h589v-135l-445 -462h445v-115h-589z" />
    <glyph glyph-name="eng" unicode="&#x14b;" horiz-adv-x="774" 
d="M67 0v712h138l386 -547v547h116v-588c0 -165 -134 -292 -302 -292c-69 0 -132 24 -181 65l70 89c30 -25 69 -39 111 -39c61 0 118 30 152 73l-374 526v-546h-116z" />
    <glyph glyph-name="germandbls" unicode="&#xdf;" horiz-adv-x="804" 
d="M53 0v282c0 307 174 453 356 453c124 0 251 -72 323 -213l-214 -108c140 -39 245 -115 245 -252c0 -103 -103 -186 -240 -186c-93 0 -201 37 -305 127l75 88c85 -76 169 -99 232 -99c72 0 123 37 123 73c0 106 -162 161 -291 168v103l225 119c-41 41 -101 66 -164 66
c-120 0 -250 -89 -250 -339v-282h-115z" />
    <glyph glyph-name="thorn" unicode="&#xfe;" horiz-adv-x="693" 
d="M67 0v712h117v-93h199c153 0 278 -117 278 -264c0 -146 -126 -262 -278 -262h-199v-93h-117zM184 204h198c90 0 163 68 163 151s-74 152 -163 152h-198v-303z" />
    <glyph glyph-name="uni021B" unicode="&#x21b;" horiz-adv-x="689" 
d="M286 0v596h-257v116h631v-116h-258v-596h-116zM343 -52c52 0 81 -46 81 -105c0 -70 -43 -118 -105 -161l-51 70c23 16 48 35 59 50c-34 -1 -63 27 -63 66c0 41 32 80 79 80z" />
    <glyph glyph-name="alpha" unicode="&#x3b1;" horiz-adv-x="748" 
d="M9 0l308 712h114l308 -712h-126l-42 98h-393l-43 -98h-126zM226 212h296l-148 347z" />
    <glyph glyph-name="beta" unicode="&#x3b2;" horiz-adv-x="681" 
d="M67 0v712h345c114 0 207 -93 207 -207c0 -60 -25 -107 -65 -141c50 -34 83 -90 83 -157c0 -115 -93 -207 -207 -207h-363zM183 115h247c50 0 91 42 91 93s-41 94 -91 94h-247v-187zM183 413h228c50 0 91 40 91 91s-41 93 -91 93h-228v-184z" />
    <glyph glyph-name="epsilon" unicode="&#x3b5;" horiz-adv-x="667" 
d="M67 0v712h551v-116h-435v-181h317v-115h-317v-185h435v-115h-551z" />
    <glyph glyph-name="zeta" unicode="&#x3b6;" horiz-adv-x="709" 
d="M60 0v134l445 461h-445v117h589v-135l-445 -462h445v-115h-589z" />
    <glyph glyph-name="eta" unicode="&#x3b7;" horiz-adv-x="759" 
d="M67 0v712h116v-297h393v297h116v-712h-116v300h-393v-300h-116z" />
    <glyph glyph-name="iota" unicode="&#x3b9;" horiz-adv-x="251" 
d="M67 0v712h116v-712h-116z" />
    <glyph glyph-name="iotadieresis" unicode="&#x3ca;" horiz-adv-x="251" 
d="M67 0v712h116v-712h-116zM-59 852c0 44 34 80 80 80c44 0 79 -36 79 -80c0 -45 -35 -80 -79 -80c-46 0 -80 35 -80 80zM150 852c0 44 35 80 80 80c44 0 80 -36 80 -80c0 -45 -36 -80 -80 -80c-45 0 -80 35 -80 80z" />
    <glyph glyph-name="uni03BC" unicode="&#x3bc;" horiz-adv-x="957" 
d="M67 0v712h150l261 -567l261 567h151v-712h-117v517l-237 -517h-116l-237 513v-513h-116z" />
    <glyph glyph-name="nu" unicode="&#x3bd;" horiz-adv-x="775" 
d="M67 0v712h139l385 -547v547h116v-712h-138l-386 547v-547h-116z" />
    <glyph glyph-name="omicron" unicode="&#x3bf;" 
d="M33 357c0 208 170 379 379 379c211 0 381 -171 381 -379c0 -211 -170 -381 -381 -381c-209 0 -379 170 -379 381zM677 357c0 144 -118 263 -265 263c-144 0 -263 -119 -263 -263c0 -147 119 -265 263 -265c147 0 265 118 265 265z" />
    <glyph glyph-name="rho" unicode="&#x3c1;" horiz-adv-x="689" 
d="M67 0v712h311c154 0 282 -119 282 -268c0 -147 -127 -267 -282 -267h-195v-177h-116zM183 289h195c92 0 167 70 167 155s-76 155 -168 155h-194v-310z" />
    <glyph glyph-name="tau" unicode="&#x3c4;" horiz-adv-x="689" 
d="M286 0v596h-257v116h631v-116h-258v-596h-116z" />
    <glyph glyph-name="upsilon" unicode="&#x3c5;" horiz-adv-x="692" 
d="M288 0v175l-279 537h132l205 -402l206 402h131l-279 -537v-175h-116z" />
    <glyph glyph-name="upsilondieresis" unicode="&#x3cb;" horiz-adv-x="692" 
d="M288 0v175l-279 537h132l205 -402l206 402h131l-279 -537v-175h-116zM162 852c0 44 34 80 80 80c44 0 79 -36 79 -80c0 -45 -35 -80 -79 -80c-46 0 -80 35 -80 80zM371 852c0 44 35 80 80 80c44 0 80 -36 80 -80c0 -45 -36 -80 -80 -80c-45 0 -80 35 -80 80z" />
    <glyph glyph-name="chi" unicode="&#x3c7;" horiz-adv-x="738" 
d="M22 0l274 357l-272 355h146l199 -260l199 260h146l-273 -355l275 -357h-145l-202 262l-202 -262h-145z" />
    <glyph glyph-name="alphatonos" unicode="&#x3ac;" horiz-adv-x="752" 
d="M13 0l309 712h113l308 -712h-126l-42 98h-393l-43 -98h-126zM230 212h296l-148 347zM101 499v237h123l-36 -237h-87z" />
    <glyph glyph-name="gamma" unicode="&#x3b3;" horiz-adv-x="627" 
d="M67 0v712h529v-116h-412v-596h-117z" />
    <glyph glyph-name="delta" unicode="&#x3b4;" horiz-adv-x="747" 
d="M170 115h407l-203 465zM438 712l277 -622v-90h-683v90l276 622h130z" />
    <glyph glyph-name="epsilontonos" unicode="&#x3ad;" horiz-adv-x="785" 
d="M30 499v237h123l-36 -237h-87zM185 0v712h551v-116h-435v-181h316v-115h-316v-185h435v-115h-551z" />
    <glyph glyph-name="etatonos" unicode="&#x3ae;" horiz-adv-x="877" 
d="M30 499v237h123l-36 -237h-87zM186 0v712h115v-297h393v297h116v-712h-116v300h-393v-300h-115z" />
    <glyph glyph-name="theta" unicode="&#x3b8;" 
d="M33 357c0 208 171 379 379 379c211 0 381 -171 381 -379c0 -211 -170 -381 -381 -381c-208 0 -379 170 -379 381zM412 90c147 0 265 120 265 267c0 144 -118 263 -265 263c-144 0 -264 -119 -264 -263c0 -147 120 -267 264 -267zM207 297v115h413v-115h-413z" />
    <glyph glyph-name="iotatonos" unicode="&#x3af;" horiz-adv-x="369" 
d="M30 499v237h123l-36 -237h-87zM185 0v712h117v-712h-117z" />
    <glyph glyph-name="kappa" unicode="&#x3ba;" horiz-adv-x="722" 
d="M67 0v712h117v-298h154l208 298h141l-249 -355l249 -357h-141l-209 298h-153v-298h-117z" />
    <glyph glyph-name="lambda" unicode="&#x3bb;" horiz-adv-x="748" 
d="M9 0l308 712h114l308 -712h-130l-235 555l-235 -555h-130z" />
    <glyph glyph-name="xi" unicode="&#x3be;" horiz-adv-x="646" 
d="M47 0v115h552v-115h-552zM47 597v115h552v-115h-552zM123 300v115h399v-115h-399z" />
    <glyph glyph-name="pi" unicode="&#x3c0;" horiz-adv-x="755" 
d="M67 0v712h620v-712h-116v596h-387v-596h-117z" />
    <glyph glyph-name="uni03C2" unicode="&#x3c2;" horiz-adv-x="685" 
d="M55 0v136l223 219l-223 222v135h582v-117h-438l240 -240l-240 -240h438v-115h-582z" />
    <glyph glyph-name="sigma" unicode="&#x3c3;" horiz-adv-x="685" 
d="M55 0v136l223 219l-223 222v135h582v-117h-438l240 -240l-240 -240h438v-115h-582z" />
    <glyph glyph-name="upsilontonos" unicode="&#x3cd;" horiz-adv-x="851" 
d="M30 499v237h123l-36 -237h-87zM447 0v177l-279 535h132l205 -401l206 401h131l-279 -541v-171h-116z" />
    <glyph glyph-name="phi" unicode="&#x3c6;" horiz-adv-x="865" 
d="M375 0v74c-206 19 -344 150 -344 328c0 194 164 334 401 334s402 -140 402 -334c0 -178 -138 -309 -344 -328v-74h-115zM375 189v428c-125 -16 -230 -89 -230 -215c0 -128 105 -197 230 -213zM490 617v-428c123 16 230 85 230 213c0 126 -107 199 -230 215z" />
    <glyph glyph-name="psi" unicode="&#x3c8;" horiz-adv-x="870" 
d="M493 0h-117v83c-182 26 -322 183 -322 374v255h116v-255c0 -127 88 -232 206 -258v513h117v-512c118 25 206 130 206 257v255h116v-255c0 -191 -140 -348 -322 -374v-83z" />
    <glyph glyph-name="omega" unicode="&#x3c9;" horiz-adv-x="839" 
d="M380 0h-335v114h130c-84 67 -126 154 -126 255c0 197 161 367 371 367s369 -170 369 -367c0 -101 -40 -188 -124 -255h130v-114h-335v119c126 39 214 128 214 248c0 137 -111 253 -254 253s-255 -116 -255 -253c0 -120 87 -209 215 -248v-119z" />
    <glyph glyph-name="omegatonos" unicode="&#x3ce;" horiz-adv-x="923" 
d="M464 0h-334v114h128c-83 67 -125 154 -125 255c0 197 161 367 370 367c211 0 370 -170 370 -367c0 -101 -41 -188 -124 -255h129v-114h-334v119c127 39 214 128 214 248c0 137 -111 253 -255 253c-142 0 -254 -116 -254 -253c0 -120 86 -209 215 -248v-119zM30 499v237
h123c-12 -80 -24 -158 -35 -237h-88z" />
    <glyph glyph-name="omicrontonos" unicode="&#x3cc;" horiz-adv-x="923" 
d="M774 357c0 144 -118 263 -265 263c-145 0 -264 -119 -264 -263c0 -147 119 -266 264 -266c147 0 265 119 265 266zM130 357c0 208 170 379 379 379c210 0 381 -171 381 -379c0 -211 -171 -381 -381 -381c-209 0 -379 170 -379 381zM30 499v237h123l-36 -237h-87z" />
    <glyph glyph-name="uni0430" unicode="&#x430;" horiz-adv-x="748" 
d="M9 0l308 712h114l308 -712h-126l-42 98h-393l-43 -98h-126zM226 212h296l-148 347z" />
    <glyph glyph-name="uni0432" unicode="&#x432;" horiz-adv-x="681" 
d="M67 0v712h345c114 0 207 -93 207 -207c0 -60 -25 -107 -65 -141c50 -34 83 -90 83 -157c0 -115 -93 -207 -207 -207h-363zM183 115h247c50 0 91 42 91 93s-41 94 -91 94h-247v-187zM183 413h228c50 0 91 40 91 91s-41 93 -91 93h-228v-184z" />
    <glyph glyph-name="uni0433" unicode="&#x433;" horiz-adv-x="627" 
d="M67 0v712h529v-116h-412v-596h-117z" />
    <glyph glyph-name="uni0435" unicode="&#x435;" horiz-adv-x="667" 
d="M67 0v712h551v-116h-435v-181h317v-115h-317v-185h435v-115h-551z" />
    <glyph glyph-name="uni043A" unicode="&#x43a;" horiz-adv-x="722" 
d="M67 0v712h117v-298h154l208 298h141l-249 -355l249 -357h-141l-209 298h-153v-298h-117z" />
    <glyph glyph-name="uni043C" unicode="&#x43c;" horiz-adv-x="957" 
d="M67 0v712h150l261 -567l261 567h151v-712h-117v517l-237 -517h-116l-237 513v-513h-116z" />
    <glyph glyph-name="uni043D" unicode="&#x43d;" horiz-adv-x="759" 
d="M67 0v712h116v-297h393v297h116v-712h-116v300h-393v-300h-116z" />
    <glyph glyph-name="uni043E" unicode="&#x43e;" 
d="M33 357c0 208 170 379 379 379c211 0 381 -171 381 -379c0 -211 -170 -381 -381 -381c-209 0 -379 170 -379 381zM677 357c0 144 -118 263 -265 263c-144 0 -263 -119 -263 -263c0 -147 119 -265 263 -265c147 0 265 118 265 265z" />
    <glyph glyph-name="uni043F" unicode="&#x43f;" horiz-adv-x="755" 
d="M67 0v712h620v-712h-116v596h-387v-596h-117z" />
    <glyph glyph-name="uni0440" unicode="&#x440;" horiz-adv-x="689" 
d="M67 0v712h311c154 0 282 -119 282 -268c0 -147 -127 -267 -282 -267h-195v-177h-116zM183 289h195c92 0 167 70 167 155s-76 155 -168 155h-194v-310z" />
    <glyph glyph-name="uni0441" unicode="&#x441;" horiz-adv-x="774" 
d="M647 237l104 -53c-63 -124 -189 -208 -339 -208c-209 0 -379 170 -379 381c0 208 170 379 379 379c149 0 278 -84 339 -207l-104 -53c-42 86 -131 144 -235 144c-144 0 -263 -119 -263 -263c0 -147 119 -265 263 -265c104 0 191 59 235 145z" />
    <glyph glyph-name="uni0442" unicode="&#x442;" horiz-adv-x="689" 
d="M286 0v596h-257v116h631v-116h-258v-596h-116z" />
    <glyph glyph-name="uni0444" unicode="&#x444;" horiz-adv-x="865" 
d="M375 0v74c-206 19 -344 150 -344 328c0 194 164 334 401 334s402 -140 402 -334c0 -178 -138 -309 -344 -328v-74h-115zM375 189v428c-125 -16 -230 -89 -230 -215c0 -128 105 -197 230 -213zM490 617v-428c123 16 230 85 230 213c0 126 -107 199 -230 215z" />
    <glyph glyph-name="uni0445" unicode="&#x445;" horiz-adv-x="738" 
d="M22 0l274 357l-272 355h146l199 -260l199 260h146l-273 -355l275 -357h-145l-202 262l-202 -262h-145z" />
    <glyph glyph-name="uni0451" unicode="&#x451;" horiz-adv-x="667" 
d="M67 0v712h551v-116h-435v-181h317v-115h-317v-185h435v-115h-551zM155 847c0 44 34 80 80 80c44 0 79 -36 79 -80c0 -45 -35 -80 -79 -80c-46 0 -80 35 -80 80zM364 847c0 44 35 80 80 80c44 0 80 -36 80 -80c0 -45 -36 -80 -80 -80c-45 0 -80 35 -80 80z" />
    <glyph glyph-name="uni0431" unicode="&#x431;" horiz-adv-x="675" 
d="M67 0v712h520v-116h-403v-120h204c138 0 247 -106 247 -236c0 -133 -111 -240 -245 -240h-323zM184 115h204c72 0 130 57 130 123c0 69 -58 125 -129 125h-205v-248z" />
    <glyph glyph-name="uni0434" unicode="&#x434;" horiz-adv-x="795" 
d="M25 -101v217h72c49 92 72 312 72 447v149h513v-596h88v-217h-116v101h-513v-101h-116zM285 563c0 -124 -16 -325 -68 -447h349v480h-281v-33z" />
    <glyph glyph-name="uni0436" unicode="&#x436;" horiz-adv-x="1143" 
d="M861 357l249 -357h-141l-209 298h-130v-298h-117v298h-130l-209 -298h-141l248 357l-248 355h141l208 -298h131v298h117v-298h131l208 298h141z" />
    <glyph glyph-name="uni0439" unicode="&#x439;" horiz-adv-x="775" 
d="M67 0v712h117v-553l385 553h138v-712h-116v553l-385 -553h-139zM179 875l88 51c13 -24 70 -103 120 -103c52 0 109 84 119 103l89 -50c-40 -70 -120 -153 -208 -153c-89 0 -169 85 -208 152z" />
    <glyph glyph-name="uni0437" unicode="&#x437;" horiz-adv-x="670" 
d="M20 110l76 86c98 -86 185 -105 239 -105c97 0 171 50 171 117c0 41 -35 95 -144 95h-166v114h164c96 0 131 53 131 92c0 54 -54 111 -160 111c-57 0 -132 -20 -213 -81l-69 90c107 85 209 107 281 107c176 0 278 -116 278 -227c0 -56 -26 -107 -77 -144
c60 -38 91 -98 91 -157c0 -127 -123 -232 -290 -232c-74 0 -190 25 -312 134z" />
    <glyph glyph-name="uni0438" unicode="&#x438;" horiz-adv-x="775" 
d="M67 0v712h117v-553l385 553h138v-712h-116v553l-385 -553h-139z" />
    <glyph glyph-name="uni043B" unicode="&#x43b;" horiz-adv-x="761" 
d="M165 712h529v-712h-117v596h-295c-1 -144 -4 -263 -28 -359c-33 -134 -99 -215 -222 -254l-36 110c80 26 123 77 145 172c24 103 24 243 24 447z" />
    <glyph glyph-name="uni0443" unicode="&#x443;" horiz-adv-x="699" 
d="M193 0l95 183l-270 529h130l204 -401l207 401h130l-365 -712h-131z" />
    <glyph glyph-name="uni0446" unicode="&#x446;" horiz-adv-x="790" 
d="M68 0v712h117v-597h377v597h116v-597h88v-216h-117v101h-581z" />
    <glyph glyph-name="uni0447" unicode="&#x447;" horiz-adv-x="710" 
d="M643 0h-116v257c-72 -38 -159 -71 -247 -71c-134 0 -231 72 -231 236v290h116v-288c0 -86 47 -124 119 -124c80 0 174 43 243 82v330h116v-712z" />
    <glyph glyph-name="uni0448" unicode="&#x448;" horiz-adv-x="1084" 
d="M67 0v712h117v-597h300v597h115v-597h300v597h117v-712h-949z" />
    <glyph glyph-name="uni0449" unicode="&#x449;" horiz-adv-x="1129" 
d="M67 0v712h117v-597h300v597h115v-597h301v597h116v-597h88v-216h-117v101h-920z" />
    <glyph glyph-name="uni044A" unicode="&#x44a;" horiz-adv-x="713" 
d="M119 0v595h-95v117h211v-224h199c140 0 253 -109 253 -244c0 -136 -115 -244 -253 -244h-315zM235 113h198c75 0 138 60 138 130c0 72 -62 133 -137 133h-199v-263z" />
    <glyph glyph-name="uni044B" unicode="&#x44b;" horiz-adv-x="884" 
d="M67 0v712h117v-224h189c141 0 252 -109 252 -244c0 -136 -113 -244 -252 -244h-306zM184 113h188c76 0 137 60 137 130c0 72 -60 133 -136 133h-189v-263zM816 0h-115v712h115v-712z" />
    <glyph glyph-name="uni044C" unicode="&#x44c;" horiz-adv-x="660" 
d="M184 113h197c76 0 138 60 138 130c0 72 -61 133 -137 133h-198v-263zM67 0v712h117v-224h198c140 0 253 -109 253 -244c0 -136 -115 -244 -253 -244h-315z" />
    <glyph glyph-name="uni044D" unicode="&#x44d;" horiz-adv-x="776" 
d="M25 184l103 53c44 -86 132 -145 235 -145c124 0 230 87 256 205h-372v116h373c-25 117 -132 207 -257 207c-103 0 -192 -58 -235 -144l-103 53c62 123 190 207 338 207c209 0 379 -171 379 -379c0 -211 -170 -381 -379 -381c-148 0 -275 84 -338 208z" />
    <glyph glyph-name="uni044E" unicode="&#x44e;" horiz-adv-x="1026" 
d="M67 0v712h117v-298h62c28 182 180 322 371 322c209 0 376 -171 376 -379c0 -211 -167 -381 -376 -381c-191 0 -344 139 -371 323h-62v-299h-117zM617 92c145 0 260 118 260 265c0 144 -115 263 -260 263s-259 -119 -259 -263c0 -147 114 -265 259 -265z" />
    <glyph glyph-name="uni044F" unicode="&#x44f;" horiz-adv-x="708" 
d="M45 0c48 70 98 140 146 210c-86 46 -147 132 -147 234c0 149 129 268 283 268h313v-712h-115v177h-201c-4 0 -10 0 -14 1l-123 -178h-142zM327 289h198v310h-197c-91 0 -168 -70 -168 -155s75 -155 167 -155z" />
    <glyph glyph-name="uni0452" unicode="&#x452;" horiz-adv-x="850" 
d="M275 0v596h-247v116h614v-116h-250v-134c36 21 89 40 151 40c178 0 275 -122 275 -250c0 -126 -92 -254 -298 -254h-43v115h43c124 0 183 70 183 139c0 74 -55 136 -162 136c-60 0 -114 -24 -149 -46v-342h-117z" />
    <glyph glyph-name="uni0453" unicode="&#x453;" horiz-adv-x="627" 
d="M495 893l-185 -151l-63 73l175 161zM67 0v712h529v-116h-412v-596h-117z" />
    <glyph glyph-name="uni0454" unicode="&#x454;" horiz-adv-x="776" 
d="M156 413h373v-116h-373c26 -118 133 -205 256 -205c104 0 192 59 236 145l103 -53c-63 -124 -190 -208 -339 -208c-208 0 -379 170 -379 381c0 208 171 379 379 379c149 0 277 -84 339 -207l-103 -53c-43 86 -132 144 -236 144c-125 0 -231 -90 -256 -207z" />
    <glyph glyph-name="uni0455" unicode="&#x455;" horiz-adv-x="689" 
d="M30 94l69 101c101 -71 192 -102 268 -102c106 0 168 47 168 90c0 149 -498 92 -498 341c0 128 125 212 277 212c95 0 200 -32 311 -103l-65 -99c-92 58 -182 86 -255 86c-97 0 -152 -46 -152 -92c0 -128 498 -79 498 -342c0 -113 -112 -210 -289 -210
c-99 0 -213 38 -332 118z" />
    <glyph glyph-name="uni0456" unicode="&#x456;" horiz-adv-x="251" 
d="M67 0v712h116v-712h-116z" />
    <glyph glyph-name="uni0458" unicode="&#x458;" horiz-adv-x="560" 
d="M9 41l71 90c30 -25 70 -39 111 -39c105 0 189 78 189 179v441h116v-442c0 -166 -136 -294 -305 -294c-69 0 -132 24 -182 65z" />
    <glyph glyph-name="uni0457" unicode="&#x457;" horiz-adv-x="251" 
d="M67 0v712h116v-712h-116zM-59 847c0 44 35 80 80 80c44 0 80 -36 80 -80c0 -45 -36 -80 -80 -80c-45 0 -80 35 -80 80zM151 847c0 44 35 80 80 80c43 0 80 -36 80 -80c0 -45 -37 -80 -80 -80c-45 0 -80 35 -80 80z" />
    <glyph glyph-name="uni045C" unicode="&#x45c;" horiz-adv-x="722" 
d="M530 888l-185 -151l-63 73l175 161zM67 0v712h117v-298h154l208 298h141l-249 -355l249 -357h-141l-209 298h-153v-298h-117z" />
    <glyph glyph-name="uni045E" unicode="&#x45e;" horiz-adv-x="699" 
d="M193 0l95 183l-270 529h130l204 -401l207 401h130l-365 -712h-131zM144 875l88 51c13 -24 70 -103 120 -103c52 0 109 84 119 103l89 -50c-40 -70 -120 -153 -208 -153c-89 0 -169 85 -208 152z" />
    <glyph glyph-name="uni0459" unicode="&#x459;" horiz-adv-x="1143" 
d="M890 436c122 0 222 -93 222 -214c0 -124 -99 -222 -221 -222h-334v596h-276c-1 -144 -4 -263 -28 -359c-33 -134 -99 -215 -222 -254l-36 110c80 26 123 77 145 172c24 103 24 243 24 447h508v-276h218zM890 114c58 0 106 47 106 103c0 57 -48 104 -106 104h-218v-207
h218z" />
    <glyph glyph-name="uni045A" unicode="&#x45a;" horiz-adv-x="1151" 
d="M67 0v712h117v-294h382v294h116v-294h225c117 0 214 -85 214 -203c0 -119 -96 -215 -212 -215h-343v303h-382v-303h-117zM682 114h225c54 0 97 44 97 96s-43 93 -97 93h-225v-189z" />
    <glyph glyph-name="uni045B" unicode="&#x45b;" horiz-adv-x="849" 
d="M276 0v596h-248v116h615v-116h-250v-132c56 21 118 38 180 38c133 0 227 -67 227 -228v-274h-116v273c0 84 -47 115 -114 115c-56 0 -118 -21 -177 -46v-342h-117z" />
    <glyph glyph-name="uni045F" unicode="&#x45f;" horiz-adv-x="755" 
d="M67 0v712h117v-596h387v596h117v-712h-253v-101h-117v101h-251z" />
    <glyph glyph-name="uni0491" unicode="&#x491;" horiz-adv-x="623" 
d="M67 0v712h413v103h116v-219h-412v-596h-117z" />
    <glyph glyph-name="songer" unicode="&#x2b24;" horiz-adv-x="1076" 
d="M790 930c153 -92 214 -359 214 -576s-61 -484 -214 -576c-36 -22 -76 -33 -122 -33c-47 0 -92 5 -136 15c-266 63 -469 305 -469 594c0 288 203 531 469 593c44 10 89 15 136 15c46 0 86 -11 122 -32z" />
    <glyph glyph-name="uni2197" unicode="&#x2197;" horiz-adv-x="674" 
d="M489 77v366l-331 -335l-81 81l333 332h-365v113h489l68 -69v-488h-113z" />
    <glyph glyph-name="uni2198" unicode="&#x2198;" horiz-adv-x="674" 
d="M489 634h113v-488c-23 -23 -46 -45 -68 -69h-489v114h365l-333 331l81 81c110 -111 221 -222 331 -334v365z" />
    <glyph glyph-name="uni2196" unicode="&#x2196;" horiz-adv-x="674" 
d="M184 77h-113v488l68 69h489v-113h-365l333 -332l-81 -81l-331 335v-366z" />
    <glyph glyph-name="uni2199" unicode="&#x2199;" horiz-adv-x="674" 
d="M71 634h113v-365c110 112 221 223 331 334l81 -81l-333 -331h365v-114h-489c-22 24 -45 46 -68 69v488z" />
    <glyph glyph-name="lcaron" unicode="&#x13e;" horiz-adv-x="657" 
d="M338 736c52 0 80 -45 80 -102c0 -76 -50 -126 -119 -169l-47 73c26 16 55 37 67 52c-33 1 -61 29 -61 65c0 41 31 81 80 81zM67 0v712h116v-597h434v-115h-550z" />
    <glyph glyph-name="uni0232" unicode="&#x232;" horiz-adv-x="692" 
d="M288 0v175l-279 537h132l205 -402l206 402h131l-279 -537v-175h-116zM174 783v105h345v-105h-345z" />
    <glyph glyph-name="Gcaron" unicode="&#x1e6;" horiz-adv-x="825" 
d="M569 299v115h220c3 -18 4 -39 4 -57c0 -211 -171 -381 -381 -381c-209 0 -379 170 -379 381c0 208 170 379 379 379c100 0 190 -38 258 -101l-77 -85c-48 43 -111 70 -181 70c-144 0 -263 -119 -263 -263c0 -147 119 -265 263 -265c128 0 233 89 259 207h-102zM412 750
l-199 153l63 82l136 -109l138 109l62 -82z" />
    <glyph glyph-name="uni01EA" unicode="&#x1ea;" 
d="M33 357c0 208 170 379 379 379c211 0 381 -171 381 -379c0 -202 -155 -365 -352 -379c-38 -20 -60 -43 -60 -61c0 -16 15 -23 35 -23c32 0 80 17 105 33l48 -82c-53 -32 -102 -46 -144 -46c-89 0 -142 54 -142 107c0 33 20 59 45 80c-169 38 -295 189 -295 371zM677 357
c0 144 -118 263 -265 263c-144 0 -263 -119 -263 -263c0 -147 119 -265 263 -265c147 0 265 118 265 265z" />
    <glyph glyph-name="uni0233" unicode="&#x233;" horiz-adv-x="692" 
d="M288 0v175l-279 537h132l205 -402l206 402h131l-279 -537v-175h-116zM174 783v105h345v-105h-345z" />
    <glyph glyph-name="gcaron" unicode="&#x1e7;" horiz-adv-x="825" 
d="M569 299v115h220c3 -18 4 -39 4 -57c0 -211 -171 -381 -381 -381c-209 0 -379 170 -379 381c0 208 170 379 379 379c100 0 190 -38 258 -101l-77 -85c-48 43 -111 70 -181 70c-144 0 -263 -119 -263 -263c0 -147 119 -265 263 -265c128 0 233 89 259 207h-102zM412 750
l-199 153l63 82l136 -109l138 109l62 -82z" />
    <glyph glyph-name="uni01EB" unicode="&#x1eb;" 
d="M33 357c0 208 170 379 379 379c211 0 381 -171 381 -379c0 -202 -155 -365 -352 -379c-38 -20 -60 -43 -60 -61c0 -16 15 -23 35 -23c32 0 80 17 105 33l48 -82c-53 -32 -102 -46 -144 -46c-89 0 -142 54 -142 107c0 33 20 59 45 80c-169 38 -295 189 -295 371zM677 357
c0 144 -118 263 -265 263c-144 0 -263 -119 -263 -263c0 -147 119 -265 263 -265c147 0 265 118 265 265z" />
    <glyph glyph-name="uni2717" unicode="&#x2717;" horiz-adv-x="817" 
d="M50 77l280 279l-280 278l80 80l279 -279l277 279l81 -80l-279 -278l279 -279l-81 -81l-277 281l-279 -281z" />
    <glyph glyph-name="uni2713" unicode="&#x2713;" horiz-adv-x="778" 
d="M713 927l103 -55l-437 -822h-104l-246 353l95 67l196 -284z" />
    <glyph glyph-name="arrowboth" unicode="&#x2194;" horiz-adv-x="1098" 
d="M714 750l345 -346v-96l-345 -346l-82 82l262 254h-690l262 -254l-82 -82l-345 346v96l345 346l82 -82l-262 -254h690l-262 254z" />
    <glyph glyph-name="arrowupdn" unicode="&#x2195;" horiz-adv-x="868" 
d="M828 192l-346 -345h-96c-115 116 -231 229 -346 345l82 81l254 -262v691l-254 -262l-82 81c115 116 231 230 346 346h96l346 -346l-82 -81l-255 262v-691l255 262z" />
    <glyph glyph-name="zero.tf" horiz-adv-x="682" 
d="M342 92c128 0 206 126 206 265c0 138 -79 263 -206 263c-129 0 -209 -123 -209 -263c0 -141 80 -265 209 -265zM342 -23c-198 0 -325 171 -325 380c0 207 127 379 325 379c195 0 322 -172 322 -379c0 -209 -127 -380 -322 -380z" />
    <glyph glyph-name="one.tf" horiz-adv-x="682" 
d="M612 116v-116h-536v116h209v461l-78 -53l-63 98c46 29 92 60 138 90h120v-596h210z" />
    <glyph glyph-name="two.tf" horiz-adv-x="682" 
d="M620 481c0 -176 -167 -289 -327 -366h320v-115h-539v134c157 62 429 199 429 347c0 83 -60 140 -149 140c-78 0 -165 -54 -193 -157l-110 31c41 153 166 241 303 241c157 0 266 -106 266 -255z" />
    <glyph glyph-name="three.tf" horiz-adv-x="682" 
d="M39 139l101 56c43 -73 116 -102 184 -102c101 0 159 51 159 107c0 58 -55 105 -175 105h-85v113h85c111 0 162 48 162 100c0 63 -69 101 -149 101c-62 0 -128 -24 -168 -82l-96 61c59 96 162 138 261 138c141 0 269 -86 269 -217c0 -60 -33 -121 -87 -154
c67 -34 100 -98 100 -166c0 -114 -105 -223 -278 -223c-108 0 -220 49 -283 163z" />
    <glyph glyph-name="four.tf" horiz-adv-x="682" 
d="M163 232h261v321zM36 119v130l375 463h129v-480h97v-113h-97v-119h-116v119h-388z" />
    <glyph glyph-name="five.tf" horiz-adv-x="682" 
d="M52 182l107 43c43 -106 117 -133 178 -133c112 0 165 74 165 146c0 77 -62 135 -142 135c-54 0 -114 -24 -173 -78l-100 50l29 367h458v-115h-353l-16 -160c51 35 107 49 161 49c131 0 252 -97 252 -247c0 -141 -106 -263 -282 -263c-127 0 -233 73 -284 206z" />
    <glyph glyph-name="six.tf" horiz-adv-x="682" 
d="M281 642l89 112l93 -71l-139 -173c204 15 312 -125 312 -262c0 -150 -131 -272 -295 -272c-163 0 -295 122 -295 272c0 90 30 137 235 394zM163 249c0 -85 78 -158 178 -158c101 0 180 73 180 158c0 86 -79 159 -180 159c-100 0 -178 -72 -178 -159z" />
    <glyph glyph-name="seven.tf" horiz-adv-x="682" 
d="M177 22l302 574h-424v116h556v-115l-328 -630z" />
    <glyph glyph-name="eight.tf" horiz-adv-x="682" 
d="M148 366c-52 32 -86 81 -86 146c0 122 125 224 279 224c151 0 277 -102 277 -224c0 -65 -34 -113 -87 -146c68 -36 105 -93 105 -157c0 -129 -134 -233 -295 -233c-163 0 -295 104 -295 233c0 64 35 122 102 157zM161 205c0 -57 74 -114 180 -114c104 0 179 57 179 114
c0 64 -89 109 -179 109c-91 0 -180 -45 -180 -109zM177 513c0 -58 78 -99 164 -99c83 0 162 41 162 99c0 60 -77 107 -162 107c-96 0 -164 -52 -164 -107z" />
    <glyph glyph-name="nine.tf" horiz-adv-x="682" 
d="M219 28l138 175c-202 -15 -311 124 -311 262c0 149 131 271 295 271c163 0 294 -122 294 -271c0 -91 -30 -138 -235 -396l-88 -111zM161 465c0 -87 79 -159 180 -159c99 0 177 72 177 159c0 85 -78 157 -177 157c-101 0 -180 -72 -180 -157z" />
    <glyph glyph-name="zeroslash.tf" horiz-adv-x="682" 
d="M342 -24c-198 0 -325 173 -325 381c0 207 127 379 325 379c195 0 322 -172 322 -379c0 -208 -127 -381 -322 -381zM185 171l226 440c-20 8 -44 13 -69 13c-131 0 -211 -125 -211 -267c0 -74 19 -139 54 -186zM497 539l-226 -438c22 -9 45 -13 71 -13
c130 0 208 128 208 269c0 72 -19 137 -53 182z" />
    <glyph glyph-name="dollar.tf" horiz-adv-x="682" 
d="M275 -130v115c-79 15 -162 51 -249 109l69 100c102 -70 191 -101 268 -101c106 0 167 47 167 90c0 149 -496 92 -496 341c0 118 106 198 241 209v110h112v-115c74 -13 153 -44 234 -96l-64 -98c-93 58 -183 86 -255 86c-98 0 -152 -46 -152 -92c0 -128 497 -79 497 -343
c0 -107 -100 -198 -260 -207v-108h-112z" />
    <glyph glyph-name="cent.tf" horiz-adv-x="682" 
d="M302 -122v105c-124 25 -218 137 -218 268c0 132 94 244 218 270v106h108v-104c82 -13 151 -64 193 -137l-97 -52c-30 53 -82 83 -145 83c-92 0 -166 -75 -166 -166s74 -165 166 -165c62 0 113 31 143 83l97 -54c-39 -71 -107 -120 -191 -135v-102h-108z" />
    <glyph glyph-name="sterling.tf" horiz-adv-x="682" 
d="M233 284c-11 -84 -12 -119 -46 -169h437v-115h-577v114c52 38 60 86 69 161l16 147c19 162 100 314 262 314c93 0 179 -50 253 -108l-73 -90c-55 45 -120 83 -180 83c-102 0 -136 -122 -149 -223h262v-114h-274z" />
    <glyph glyph-name="yen.tf" horiz-adv-x="682" 
d="M92 86v100h186l-16 32h-170v102h117l-206 392h133l205 -402l206 402h131l-206 -392h118v-102h-171l-16 -32h187v-100h-191v-86h-117v86h-190z" />
    <glyph glyph-name="space.tf" horiz-adv-x="682" 
 />
    <glyph glyph-name="uni041B.ss03" horiz-adv-x="788" 
d="M-7 24l49 104c30 -15 52 -20 70 -20c77 0 84 240 84 381v223h524v-712h-116v595h-292v-27c0 -214 12 -575 -200 -575c-37 0 -77 9 -119 31z" />
    <glyph glyph-name="uni0409.ss03" horiz-adv-x="1170" 
d="M-7 24l49 104c30 -15 52 -20 70 -20c77 0 84 240 84 381v223h503v-276h217c123 0 223 -93 223 -214c0 -124 -100 -222 -221 -222h-335v596h-271v-103c0 -213 -10 -500 -200 -500c-37 0 -77 9 -119 31zM699 114h217c33 0 63 17 78 42c17 13 29 36 29 61c0 4 -2 9 -5 12
c-3 51 -48 92 -102 92h-217v-207z" />
    <glyph glyph-name="uni0409.ss02" horiz-adv-x="1086" 
d="M834 436c123 0 222 -93 222 -214c0 -124 -99 -222 -221 -222h-226l-235 555l-235 -555h-130l308 712h114l119 -276h284zM834 114c59 0 107 47 107 103c0 57 -48 104 -107 104h-235l90 -207h145z" />
    <glyph glyph-name="uni041A.ss02" horiz-adv-x="758" 
d="M67 0v712h116v-459l399 459h153l-308 -355l308 -357h-155l-231 267l-166 -191v-76h-116z" />
    <glyph glyph-name="uni040C.ss02" horiz-adv-x="758" 
d="M67 0v712h116v-459l399 459h153l-308 -355l308 -357h-155l-231 267l-166 -191v-76h-116zM545 888l-185 -151l-63 73l175 161z" />
    <glyph glyph-name="uni0416.ss02" horiz-adv-x="1216" 
d="M666 258c125 151 250 303 376 454h151l-296 -355c99 -119 198 -238 296 -357h-150c-74 89 -148 177 -221 267l-156 -178v-89h-117v89c-51 59 -104 118 -155 178c-74 -90 -148 -178 -221 -267h-151l296 357l-296 355h151c126 -151 251 -303 376 -454v454h117v-454z" />
    </font>
</defs>
</svg>
