<svg width="18" height="18" viewBox="0 0 18 18" fill="none" xmlns="http://www.w3.org/2000/svg">
<path d="M0.57777 1.61527H1.27687L3.36262 10.4719L3.51284 11.1095V11.2031C3.69533 11.9793 4.13357 12.6694 4.75533 13.1596C5.3771 13.6498 6.14527 13.9109 6.93324 13.8999H16.1776C16.3308 13.8999 16.4777 13.8382 16.5861 13.7285C16.6945 13.6188 16.7553 13.47 16.7553 13.3149C16.7553 13.1597 16.6945 13.011 16.5861 12.9012C16.4777 12.7915 16.3308 12.7299 16.1776 12.7299H6.93324C6.52405 12.7336 6.12122 12.6273 5.76593 12.4217C5.41064 12.2161 5.11563 11.9188 4.91104 11.5599H15.5998C15.735 11.5627 15.8668 11.5174 15.9724 11.4319C16.0779 11.3464 16.1505 11.2261 16.1776 11.092L17.3331 5.24215C17.3496 5.15717 17.3473 5.06954 17.3263 4.98557C17.3054 4.90161 17.2662 4.82341 17.2118 4.75662C17.1568 4.68797 17.0871 4.63283 17.0081 4.59535C16.929 4.55786 16.8426 4.539 16.7553 4.54018H3.15462L2.31108 0.895743C2.28058 0.764865 2.20648 0.648623 2.10124 0.566582C1.99601 0.484542 1.86608 0.441714 1.73331 0.445308H0.57777C0.424536 0.445308 0.277578 0.50694 0.169225 0.616645C0.060872 0.72635 0 0.875142 0 1.03029C0 1.18544 0.060872 1.33423 0.169225 1.44393C0.277578 1.55364 0.424536 1.61527 0.57777 1.61527ZM16.0504 5.71014L15.126 10.39H4.52972L3.43195 5.71014H16.0504Z" fill="black"/>
<path d="M8.66638 16.2398C8.66638 15.8927 8.56473 15.5534 8.37427 15.2648C8.18382 14.9762 7.91312 14.7513 7.5964 14.6185C7.27969 14.4856 6.93118 14.4509 6.59496 14.5186C6.25874 14.5863 5.9499 14.7534 5.70749 14.9989C5.46509 15.2443 5.30001 15.557 5.23313 15.8974C5.16626 16.2379 5.20058 16.5907 5.33177 16.9114C5.46296 17.2321 5.68511 17.5062 5.97015 17.699C6.25519 17.8918 6.5903 17.9948 6.93311 17.9948C7.3928 17.9948 7.83367 17.8099 8.15872 17.4807C8.48377 17.1516 8.66638 16.7053 8.66638 16.2398ZM6.35535 16.2398C6.35535 16.1241 6.38923 16.011 6.45272 15.9148C6.5162 15.8186 6.60644 15.7436 6.71201 15.6994C6.81758 15.6551 6.93375 15.6435 7.04582 15.6661C7.1579 15.6886 7.26084 15.7444 7.34164 15.8262C7.42244 15.908 7.47747 16.0122 7.49976 16.1257C7.52206 16.2392 7.51061 16.3568 7.46689 16.4637C7.42316 16.5706 7.3491 16.6619 7.25409 16.7262C7.15908 16.7905 7.04738 16.8248 6.93311 16.8248C6.77987 16.8248 6.63292 16.7632 6.52457 16.6535C6.41622 16.5438 6.35535 16.395 6.35535 16.2398Z" fill="black"/>
<path d="M15.5999 16.2398C15.5999 15.8927 15.4982 15.5534 15.3077 15.2648C15.1173 14.9762 14.8466 14.7513 14.5298 14.6185C14.2131 14.4856 13.8646 14.4509 13.5284 14.5186C13.1921 14.5863 12.8833 14.7534 12.6409 14.9989C12.3985 15.2443 12.2334 15.557 12.1665 15.8974C12.0996 16.2379 12.1339 16.5907 12.2651 16.9114C12.3963 17.2321 12.6185 17.5062 12.9035 17.699C13.1886 17.8918 13.5237 17.9948 13.8665 17.9948C14.3262 17.9948 14.7671 17.8099 15.0922 17.4807C15.4172 17.1516 15.5999 16.7053 15.5999 16.2398ZM13.8665 16.8248C13.7522 16.8248 13.6405 16.7905 13.5455 16.7262C13.4505 16.6619 13.3764 16.5706 13.3327 16.4637C13.289 16.3568 13.2775 16.2392 13.2998 16.1257C13.3221 16.0122 13.3772 15.908 13.458 15.8262C13.5388 15.7444 13.6417 15.6886 13.7538 15.6661C13.8659 15.6435 13.982 15.6551 14.0876 15.6994C14.1932 15.7436 14.2834 15.8186 14.3469 15.9148C14.4104 16.011 14.4443 16.1241 14.4443 16.2398C14.4443 16.395 14.3834 16.5438 14.2751 16.6535C14.1667 16.7632 14.0198 16.8248 13.8665 16.8248Z" fill="black"/>
</svg>
