<svg width="134" height="40" viewBox="0 0 134 40" fill="none" xmlns="http://www.w3.org/2000/svg">
<path d="M129.236 40H4.66518C2.08444 40 0 37.9 0 35.3V4.7C0 2.1 2.08444 0 4.66518 0H129.236C131.816 0 134 2.1 134 4.7V35.2C134 37.9 131.816 40 129.236 40Z" fill="#A6A6A6"/>
<path d="M133.007 35.2999C133.007 37.3999 131.32 39.0999 129.236 39.0999H4.66518C2.58074 39.0999 0.893333 37.3999 0.893333 35.2999V4.6999C0.893333 2.5999 2.58074 0.899902 4.66518 0.899902H129.236C131.32 0.899902 133.007 2.5999 133.007 4.6999V35.2999Z" fill="black"/>
<path d="M29.877 19.7999C29.877 16.5999 32.4578 14.9999 32.6563 14.8999C31.1674 12.6999 28.7852 12.3999 27.9911 12.3999C26.0059 12.1999 24.12 13.5999 23.1274 13.5999C22.1348 13.5999 20.5467 12.3999 18.9585 12.4999C16.8741 12.4999 14.8889 13.7999 13.797 15.6999C11.5141 19.5999 13.2015 25.3999 15.3852 28.5999C16.477 30.1999 17.7674 31.8999 19.3556 31.7999C20.9437 31.6999 21.5393 30.7999 23.5244 30.7999C25.4104 30.7999 26.0059 31.7999 27.6933 31.7999C29.3807 31.7999 30.4726 30.1999 31.5644 28.6999C32.8548 26.8999 33.3511 25.1999 33.3511 25.0999C33.2519 24.8999 29.9763 23.5999 29.877 19.7999Z" fill="white"/>
<path d="M26.7007 10.3C27.5941 9.19995 28.1896 7.69995 27.9911 6.19995C26.7007 6.29995 25.2119 7.09995 24.2193 8.09995C23.4252 8.99995 22.7304 10.6 22.9289 12C24.4178 12.2 25.8074 11.4 26.7007 10.3Z" fill="white"/>
<path d="M53.203 31.5H50.92L49.7289 27.6H45.4607L44.2696 31.5H42.0859L46.3541 18.2H48.9348L53.203 31.5ZM49.4311 26L48.3393 22.5C48.24 22.1 48.0415 21.3 47.6444 20C47.5452 20.6 47.3467 21.4 47.0489 22.5L45.8578 26H49.4311Z" fill="white"/>
<path d="M64.2207 26.6C64.2207 28.2 63.8237 29.5 62.9304 30.5C62.1363 31.3 61.1437 31.7999 60.0518 31.7999C58.7615 31.7999 57.8681 31.2999 57.3718 30.4V35.5H55.2874V25.1C55.2874 24.1 55.2874 23 55.1881 21.9H57.0741L57.1733 23.4C57.8681 22.3 58.96 21.7 60.3496 21.7C61.4415 21.7 62.4341 22.1 63.1289 23C63.8237 23.9 64.2207 25.1 64.2207 26.6ZM62.037 26.7C62.037 25.8 61.8385 24.9999 61.4415 24.4C60.9452 23.8 60.3496 23.5 59.5555 23.5C59.0593 23.5 58.563 23.7 58.1659 24C57.7689 24.4 57.4711 24.8 57.3718 25.4C57.2726 25.6999 57.2726 25.9 57.2726 26V27.6C57.2726 28.3 57.4711 28.9 57.8681 29.4C58.2652 29.9 58.8607 30.1 59.5555 30.1C60.3496 30.1 60.9452 29.8 61.4415 29.2C61.8385 28.5 62.037 27.7 62.037 26.7Z" fill="white"/>
<path d="M75.1393 26.6C75.1393 28.2 74.7422 29.5 73.8489 30.5C73.0548 31.3 72.0622 31.7999 70.9704 31.7999C69.68 31.7999 68.7867 31.2999 68.2904 30.4V35.5H66.2059V25.1C66.2059 24.1 66.2059 23 66.1067 21.9H67.9926L68.0918 23.4C68.7867 22.3 69.8785 21.7 71.2681 21.7C72.36 21.7 73.3526 22.1 74.0474 23C74.7422 23.9 75.1393 25.1 75.1393 26.6ZM72.9556 26.7C72.9556 25.8 72.757 24.9999 72.36 24.4C71.8637 23.8 71.2681 23.5 70.4741 23.5C69.9778 23.5 69.4815 23.7 69.0844 24C68.6874 24.4 68.3896 24.8 68.2904 25.4C68.1911 25.6999 68.1911 25.9 68.1911 26V27.6C68.1911 28.3 68.3896 28.9 68.7867 29.4C69.1837 29.9 69.7793 30.1 70.4741 30.1C71.2681 30.1 71.8637 29.8 72.36 29.2C72.757 28.5 72.9556 27.7 72.9556 26.7Z" fill="white"/>
<path d="M87.3482 27.7999C87.3482 28.9 86.9511 29.9 86.157 30.6C85.2637 31.4 84.0726 31.7999 82.5837 31.7999C81.1941 31.7999 80.003 31.5 79.2089 31L79.7052 29.2C80.5985 29.8 81.6904 30.1 82.7822 30.1C83.5763 30.1 84.1719 29.9 84.6682 29.6C85.0652 29.2 85.363 28.8 85.363 28.1C85.363 27.6 85.1644 27.1 84.7674 26.7C84.3704 26.3 83.7748 26 82.9807 25.7C80.6978 24.8 79.5067 23.5999 79.5067 21.9C79.5067 20.8 79.9037 19.9 80.6978 19.2C81.4919 18.5 82.5837 18.2 83.9733 18.2C85.1644 18.2 86.157 18.3999 86.9511 18.7999L86.3556 20.4C85.5615 20 84.7674 19.7999 83.8741 19.7999C83.08 19.7999 82.5837 20 82.0874 20.4C81.6904 20.6999 81.5911 21.1 81.5911 21.6C81.5911 22.1 81.7896 22.5999 82.1867 22.9C82.5837 23.2 83.1793 23.5999 84.0726 23.9C85.1644 24.4 86.0578 24.9 86.5541 25.5C87.1496 26.1 87.3482 26.9 87.3482 27.7999Z" fill="white"/>
<path d="M94.3955 23.5H92.1126V28.2C92.1126 29.4 92.5096 30 93.3037 30C93.7007 30 93.9985 30 94.197 29.9L94.2963 31.5C93.8993 31.7 93.3037 31.7 92.6089 31.7C91.8148 31.7 91.12 31.4 90.6237 30.9C90.1274 30.4 89.9289 29.5 89.9289 28.3V23.5H88.5392V21.9H89.9289V20.1L92.0133 19.5V21.9H94.2963L94.3955 23.5Z" fill="white"/>
<path d="M104.917 26.6C104.917 28.1 104.52 29.3 103.627 30.2C102.733 31.2 101.542 31.7 100.153 31.7C98.763 31.7 97.6711 31.1999 96.7778 30.2999C95.8844 29.3999 95.4874 28.1999 95.4874 26.7999C95.4874 25.2999 95.8844 24.1 96.7778 23.1C97.6711 22.2 98.763 21.7 100.252 21.7C101.641 21.7 102.733 22.2 103.627 23.1C104.52 24 104.917 25.2 104.917 26.6ZM102.733 26.7C102.733 25.8 102.535 25.1 102.138 24.4C101.741 23.6 101.046 23.2999 100.252 23.2999C99.3585 23.2999 98.763 23.6999 98.2667 24.4C97.8696 24.9999 97.6711 25.8 97.6711 26.7C97.6711 27.6 97.8696 28.3 98.2667 29C98.763 29.8 99.3585 30.1 100.153 30.1C100.947 30.1 101.641 29.7 102.039 28.9C102.535 28.3 102.733 27.6 102.733 26.7Z" fill="white"/>
<path d="M111.766 23.7999C111.567 23.7999 111.369 23.7 111.071 23.7C110.277 23.7 109.781 24 109.384 24.6C108.987 25.1 108.887 25.7 108.887 26.5V31.5H106.803V24.9C106.803 23.8 106.803 22.8 106.704 21.9H108.59L108.689 23.7H108.788C108.987 23.1 109.384 22.6 109.88 22.2C110.376 21.9 110.873 21.7 111.369 21.7C111.567 21.7 111.766 21.7 111.865 21.7L111.766 23.7999Z" fill="white"/>
<path d="M121.295 26.2999C121.295 26.6999 121.295 26.9999 121.196 27.2999H114.843C114.843 28.1999 115.141 28.9999 115.736 29.4999C116.233 29.8999 116.927 30.1999 117.821 30.1999C118.714 30.1999 119.607 29.9999 120.401 29.6999L120.699 31.1999C119.806 31.5999 118.714 31.7999 117.523 31.7999C116.034 31.7999 114.843 31.3999 114.049 30.4999C113.255 29.5999 112.759 28.4999 112.759 26.9999C112.759 25.5999 113.156 24.2999 113.95 23.3999C114.744 22.3999 115.836 21.8999 117.324 21.8999C118.714 21.8999 119.707 22.3999 120.401 23.3999C120.997 23.9999 121.295 25.0999 121.295 26.2999ZM119.21 25.6999C119.21 25.0999 119.111 24.4999 118.813 24.0999C118.416 23.4999 117.92 23.1999 117.126 23.1999C116.431 23.1999 115.836 23.4999 115.439 24.0999C115.041 24.5999 114.843 25.0999 114.843 25.7999L119.21 25.6999Z" fill="white"/>
<path d="M43.0785 7.2999C43.277 7.1999 43.5748 6.9999 43.8726 6.9999C44.1704 6.8999 44.4682 6.8999 44.8652 6.8999C45.4607 6.8999 45.957 6.9999 46.3541 7.2999C46.7511 7.5999 46.8504 7.9999 46.8504 8.4999C46.8504 8.8999 46.7511 9.1999 46.4533 9.4999C46.1556 9.7999 45.8578 9.9999 45.56 9.9999C45.7585 9.9999 45.957 10.0999 46.1556 10.1999C46.3541 10.2999 46.4533 10.3999 46.6519 10.4999C46.7511 10.5999 46.8504 10.7999 46.9496 10.9999C47.0489 11.1999 47.0489 11.3999 47.0489 11.5999C47.0489 11.9999 46.9496 12.2999 46.8504 12.4999C46.7511 12.6999 46.5526 12.8999 46.2548 13.0999C46.0563 13.2999 45.7585 13.3999 45.4607 13.3999C45.163 13.3999 44.8652 13.4999 44.5674 13.4999C44.2696 13.4999 43.9719 13.4999 43.6741 13.3999C43.3763 13.2999 43.0785 13.1999 42.88 13.0999L43.1778 12.2999C43.3763 12.3999 43.5748 12.4999 43.8726 12.4999C44.1704 12.5999 44.3689 12.5999 44.6667 12.5999C45.0637 12.5999 45.4607 12.4999 45.6593 12.2999C45.8578 12.0999 46.0563 11.7999 46.0563 11.4999C46.0563 11.2999 46.0563 11.0999 45.957 10.8999C45.8578 10.7999 45.7585 10.5999 45.56 10.5999C45.3615 10.4999 45.2622 10.4999 45.0637 10.3999C44.8652 10.2999 44.6667 10.3999 44.4682 10.3999H44.0711V9.5999H44.4682C44.6667 9.5999 44.8652 9.5999 45.0637 9.4999C45.2622 9.3999 45.3615 9.3999 45.4607 9.2999C45.56 9.1999 45.6593 9.0999 45.7585 8.9999C45.8578 8.8999 45.8578 8.6999 45.8578 8.5999C45.8578 8.2999 45.7585 8.0999 45.56 7.8999C45.3615 7.6999 45.0637 7.6999 44.7659 7.6999C44.5674 7.6999 44.2696 7.6999 44.0711 7.7999C43.8726 7.8999 43.5748 7.9999 43.4756 8.0999L43.0785 7.2999Z" fill="white"/>
<path d="M51.4163 13.3999L51.317 12.8999C51.0193 13.2999 50.523 13.4999 49.9274 13.4999C49.7289 13.4999 49.5304 13.4999 49.3319 13.3999C49.1333 13.2999 49.0341 13.1999 48.8356 13.0999C48.7363 12.9999 48.637 12.7999 48.5378 12.6999C48.4385 12.4999 48.4385 12.2999 48.4385 12.0999C48.4385 11.4999 48.637 11.0999 49.1333 10.7999C49.6296 10.4999 50.3244 10.3999 51.1185 10.3999V10.2999C51.1185 9.69985 50.8207 9.39985 50.1259 9.39985C49.6296 9.39985 49.2326 9.49985 48.9348 9.69985L48.8356 8.99985C49.2326 8.69985 49.8282 8.59985 50.4237 8.59985C51.6148 8.59985 52.2104 9.19985 52.2104 10.4999V12.1999C52.2104 12.6999 52.2104 13.0999 52.3096 13.2999L51.4163 13.3999ZM51.2178 11.0999C50.6222 11.0999 50.2252 11.1999 49.9274 11.2999C49.6296 11.3999 49.5304 11.6999 49.5304 11.9999C49.5304 12.1999 49.6296 12.3999 49.7289 12.5999C49.8282 12.7999 50.0267 12.7999 50.2252 12.7999C50.3244 12.7999 50.523 12.7999 50.6222 12.6999C50.7215 12.6999 50.8207 12.5999 50.92 12.4999C51.0193 12.3999 51.1185 12.2999 51.1185 12.1999C51.2178 12.0999 51.2178 11.9999 51.2178 11.7999V11.0999Z" fill="white"/>
<path d="M57.2726 8.69995V9.59995H55.2874V13.5H54.2948V8.69995H57.2726Z" fill="white"/>
<path d="M63.2282 11C63.2282 11.4 63.1289 11.7 63.0296 12C62.9304 12.3 62.8311 12.6 62.6326 12.8C62.4341 13 62.2356 13.2 61.9378 13.3C61.64 13.4 61.4415 13.5 61.1437 13.5C60.5482 13.5 60.0519 13.3 59.8533 12.8V15.3H58.8607V10.2C58.8607 9.9 58.8607 9.7 58.8607 9.4C58.8607 9.1 58.8607 8.9 58.8607 8.6H59.7541L59.8533 9.3C60.1511 8.7 60.7467 8.5 61.4415 8.5C61.7393 8.5 61.9378 8.6 62.2356 8.7C62.4341 8.8 62.6326 9 62.8311 9.2C63.0296 9.4 63.1289 9.7 63.2282 10C63.1289 10.3 63.2282 10.7 63.2282 11ZM62.1363 11.1C62.1363 10.9 62.1363 10.7 62.037 10.5C61.9378 10.3 61.9378 10.1 61.8385 10C61.7393 9.9 61.5407 9.7 61.4415 9.6C61.3422 9.5 61.1437 9.5 60.9452 9.5C60.8459 9.5 60.6474 9.5 60.5482 9.6C60.4489 9.7 60.2504 9.8 60.1511 9.9C60.0519 10 59.9526 10.1 59.8533 10.3C59.7541 10.5 59.7541 10.6 59.7541 10.8V11.6C59.7541 11.8 59.7541 11.9 59.8533 12.1C59.9526 12.2 59.9526 12.4 60.0519 12.5C60.1511 12.6 60.2504 12.7 60.4489 12.8C60.5482 12.9 60.7467 12.9 60.9452 12.9C61.3422 12.9 61.64 12.8 61.8385 12.4C62.037 12 62.1363 11.6 62.1363 11.1Z" fill="white"/>
<path d="M68.7867 8.69995L67.5956 12C67.2978 12.8 67 13.4 66.8015 13.9C66.5037 14.4 66.3052 14.8 66.0074 15C65.6104 15.3 65.3126 15.5 64.8163 15.6L64.5185 14.7C64.8163 14.6 65.0148 14.5 65.3126 14.3C65.5111 14.1 65.7096 13.8 65.9082 13.5C66.0074 13.4 66.0074 13.3 66.0074 13.3C66.0074 13.3 66.0074 13.2 65.9082 13.1L64.2207 8.79995H65.4119L66.3052 11.4C66.3052 11.5 66.4045 11.7 66.4045 11.8C66.4045 12 66.5037 12.1 66.5037 12.3C66.5037 12.2 66.603 12.1 66.603 11.9C66.603 11.7 66.7022 11.6 66.8015 11.4L67.5956 8.79995L68.7867 8.69995Z" fill="white"/>
<path d="M70.5733 10.6999H71.0696C71.4667 10.6999 71.6652 10.5999 71.8637 10.4999C72.0622 10.3999 72.1615 10.1999 72.1615 9.99985C72.1615 9.79985 72.0622 9.69985 71.963 9.49985C71.7645 9.39985 71.5659 9.29985 71.2682 9.29985C71.0696 9.29985 70.8711 9.29985 70.6726 9.39985C70.4741 9.49985 70.2756 9.49985 70.1763 9.59985L69.8785 8.99985C70.1763 8.89985 70.3748 8.69985 70.6726 8.69985C70.9704 8.59985 71.1689 8.59985 71.4667 8.59985C71.6652 8.59985 71.8637 8.59985 72.0622 8.69985C72.2607 8.69985 72.4593 8.79985 72.6578 8.89985C72.8563 8.99985 72.9556 9.09985 73.0548 9.29985C73.1541 9.49985 73.2533 9.69985 73.2533 9.89985C73.2533 9.99985 73.2533 10.1999 73.1541 10.2999C73.0548 10.3999 73.0548 10.4999 72.9556 10.5999C72.8563 10.6999 72.757 10.7999 72.6578 10.7999C72.5585 10.8999 72.4593 10.8999 72.2608 10.8999C72.4593 10.8999 72.5585 10.9999 72.757 10.9999C72.8563 11.0999 73.0548 11.0999 73.1541 11.1999C73.2533 11.2999 73.3526 11.3999 73.4519 11.4999C73.5511 11.5999 73.5511 11.7999 73.5511 11.9999C73.5511 12.2999 73.4519 12.4999 73.3526 12.6999C73.2533 12.8999 73.0548 12.9999 72.8563 13.0999C72.6578 13.1999 72.4593 13.2999 72.1615 13.2999C71.8637 13.2999 71.6652 13.3999 71.4667 13.3999C71.1689 13.3999 70.8711 13.3999 70.5733 13.2999C70.2756 13.1999 70.077 13.0999 69.7793 12.9999L70.077 12.2999C70.2756 12.3999 70.4741 12.4999 70.6726 12.4999C70.8711 12.4999 71.0696 12.5999 71.3674 12.5999C71.7645 12.5999 71.963 12.4999 72.1615 12.3999C72.36 12.2999 72.4593 12.0999 72.4593 11.8999C72.4593 11.7999 72.4593 11.5999 72.36 11.5999C72.2607 11.5999 72.1615 11.3999 72.0622 11.3999C71.963 11.2999 71.7644 11.2999 71.6652 11.2999C71.4667 11.2999 71.3674 11.2999 71.1689 11.2999H70.6726V10.6999H70.5733Z" fill="white"/>
<path d="M76.1319 8.69995V10.4C76.1319 10.8 76.1319 11.1 76.1319 11.4C76.1319 11.7 76.1319 12 76.1319 12.4C76.2311 12.2 76.3304 11.9 76.5289 11.7C76.6282 11.5 76.7274 11.2 76.9259 11L78.117 8.79995H79.5067V13.5H78.5141V11.8C78.5141 11.5 78.5141 11.1 78.5141 10.8C78.5141 10.4 78.5141 10.1 78.6133 9.69995C78.5141 9.99995 78.4148 10.2 78.3156 10.5C78.2163 10.7 78.117 10.9 78.0178 11.2C77.8193 11.6 77.6207 12 77.4222 12.4C77.2237 12.8 77.0252 13.2 76.8267 13.6H75.437V8.69995H76.1319Z" fill="white"/>
<path d="M84.7674 8.69995V9.59995H83.3778V13.5H82.3852V9.59995H80.9956V8.69995H84.7674Z" fill="white"/>
<path d="M90.1274 10.9C90.1274 11 90.1274 11.1 90.1274 11.2C90.1274 11.3 90.1274 11.4 90.1274 11.4H87.0504C87.0504 11.8 87.2489 12.2 87.4474 12.4C87.6459 12.6 88.043 12.8 88.5393 12.8C89.0356 12.8 89.4326 12.7 89.8296 12.6L90.0282 13.3C89.6311 13.5 89.0356 13.6 88.44 13.6C88.043 13.6 87.7452 13.5 87.4474 13.4C87.1496 13.3 86.9511 13.1 86.7526 12.9C86.5541 12.7 86.3556 12.4 86.2563 12.2C86.157 11.9 86.0578 11.6 86.0578 11.2C86.0578 10.8 86.157 10.5 86.2563 10.2C86.3556 9.89995 86.5541 9.59995 86.7526 9.39995C86.9511 9.19995 87.1496 8.99995 87.4474 8.89995C87.7452 8.79995 88.043 8.69995 88.3407 8.69995C88.6385 8.69995 88.9363 8.79995 89.1348 8.89995C89.3333 8.99995 89.5319 9.19995 89.7304 9.39995C89.9289 9.59995 90.0282 9.79995 90.1274 10.1C90.0282 10.2 90.1274 10.5 90.1274 10.9ZM89.1348 10.6C89.1348 10.2 89.0356 9.89995 88.837 9.69995C88.6385 9.49995 88.44 9.39995 88.043 9.39995C87.7452 9.39995 87.4474 9.49995 87.2489 9.69995C87.0504 9.89995 86.9511 10.2 86.8519 10.6H89.1348Z" fill="white"/>
<path d="M94.2963 8.79995C94.4948 8.79995 94.6933 8.69995 94.9911 8.69995C95.2889 8.69995 95.5867 8.69995 95.8844 8.69995C96.083 8.69995 96.2815 8.69995 96.5793 8.69995C96.877 8.69995 97.0756 8.79995 97.2741 8.89995C97.4726 8.99995 97.6711 9.09995 97.8696 9.29995C98.0682 9.49995 98.0682 9.69995 98.0682 9.99995C98.0682 10.1 98.0681 10.3 97.9689 10.4C97.8696 10.5 97.8696 10.6 97.7704 10.7C97.6711 10.8 97.5719 10.9 97.4726 10.9C97.3733 11 97.2741 11 97.0756 11C97.3733 11.1 97.6711 11.2 97.8696 11.4C98.0682 11.6 98.2667 11.7 98.2667 12C98.2667 12.3 98.1674 12.6 97.9689 12.8C97.7704 13 97.5719 13.1 97.2741 13.2C96.9763 13.3 96.7778 13.4 96.48 13.4C96.1822 13.4 95.8844 13.4 95.6859 13.4C95.3881 13.4 95.1896 13.4 94.8918 13.4C94.5941 13.4 94.3956 13.4 94.2963 13.4V8.79995ZM95.2889 10.6H95.7852C95.9837 10.6 96.083 10.6 96.2815 10.6C96.3807 10.6 96.5793 10.5 96.6785 10.5C96.7778 10.5 96.877 10.4 96.9763 10.3C97.0756 10.2 97.0756 10.1 97.0756 9.99995C97.0756 9.79995 96.9763 9.59995 96.7778 9.49995C96.5793 9.39995 96.2815 9.39995 95.9837 9.39995C95.8844 9.39995 95.7852 9.39995 95.6859 9.39995C95.5867 9.39995 95.4874 9.39995 95.3881 9.39995L95.2889 10.6ZM95.2889 12.7C95.3881 12.7 95.4874 12.7 95.5867 12.7C95.6859 12.7 95.7852 12.7 95.8844 12.7C95.9837 12.7 96.1822 12.7 96.2815 12.7C96.3807 12.7 96.5793 12.6 96.6785 12.6C96.7778 12.5 96.877 12.5 96.9763 12.4C97.0756 12.3 97.0756 12.2 97.0756 12C97.0756 11.7 96.9763 11.5 96.6785 11.4C96.48 11.3 96.083 11.2 95.6859 11.2H95.2889V12.7Z" fill="white"/>
</svg>
