<svg width="134" height="40" viewBox="0 0 134 40" fill="none" xmlns="http://www.w3.org/2000/svg">
<path d="M123.995 0H9.41701C9.05478 0 8.6971 0 8.33581 0.00203705C8.03351 0.00391769 7.73341 0.00971985 7.42828 0.0144234C6.77097 0.0308876 6.10534 0.0713387 5.44897 0.188931C4.78789 0.304642 4.17339 0.502354 3.57161 0.807781C2.98034 1.11054 2.44022 1.50377 1.97288 1.97132C1.50037 2.43887 1.10864 2.98074 0.809165 3.57153C0.502 4.17219 0.307159 4.78916 0.191854 5.45034C0.0727849 6.104 0.0318414 6.76518 0.0148987 7.42652C0.00579985 7.72929 0.00470631 8.03283 0 8.33559V9.41337V30.5877V31.6674C0.00470631 31.9739 0.00579985 32.2707 0.0148987 32.5774C0.0318414 33.2386 0.0727849 33.8999 0.191854 34.5536C0.307159 35.2148 0.502 35.8347 0.809165 36.4333C1.10864 37.0213 1.50037 37.5632 1.97288 38.0268C2.44022 38.4981 2.98034 38.8906 3.57161 39.1903C4.17339 39.4987 4.78789 39.6935 5.44897 39.813C6.10534 39.9307 6.77097 39.9693 7.42828 39.9875C7.73341 39.9942 8.03351 39.998 8.33581 39.998C8.6971 40 9.05478 40 9.41701 40H123.995C124.35 40 124.711 40 125.066 39.998C125.367 39.998 125.676 39.9942 125.977 39.9875C126.638 39.9693 127.302 39.9307 127.952 39.813C128.613 39.6935 129.229 39.4987 129.836 39.1903C130.427 38.8906 130.967 38.4981 131.434 38.0268C131.904 37.5632 132.296 37.0213 132.601 36.4333C132.904 35.8347 133.1 35.2148 133.212 34.5536C133.334 33.8999 133.372 33.2386 133.396 32.5774C133.399 32.2707 133.399 31.9739 133.399 31.6674C133.407 31.3088 133.407 30.9521 133.407 30.5877V9.41337C133.407 9.05181 133.407 8.69323 133.399 8.33559C133.399 8.03283 133.399 7.72929 133.396 7.42652C133.372 6.76518 133.334 6.104 133.212 5.45034C133.1 4.78916 132.904 4.17219 132.601 3.57153C132.296 2.98074 131.904 2.43887 131.434 1.97132C130.967 1.50377 130.427 1.11054 129.836 0.807781C129.229 0.502354 128.613 0.304642 127.952 0.188931C127.302 0.0713387 126.638 0.0308876 125.977 0.0144234C125.676 0.00971985 125.367 0.00391769 125.066 0.00203705C124.711 0 124.35 0 123.995 0Z" fill="#C0C1C1"/>
<path d="M8.3406 39.1364C8.03971 39.1364 7.74603 39.1326 7.4475 39.1259C6.89529 39.1104 6.24033 39.0796 5.60137 38.9649C4.99849 38.8559 4.46276 38.6784 3.96499 38.4239C3.44996 38.1629 2.98717 37.8255 2.58525 37.4205C2.17643 37.0196 1.84024 36.5588 1.57748 36.042C1.3213 35.5437 1.14622 35.0087 1.04111 34.4062C0.920632 33.742 0.889727 33.0681 0.876707 32.5553C0.870432 32.3471 0.862274 31.6539 0.862274 31.6539V8.33574C0.862274 8.33574 0.870902 7.65324 0.876707 7.4527C0.889727 6.93561 0.920632 6.2622 1.04017 5.60477C1.14575 4.99878 1.32083 4.46428 1.57701 3.96396C1.8393 3.4464 2.17596 2.98324 2.57961 2.58405C2.98796 2.1753 3.45294 1.83695 3.96452 1.5748C4.47186 1.31735 5.00681 1.14143 5.5976 1.03779C6.26261 0.918785 6.93671 0.888996 7.44985 0.875984L8.34107 0.863907H125.061L125.963 0.876297C126.469 0.888996 127.144 0.918789 127.798 1.03685C128.394 1.14096 128.932 1.31782 129.449 1.57777C129.955 1.83695 130.419 2.1753 130.823 2.58029C131.227 2.9812 131.566 3.44687 131.834 3.96647C132.089 4.47102 132.262 5.00552 132.362 5.59411C132.477 6.21688 132.513 6.85643 132.534 7.45709C132.537 7.73649 132.537 8.0369 132.537 8.33574C132.545 8.70592 132.545 9.05824 132.545 9.41352V30.5879C132.545 30.9465 132.545 31.2963 132.537 31.649C132.537 31.9701 132.537 32.2641 132.533 32.5669C132.513 33.1483 132.477 33.7873 132.364 34.3965C132.262 35.0018 132.089 35.5368 131.831 36.045C131.565 36.5578 131.226 37.0214 130.828 37.4128C130.42 37.8255 129.957 38.1618 129.446 38.4221C128.934 38.6823 128.411 38.8548 127.798 38.9649C127.166 39.0796 126.511 39.1104 125.952 39.1259C125.663 39.1326 125.36 39.1364 125.066 39.1364L123.995 39.1384L8.3406 39.1364Z" fill="black"/>
<path d="M45.4318 25.4629H48.888L47.6504 22.1519C47.4803 21.6946 47.3129 21.1895 47.1476 20.6365C46.9984 21.1257 46.8363 21.6256 46.661 22.1362L45.4318 25.4629ZM49.4783 27.0344H44.8489L43.7156 30.1299H41.6801L46.2139 18.5701H48.1376L52.7749 30.1299H50.6359L49.4783 27.0344Z" fill="white"/>
<path d="M58.8778 28.0277C59.2796 27.488 59.4805 26.6993 59.4805 25.6623C59.4805 24.6996 59.3144 24.0018 58.9815 23.5681C58.6486 23.1346 58.2061 22.918 57.6526 22.918C57.2692 22.918 56.9153 23.0082 56.5909 23.1891C56.2666 23.3699 55.9574 23.612 55.6651 23.9152V28.5264C55.8615 28.6222 56.0906 28.698 56.3513 28.7538C56.612 28.8094 56.8699 28.8373 57.126 28.8373C57.8923 28.8373 58.4759 28.5673 58.8778 28.0277ZM53.6935 23.628C53.6935 22.9895 53.6718 22.2879 53.6298 21.5217H55.4814C55.5503 21.8782 55.5981 22.2426 55.6251 22.615C56.3913 21.7797 57.2692 21.3622 58.2593 21.3622C58.8337 21.3622 59.3663 21.5072 59.8555 21.797C60.3452 22.0869 60.7406 22.5443 61.0413 23.1691C61.3419 23.794 61.4923 24.5882 61.4923 25.5504C61.4923 26.5557 61.3202 27.4148 60.9768 28.1274C60.6341 28.84 60.1535 29.3797 59.5364 29.7469C58.9192 30.1138 58.2061 30.2975 57.3972 30.2975C56.8116 30.2975 56.2344 30.1987 55.6651 30.0021V33.5602L53.6935 33.7278V23.628Z" fill="white"/>
<path d="M67.9385 28.0277C68.3404 27.488 68.5412 26.6993 68.5412 25.6623C68.5412 24.6996 68.3751 24.0018 68.0422 23.5681C67.7093 23.1346 67.2668 22.918 66.7133 22.918C66.3299 22.918 65.976 23.0082 65.6515 23.1891C65.3273 23.3699 65.0181 23.612 64.7258 23.9152V28.5264C64.9221 28.6222 65.1513 28.698 65.412 28.7538C65.6726 28.8094 65.9306 28.8373 66.1867 28.8373C66.953 28.8373 67.5366 28.5673 67.9385 28.0277ZM62.7542 23.628C62.7542 22.9895 62.7325 22.2879 62.6905 21.5217H64.542C64.611 21.8782 64.6588 22.2426 64.6858 22.615C65.452 21.7797 66.3299 21.3622 67.3201 21.3622C67.8946 21.3622 68.4269 21.5072 68.916 21.797C69.4059 22.0869 69.8011 22.5443 70.1018 23.1691C70.4026 23.794 70.5529 24.5882 70.5529 25.5504C70.5529 26.5557 70.3809 27.4148 70.0375 28.1274C69.6947 28.84 69.2142 29.3797 68.5969 29.7469C67.9799 30.1138 67.2668 30.2975 66.4579 30.2975C65.8723 30.2975 65.2951 30.1987 64.7258 30.0021V33.5602L62.7542 33.7278V23.628Z" fill="white"/>
<path d="M74.2725 29.583C73.4208 29.1125 72.7663 28.4383 72.3085 27.5611C71.8509 26.6832 71.6225 25.6462 71.6225 24.4496C71.6225 23.1518 71.8857 22.0494 72.4125 21.1425C72.9396 20.236 73.6566 19.5552 74.5639 19.1005C75.4707 18.6457 76.4883 18.4183 77.6169 18.4183C78.2822 18.4183 78.9165 18.4914 79.5205 18.6378C80.1246 18.7841 80.6872 18.9846 81.2092 19.2399L80.7063 20.7557C79.6576 20.2561 78.657 20.006 77.7051 20.006C76.9014 20.006 76.1975 20.1774 75.5935 20.5204C74.9894 20.8633 74.52 21.3674 74.1845 22.0323C73.8497 22.6971 73.6815 23.4999 73.6815 24.4416C73.6815 25.2658 73.8109 25.9972 74.0688 26.6354C74.3271 27.2735 74.734 27.7792 75.2901 28.1512C75.8463 28.5236 76.5475 28.7097 77.3932 28.7097C77.7766 28.7097 78.16 28.6779 78.5428 28.6138C78.9262 28.5501 79.2853 28.457 79.6202 28.3345V25.9972H76.9467V24.4656H81.5362V29.332C80.8764 29.6404 80.183 29.877 79.4568 30.0421C78.7306 30.2069 78.0083 30.2891 77.2894 30.2891C76.1293 30.2891 75.1241 30.0539 74.2725 29.583Z" fill="white"/>
<path d="M87.459 28.5341C87.8687 28.3377 88.2043 28.0929 88.4649 27.8002V26.2047C87.9271 26.1464 87.4885 26.117 87.1479 26.117C86.3337 26.117 85.771 26.2486 85.4597 26.5118C85.1485 26.7751 84.9929 27.1302 84.9929 27.5767C84.9929 28.0023 85.1058 28.3176 85.3317 28.5224C85.5582 28.727 85.8656 28.8295 86.2535 28.8295C86.6474 28.8295 87.0494 28.731 87.459 28.5341ZM88.6401 30.1298C88.5712 29.7947 88.526 29.4145 88.5049 28.9888C88.2015 29.3508 87.8063 29.658 87.319 29.9101C86.8327 30.1628 86.2832 30.2891 85.6712 30.2891C85.1761 30.2891 84.7251 30.192 84.318 29.9982C83.9109 29.804 83.5879 29.5115 83.3482 29.1205C83.1086 28.7296 82.9891 28.2524 82.9891 27.6885C82.9891 26.8536 83.2898 26.1876 83.8913 25.6901C84.4926 25.1926 85.4952 24.9441 86.9002 24.9441C87.4276 24.9441 87.9487 24.9814 88.4649 25.0559V24.8883C88.4649 24.1277 88.3026 23.5919 87.9778 23.2809C87.6533 22.9699 87.1877 22.8141 86.5811 22.8141C86.161 22.8141 85.7112 22.8752 85.2319 22.9977C84.7533 23.1201 84.3324 23.2661 83.9707 23.4364L83.6594 22.0002C84.0108 21.8409 84.4736 21.6945 85.0487 21.5615C85.6232 21.4288 86.2298 21.3622 86.8686 21.3622C87.6132 21.3622 88.2468 21.4753 88.7683 21.7014C89.2896 21.9274 89.6967 22.3157 89.9894 22.8658C90.2823 23.4163 90.4288 24.1573 90.4288 25.0879V28.5103C90.4288 28.8665 90.4497 29.4065 90.4923 30.1298H88.6401Z" fill="white"/>
<path d="M92.1535 28.0633V17.8917L94.1166 17.7322V27.7127C94.1166 28.0794 94.1791 28.3386 94.3044 28.4902C94.4291 28.6417 94.6276 28.7176 94.8993 28.7176C95.0213 28.7176 95.1949 28.6882 95.4181 28.6299L95.6498 30.0421C95.4633 30.1166 95.2355 30.1763 94.9669 30.2216C94.6985 30.2666 94.4444 30.2891 94.2046 30.2891C92.837 30.2891 92.1535 29.5473 92.1535 28.0633Z" fill="white"/>
<path d="M97.0626 28.0633V17.8917L99.026 17.7322V27.7127C99.026 28.0794 99.0882 28.3386 99.2136 28.4902C99.3385 28.6417 99.5367 28.7176 99.8085 28.7176C99.9305 28.7176 100.104 28.6882 100.327 28.6299L100.559 30.0421C100.373 30.1166 100.145 30.1763 99.8762 30.2216C99.6077 30.2666 99.3535 30.2891 99.1138 30.2891C97.7462 30.2891 97.0626 29.5473 97.0626 28.0633Z" fill="white"/>
<path d="M106.809 24.8247C106.772 24.1386 106.599 23.6238 106.29 23.2809C105.982 22.9379 105.569 22.7665 105.053 22.7665C104.553 22.7665 104.137 22.9391 103.804 23.285C103.472 23.6307 103.254 24.1439 103.153 24.8247H106.809ZM108.733 26.077H103.097C103.188 27.8799 104.047 28.7816 105.675 28.7816C106.08 28.7816 106.494 28.7325 106.917 28.6341C107.34 28.5356 107.746 28.4041 108.134 28.239L108.565 29.5875C107.602 30.0554 106.519 30.2893 105.316 30.2893C104.401 30.2893 103.63 30.1167 103.001 29.771C102.374 29.4251 101.902 28.9281 101.584 28.2789C101.268 27.6305 101.11 26.8484 101.11 25.9334C101.11 24.9815 101.277 24.1626 101.613 23.4765C101.948 22.79 102.415 22.2665 103.014 21.905C103.612 21.5429 104.303 21.3623 105.085 21.3623C105.899 21.3623 106.579 21.5525 107.125 21.9329C107.67 22.3131 108.074 22.8197 108.338 23.4526C108.601 24.0854 108.733 24.7847 108.733 25.5505V26.077Z" fill="white"/>
<path d="M110.322 23.6837C110.322 23.2102 110.3 22.4899 110.258 21.5215H112.102C112.134 21.761 112.164 22.0469 112.194 22.3792C112.222 22.7119 112.243 22.9816 112.253 23.189C112.482 22.8115 112.707 22.4936 112.927 22.2359C113.148 21.978 113.407 21.7675 113.702 21.6056C113.997 21.4432 114.334 21.3621 114.711 21.3621C115.015 21.3621 115.275 21.3939 115.494 21.4579L115.247 23.165C115.055 23.1065 114.842 23.0774 114.608 23.0774C114.145 23.0774 113.74 23.1959 113.394 23.4323C113.048 23.6689 112.679 24.0589 112.285 24.6012V30.1296H110.322V23.6837Z" fill="white"/>
<path d="M116.677 33.6521C116.389 33.6016 116.153 33.5443 115.966 33.4804L116.325 32.0446C116.458 32.0816 116.626 32.1174 116.828 32.1524C117.03 32.1867 117.222 32.2041 117.403 32.2041C118.275 32.2041 118.93 31.6428 119.366 30.5205L119.494 30.2016L116.317 21.5217H118.432L120.029 26.3723C120.29 27.202 120.457 27.8376 120.532 28.2789C120.681 27.6566 120.856 27.0344 121.058 26.412L122.679 21.5217H124.666L121.498 30.2414C121.2 31.066 120.878 31.7306 120.532 32.2359C120.186 32.7411 119.778 33.1161 119.307 33.3607C118.835 33.6053 118.267 33.7278 117.602 33.7278C117.272 33.7278 116.964 33.7025 116.677 33.6521Z" fill="white"/>
<path fill-rule="evenodd" clip-rule="evenodd" d="M27.0379 7.27703H15.904C10.6591 7.27703 8.74066 9.19442 8.74066 14.4362V25.5641C8.74066 30.8058 10.6591 32.7231 15.9038 32.7231H27.0344C32.2793 32.7231 34.2012 30.8058 34.2012 25.5641V14.4362C34.2012 9.19442 32.2827 7.27703 27.0379 7.27703Z" fill="#C8102E"/>
<path d="M19.8485 22.0347H20.8696L20.3574 20.8442L19.8485 22.0347ZM19.5971 22.6345L19.2942 23.3272H18.6047L20.0711 20.0023H20.667L22.1276 23.3272H21.4194L21.1206 22.6345H19.5971ZM30.6934 23.325H31.3598V20.0024H30.6934V23.325ZM28.0407 21.8974H29.2691V21.2917H28.0407V20.6108H29.8239V20.0043H27.3745V23.327H29.8883V22.721H28.0407V21.8974ZM25.3926 22.29L24.637 20.0021H24.0857L23.33 22.29L22.5946 20.0037H21.8758L23.036 23.329H23.5951L24.3521 21.1448L25.1087 23.329H25.6727L26.83 20.0037H26.1298L25.3926 22.29ZM17.5871 21.9066C17.5871 22.4474 17.3185 22.7365 16.8305 22.7365C16.3399 22.7365 16.0696 22.4393 16.0696 21.8834V20.0042H15.3941V21.9066C15.3941 22.8422 15.9145 23.3789 16.8214 23.3789C17.7372 23.3789 18.2623 22.8322 18.2623 21.8789V20.0023H17.5871V21.9066ZM13.7827 20.0023H14.4578V23.3292H13.7827V21.9781H12.2577V23.3292H11.5821V20.0023H12.2577V21.3444H13.7827V20.0023Z" fill="white"/>
<path d="M21.4709 15.7664C19.1341 15.7664 17.2329 13.8662 17.2329 11.5307H17.8317C17.8317 13.5362 19.4643 15.1679 21.4709 15.1679C23.4777 15.1679 25.1102 13.5362 25.1102 11.5307H25.709C25.709 13.8662 23.8078 15.7664 21.4709 15.7664Z" fill="white"/>
<path d="M45.3211 13.4801C45.5969 13.2951 45.803 13.0405 45.9395 12.7162C46.0762 12.3921 46.1444 12.0213 46.1444 11.6041C46.1444 11.1946 46.084 10.8297 45.9632 10.5096C45.8424 10.1892 45.6495 9.93399 45.3842 9.74365C45.1189 9.55346 44.7775 9.45829 44.3599 9.45829C43.9607 9.45829 43.6218 9.55472 43.3435 9.74757C43.0651 9.94058 42.8564 10.1991 42.7171 10.5234C42.578 10.8475 42.5083 11.2051 42.5083 11.5961C42.5083 12.0083 42.574 12.3771 42.7053 12.7026C42.8366 13.0281 43.0375 13.2852 43.3081 13.4742C43.5785 13.6632 43.9135 13.7578 44.3125 13.7578C44.7091 13.7578 45.0453 13.6653 45.3211 13.4801ZM42.7684 14.1791C42.3508 13.9401 42.0317 13.6048 41.811 13.1731C41.5904 12.7413 41.4801 12.2393 41.4801 11.6672C41.4801 11.066 41.5976 10.5403 41.8328 10.0902C42.0678 9.64001 42.4065 9.29225 42.849 9.04687C43.2916 8.80134 43.8137 8.67857 44.415 8.67857C44.9903 8.67857 45.4852 8.79742 45.9001 9.03496C46.3151 9.27249 46.6317 9.60646 46.8496 10.037C47.0676 10.4675 47.1767 10.9661 47.1767 11.5333C47.1767 12.1447 47.0577 12.6763 46.8201 13.1278C46.5824 13.5792 46.2435 13.9271 45.8037 14.1711C45.3638 14.4152 44.847 14.5374 44.2536 14.5374C43.681 14.5374 43.186 14.4179 42.7684 14.1791Z" fill="white"/>
<path d="M49.1739 9.58028H47.4051L47.4917 8.75745H51.9314L51.8408 9.58028H50.1587V14.4585H49.1739V9.58028Z" fill="white"/>
<path d="M57.234 14.4585H56.123L54.4251 11.9466H53.7515V14.4585H52.7666V8.75745H53.7515V11.1118H54.2676L55.4495 9.40311C55.6227 9.14848 55.7967 8.9641 55.9715 8.84996C56.1461 8.73566 56.366 8.67858 56.6313 8.67858C56.8519 8.67858 57.0489 8.71543 57.2223 8.78881L57.0174 9.55661C56.9098 9.51208 56.8072 9.48982 56.71 9.48982C56.5944 9.48982 56.4954 9.51867 56.4126 9.57636C56.3299 9.63406 56.2438 9.7272 56.1545 9.85592L55.1107 11.352L57.234 14.4585Z" fill="white"/>
<path d="M60.4564 11.3028C60.6664 11.1126 60.7715 10.8442 60.7715 10.4977C60.7715 10.146 60.6646 9.89261 60.4504 9.73786C60.2364 9.58295 59.9219 9.50549 59.507 9.50549H58.9712V11.5292C59.2182 11.5685 59.4072 11.5883 59.5385 11.5883C59.9403 11.5883 60.2463 11.4931 60.4564 11.3028ZM57.9864 8.75745H59.5228C60.2449 8.75745 60.7979 8.90436 61.1813 9.19834C61.5647 9.49232 61.7564 9.91754 61.7564 10.474C61.7564 10.852 61.6705 11.1821 61.4984 11.4643C61.3264 11.7465 61.0867 11.9629 60.7795 12.1139C60.4722 12.2648 60.1189 12.3403 59.7197 12.3403C59.5018 12.3403 59.2522 12.3141 58.9712 12.2616V14.4585H57.9864V8.75745Z" fill="white"/>
<path d="M66.2041 13.4801C66.4799 13.2951 66.686 13.0405 66.8225 12.7162C66.9592 12.3921 67.0276 12.0213 67.0276 11.6041C67.0276 11.1946 66.967 10.8297 66.8462 10.5096C66.7254 10.1892 66.5323 9.93399 66.2672 9.74365C66.0019 9.55346 65.6605 9.45829 65.2429 9.45829C64.8437 9.45829 64.5048 9.55472 64.2265 9.74757C63.9481 9.94058 63.7394 10.1991 63.6001 10.5234C63.461 10.8475 63.3913 11.2051 63.3913 11.5961C63.3913 12.0083 63.457 12.3771 63.5883 12.7026C63.7196 13.0281 63.9204 13.2852 64.1911 13.4742C64.4615 13.6632 64.7964 13.7578 65.1955 13.7578C65.5921 13.7578 65.9283 13.6653 66.2041 13.4801ZM63.6514 14.1791C63.2338 13.9401 62.9147 13.6048 62.694 13.1731C62.4734 12.7413 62.3631 12.2393 62.3631 11.6672C62.3631 11.066 62.4806 10.5403 62.7158 10.0902C62.9508 9.64001 63.2895 9.29225 63.732 9.04687C64.1746 8.80134 64.6967 8.67857 65.298 8.67857C65.8733 8.67857 66.3682 8.79742 66.7831 9.03496C67.1981 9.27249 67.5147 9.60646 67.7327 10.037C67.9505 10.4675 68.0596 10.9661 68.0596 11.5333C68.0596 12.1447 67.9407 12.6763 67.7031 13.1278C67.4654 13.5792 67.1265 13.9271 66.6867 14.1711C66.2468 14.4152 65.73 14.5374 65.1366 14.5374C64.564 14.5374 64.0689 14.4179 63.6514 14.1791Z" fill="white"/>
<path d="M70.8526 8.26136C70.6452 8.15114 70.4869 8.0094 70.378 7.83615C70.2688 7.6629 70.2 7.47647 70.1711 7.27703H70.8802C70.9563 7.69692 71.2032 7.90702 71.6208 7.90702C72.0384 7.90702 72.2866 7.69692 72.3655 7.27703H73.0783C73.0495 7.47647 72.9804 7.6629 72.8716 7.83615C72.7625 8.0094 72.6036 8.15114 72.3948 8.26136C72.1862 8.37159 71.928 8.42678 71.6208 8.42678C71.3161 8.42678 71.0601 8.37159 70.8526 8.26136ZM73.0744 14.4585V11.3246C73.0744 10.9307 73.0888 10.4793 73.1177 9.97006L70.2539 14.4585H69.1586V8.75745H70.0726V12.0135C70.0726 12.3679 70.0608 12.7551 70.0371 13.175L72.8578 8.75745H73.9884V14.4585H73.0744Z" fill="white"/>
<path d="M76.5924 9.58028H74.8236L74.9102 8.75745H79.35L79.2594 9.58028H77.5772V14.4585H76.5924V9.58028Z" fill="white"/>
<path d="M80.185 8.75745H83.5455L83.4509 9.56852H81.1699V11.1394H83.3208V11.8994H81.1699V13.6396H83.5731L83.4903 14.4585H80.185V8.75745Z" fill="white"/>
<path d="M89.8151 13.484C90.0159 13.32 90.1164 13.0883 90.1164 12.7892C90.1164 12.4715 90.0055 12.23 89.7836 12.0646C89.5617 11.8994 89.242 11.8166 88.8244 11.8166H88.1625V13.73H88.9032C89.3101 13.73 89.6143 13.648 89.8151 13.484ZM88.1625 11.0883H88.777C88.9818 11.0883 89.1625 11.0475 89.3187 10.9662C89.475 10.8848 89.5951 10.7752 89.6792 10.6374C89.7632 10.4995 89.8054 10.3481 89.8054 10.1827C89.8054 9.94905 89.7205 9.77454 89.5511 9.65899C89.3816 9.54344 89.1369 9.48574 88.8164 9.48574H88.1625V11.0883ZM90.4415 11.6414C90.645 11.7661 90.8053 11.9301 90.9222 12.1336C91.039 12.337 91.0974 12.5751 91.0974 12.8481C91.0974 13.1658 91.0179 13.4459 90.8589 13.6888C90.7002 13.9315 90.4677 14.1206 90.1618 14.2558C89.8559 14.3909 89.4888 14.4585 89.0607 14.4585H87.2014V8.75745H88.9818C89.5859 8.75745 90.0389 8.87426 90.3411 9.10772C90.6429 9.34133 90.794 9.66166 90.794 10.0685C90.794 10.407 90.6975 10.6899 90.5046 10.9169C90.3114 11.144 90.0587 11.3034 89.7462 11.3953C90.0062 11.4346 90.2379 11.5168 90.4415 11.6414Z" fill="white"/>
</svg>
