<svg width="135" height="40" viewBox="0 0 135 40" fill="none" xmlns="http://www.w3.org/2000/svg">
<g clip-path="url(#clip0)">
<path d="M129.954 39.9946H4.99865C2.19703 39.9946 0 37.7921 0 34.9959V5.00402C0 2.2078 2.19703 0.00537109 4.99865 0.00537109H129.954C132.756 0.00537109 134.953 2.2024 134.953 5.00402V34.9959C134.953 37.7921 132.756 39.9946 129.954 39.9946Z" fill="black"/>
<path d="M129.954 0.804291C132.254 0.804291 134.154 2.70443 134.154 5.00402V34.9959C134.154 37.2955 132.254 39.1957 129.954 39.1957H4.99865C2.69906 39.1957 0.79892 37.2955 0.79892 34.9959V5.00402C0.79892 2.70443 2.69906 0.804291 4.99865 0.804291H129.954ZM129.954 0.00537109H4.99865C2.19703 0.00537109 0 2.30497 0 5.00402V34.9959C0 37.7975 2.19703 39.9946 4.99865 39.9946H129.954C132.756 39.9946 134.953 37.7975 134.953 34.9959V5.00402C134.953 2.30497 132.756 0.00537109 129.954 0.00537109Z" fill="#A6A6A6"/>
<path d="M10.3966 7.50342C10.0943 7.80571 9.99712 8.30234 9.99712 8.90153V30.996C9.99712 31.5952 10.1968 32.0972 10.4991 32.3941L10.6017 32.4967L22.9958 20.1026V19.9029L10.3966 7.50342Z" fill="url(#paint0_linear)"/>
<path d="M26.9905 24.2967L22.8933 20.1995V19.8972L26.9905 15.8L27.093 15.9026L31.9891 18.7042C33.3872 19.5032 33.3872 20.8041 31.9891 21.603L26.9905 24.2967Z" fill="url(#paint1_linear)"/>
<path d="M27.093 24.1997L22.8933 20L10.3967 32.4967C10.8987 32.9987 11.5951 32.9987 12.4965 32.5992L27.093 24.1997Z" fill="url(#paint2_linear)"/>
<path d="M27.093 15.8001L12.4965 7.50321C11.5951 7.00119 10.8987 7.10375 10.3967 7.60577L22.8933 19.9998L27.093 15.8001Z" fill="url(#paint3_linear)"/>
<path opacity="0.2" d="M26.9905 24.0969L12.4965 32.2967C11.6976 32.7987 10.9959 32.6961 10.4992 32.2967L10.3967 32.3992L10.4992 32.5018C11.0013 32.9013 11.6976 33.0038 12.4965 32.5018L26.9905 24.0969Z" fill="black"/>
<path opacity="0.12" d="M10.3966 32.2969C10.0943 31.9946 9.99712 31.498 9.99712 30.8988V31.0013C9.99712 31.6005 10.1968 32.1026 10.4991 32.3995V32.2969H10.3966ZM31.989 21.3009L26.9904 24.0972L27.0929 24.1997L31.989 21.3981C32.6908 20.9987 32.9877 20.4966 32.9877 20C32.9877 20.502 32.5882 20.9015 31.989 21.3009Z" fill="black"/>
<path opacity="0.25" d="M12.4964 7.60578L31.989 18.7043C32.5882 19.1038 32.9877 19.5032 32.9877 20.0052C32.9877 19.5032 32.6854 19.0066 31.989 18.6071L12.4964 7.50321C11.0983 6.70429 9.99712 7.30348 9.99712 8.90132V9.00389C9.99712 7.50321 11.0983 6.80686 12.4964 7.60578Z" fill="white"/>
<path d="M67.8328 21.7055C65.4253 21.7055 63.5143 23.5139 63.5143 26.024C63.5143 28.4315 65.4199 30.3425 67.8328 30.3425C70.2404 30.3425 72.1513 28.5341 72.1513 26.024C72.1513 23.4113 70.2458 21.7055 67.8328 21.7055ZM67.8328 28.5341C66.5265 28.5341 65.4253 27.4275 65.4253 25.9214C65.4253 24.4153 66.5319 23.3087 67.8328 23.3087C69.1392 23.3087 70.2404 24.3128 70.2404 25.9214C70.2458 27.4275 69.1392 28.5341 67.8328 28.5341ZM58.4941 21.7055C56.0865 21.7055 54.1756 23.5139 54.1756 26.024C54.1756 28.4315 56.0811 30.3425 58.4941 30.3425C60.9016 30.3425 62.8126 28.5341 62.8126 26.024C62.8126 23.4113 60.907 21.7055 58.4941 21.7055ZM58.4941 28.5341C57.1877 28.5341 56.0865 27.4275 56.0865 25.9214C56.0865 24.4153 57.1931 23.3087 58.4941 23.3087C59.795 23.3087 60.9016 24.3128 60.9016 25.9214C60.907 27.4275 59.8004 28.5341 58.4941 28.5341ZM47.347 23.0118V24.8202H51.6654C51.5629 25.8243 51.1634 26.6286 50.6614 27.1306C50.0568 27.7352 49.0528 28.4369 47.347 28.4369C44.6371 28.4369 42.629 26.3263 42.629 23.6164C42.629 20.9066 44.7397 18.7959 47.347 18.7959C48.7505 18.7959 49.8571 19.4005 50.6614 20.1023L51.9677 18.7959C50.8611 17.7919 49.4576 16.9875 47.4495 16.9875C43.8328 16.9875 40.7235 19.9997 40.7235 23.611C40.7235 27.2224 43.8328 30.2399 47.4495 30.2399C49.4576 30.2399 50.8665 29.6353 52.0703 28.3344C53.2741 27.1306 53.6789 25.4248 53.6789 24.1185C53.6789 23.719 53.6789 23.3141 53.5764 23.0118H47.347ZM92.9395 24.4153C92.54 23.4113 91.5359 21.7055 89.3227 21.7055C87.1149 21.7055 85.3065 23.4113 85.3065 26.024C85.3065 28.4315 87.1149 30.3425 89.5225 30.3425C91.428 30.3425 92.6372 29.1387 93.0366 28.4369L91.6331 27.4329C91.1311 28.1346 90.5265 28.6367 89.5225 28.6367C88.5184 28.6367 87.9138 28.2372 87.4118 27.3303L93.1338 24.9228L92.9395 24.4153ZM87.1149 25.8189C87.1149 24.2102 88.4212 23.3087 89.3227 23.3087C90.0245 23.3087 90.7262 23.7082 90.9314 24.2102L87.1149 25.8189ZM82.3969 29.9376H84.3025V17.387H82.3969V29.9376ZM79.3794 22.607C78.8774 22.105 78.073 21.6029 77.069 21.6029C74.9583 21.6029 72.9502 23.5085 72.9502 25.9214C72.9502 28.3344 74.8558 30.1373 77.069 30.1373C78.073 30.1373 78.8774 29.6353 79.2768 29.1333H79.3794V29.7379C79.3794 31.3465 78.4779 32.248 77.069 32.248C75.9624 32.248 75.1635 31.4437 74.9583 30.7419L73.3497 31.4437C73.8517 32.5503 75.0555 33.9538 77.1662 33.9538C79.374 33.9538 81.1824 32.6475 81.1824 29.5382V21.9052H79.374C79.3794 21.9052 79.3794 22.607 79.3794 22.607ZM77.1716 28.5341C75.8652 28.5341 74.764 27.4275 74.764 25.9214C74.764 24.4153 75.8706 23.3087 77.1716 23.3087C78.4725 23.3087 79.482 24.4153 79.482 25.9214C79.482 27.4275 78.4779 28.5341 77.1716 28.5341ZM101.674 17.387H97.1554V29.9376H99.0609V25.2197H101.674C103.784 25.2197 105.792 23.7136 105.792 21.306C105.792 18.8985 103.784 17.387 101.674 17.387ZM101.776 23.4113H99.0663V19.0928H101.776C103.18 19.0928 103.984 20.2966 103.984 21.2035C103.887 22.3047 103.083 23.4113 101.776 23.4113ZM113.323 21.6029C111.919 21.6029 110.51 22.2075 110.008 23.5085L111.714 24.2102C112.114 23.5085 112.718 23.3087 113.42 23.3087C114.424 23.3087 115.325 23.9133 115.428 24.9174V25.0199C115.126 24.8202 114.321 24.5179 113.522 24.5179C111.714 24.5179 109.906 25.522 109.906 27.3303C109.906 29.0361 111.412 30.1427 113.02 30.1427C114.327 30.1427 114.926 29.5382 115.428 28.939H115.531V29.943H117.339V25.1225C117.139 22.9093 115.433 21.6029 113.323 21.6029ZM113.123 28.5341C112.518 28.5341 111.617 28.2318 111.617 27.4275C111.617 26.4234 112.724 26.1212 113.625 26.1212C114.429 26.1212 114.829 26.3209 115.331 26.5206C115.131 27.7298 114.127 28.5341 113.123 28.5341ZM123.666 21.9052L121.555 27.3249H121.452L119.244 21.9052H117.236L120.551 29.5328L118.645 33.7487H120.551L125.674 21.8998H123.666V21.9052ZM106.796 29.9376H108.702V17.387H106.796V29.9376Z" fill="white"/>
<path d="M41.7221 14.1754H41.0204V12.1673H41.6249C42.127 11.7678 42.4293 10.9635 42.4293 9.85688V6.84473H46.4455V12.1673H47.1472V14.1754H46.4455V12.869H41.8247V14.1754H41.7221ZM43.131 9.85688C43.131 10.7584 42.9313 11.5627 42.5264 12.1673H45.5386V7.55188H43.0285V9.86227H43.131V9.85688Z" fill="white" stroke="white" stroke-width="0.2" stroke-miterlimit="10"/>
<path d="M53.0691 12.0701C52.4646 12.6747 51.7628 12.9715 50.8613 12.9715C49.9598 12.9715 49.2527 12.6693 48.6535 12.0701C48.0489 11.4655 47.752 10.7637 47.752 9.86224C47.752 8.96075 48.0543 8.2536 48.6535 7.65441C49.2581 7.04983 49.9598 6.75293 50.8613 6.75293C51.7628 6.75293 52.47 7.05522 53.0691 7.65441C53.6683 8.2536 53.9706 8.96075 53.9706 9.86224C53.976 10.7637 53.6737 11.4655 53.0691 12.0701ZM49.2581 11.568C49.6576 11.9675 50.2621 12.2698 50.8667 12.2698C51.4713 12.2698 52.0705 12.0701 52.4754 11.568C52.8748 11.1686 53.1771 10.564 53.1771 9.86224C53.1771 9.16048 52.9774 8.5559 52.4754 8.15644C52.0759 7.75698 51.4713 7.45468 50.8667 7.45468C50.2621 7.45468 49.663 7.65441 49.2581 8.15644C48.8586 8.5559 48.5563 9.16048 48.5563 9.86224C48.5563 10.564 48.7561 11.1632 49.2581 11.568Z" fill="white" stroke="white" stroke-width="0.2" stroke-miterlimit="10"/>
<path d="M57.8895 12.9715C56.988 12.9715 56.2809 12.6693 55.6817 12.0701C55.0771 11.4655 54.7803 10.7637 54.7803 9.86224C54.7803 8.96075 55.0825 8.2536 55.6817 7.65441C56.2863 7.04983 56.988 6.75293 57.8895 6.75293C58.791 6.75293 59.4981 7.05522 60.0973 7.75698L59.5953 8.259C59.1958 7.75698 58.5912 7.45468 57.8895 7.45468C57.1878 7.45468 56.6858 7.65441 56.1837 8.15644C55.6817 8.5559 55.482 9.16048 55.482 9.86224C55.482 10.564 55.6817 11.1686 56.1837 11.568C56.5832 11.9675 57.1878 12.2698 57.8895 12.2698C58.5912 12.2698 59.1958 11.9675 59.6978 11.3683L60.1998 11.8703C59.8976 12.1726 59.5953 12.4749 59.1958 12.6747C58.7964 12.869 58.3915 12.9715 57.8895 12.9715Z" fill="white" stroke="white" stroke-width="0.2" stroke-miterlimit="10"/>
<path d="M63.4172 12.869H62.6129V7.54648H60.9071V6.84473H65.0259V7.54648H63.3201V12.869H63.4172Z" fill="white" stroke="white" stroke-width="0.2" stroke-miterlimit="10"/>
<path d="M70.343 6.84473L68.0326 11.9621C67.7303 12.6639 67.2283 13.0687 66.6291 13.0687C66.4294 13.0687 66.2297 13.0687 66.0245 12.9662L66.2243 12.2644C66.3268 12.367 66.5266 12.367 66.6237 12.367C66.8234 12.367 66.926 12.367 67.0232 12.2644C67.1257 12.1619 67.2229 12.0647 67.3255 11.865L67.5252 11.3629L65.5171 6.94729H66.4186L67.9247 10.3589L69.4307 6.84473H70.343Z" fill="white" stroke="white" stroke-width="0.2" stroke-miterlimit="10"/>
<path d="M71.2498 12.869V6.84473H75.5683V12.869H74.764V7.54648H71.9515V12.869H71.2498Z" fill="white" stroke="white" stroke-width="0.2" stroke-miterlimit="10"/>
<path d="M76.9718 12.869V6.84473H77.7761V9.45741H80.7882V6.84473H81.5926V12.869H80.7882V10.1592H77.7761V12.869H76.9718Z" fill="white" stroke="white" stroke-width="0.2" stroke-miterlimit="10"/>
<path d="M87.9193 12.0701C87.3147 12.6747 86.6129 12.9715 85.7114 12.9715C84.8099 12.9715 84.1028 12.6693 83.5036 12.0701C82.899 11.4655 82.6021 10.7637 82.6021 9.86224C82.6021 8.96075 82.9044 8.2536 83.5036 7.65441C84.1082 7.04983 84.8099 6.75293 85.7114 6.75293C86.6129 6.75293 87.3201 7.05522 87.9193 7.65441C88.5184 8.2536 88.8207 8.96075 88.8207 9.86224C88.7236 10.7637 88.4213 11.4655 87.9193 12.0701ZM84.0002 11.568C84.3997 11.9675 85.0043 12.2698 85.6089 12.2698C86.2135 12.2698 86.8126 12.0701 87.2175 11.568C87.617 11.1686 87.9193 10.564 87.9193 9.86224C87.9193 9.16048 87.7195 8.5559 87.2175 8.15644C86.818 7.75698 86.2135 7.45468 85.6089 7.45468C85.0043 7.45468 84.4051 7.65441 84.0002 8.15644C83.6008 8.5559 83.2985 9.16048 83.2985 9.86224C83.2985 10.564 83.6008 11.1632 84.0002 11.568Z" fill="white" stroke="white" stroke-width="0.2" stroke-miterlimit="10"/>
<path d="M91.9353 12.869V6.84473H94.1432C94.6452 6.84473 95.0447 7.04446 95.347 7.34675C95.6492 7.64904 95.849 8.0485 95.849 8.45336C95.849 8.75566 95.7464 8.95539 95.6492 9.25768C95.5467 9.45741 95.3469 9.65714 95.0447 9.7597C95.3469 9.86227 95.5467 10.062 95.7464 10.2617C95.9461 10.4615 96.0487 10.7638 96.0487 11.1632C96.0487 11.6652 95.849 12.0647 95.5467 12.367C95.1472 12.6693 94.7424 12.869 94.2403 12.869H91.9353ZM92.7397 9.45741H94.1432C94.4455 9.45741 94.6452 9.35485 94.8449 9.15512C95.0447 8.95539 95.1472 8.75566 95.1472 8.55053C95.1472 8.3454 94.9475 8.0485 94.8449 7.84877C94.6452 7.64904 94.4455 7.54648 94.1432 7.54648H92.7397V9.45741ZM92.7397 12.1673H94.3483C94.6506 12.1673 94.8503 12.0647 95.0501 11.865C95.2498 11.6652 95.3523 11.4655 95.3523 11.1632C95.3523 10.9635 95.2498 10.6612 95.0501 10.4615C94.8503 10.2617 94.6506 10.1592 94.3483 10.1592H92.8422V12.1673H92.7397Z" fill="white" stroke="white" stroke-width="0.2" stroke-miterlimit="10"/>
</g>
<defs>
<linearGradient id="paint0_linear" x1="21.7869" y1="8.70857" x2="5.00981" y2="25.4847" gradientUnits="userSpaceOnUse">
<stop stop-color="#00A0FF"/>
<stop offset="0.007" stop-color="#00A1FF"/>
<stop offset="0.26" stop-color="#00BEFF"/>
<stop offset="0.512" stop-color="#00D2FF"/>
<stop offset="0.76" stop-color="#00DFFF"/>
<stop offset="1" stop-color="#00E3FF"/>
</linearGradient>
<linearGradient id="paint1_linear" x1="33.8215" y1="20.049" x2="9.63302" y2="20.049" gradientUnits="userSpaceOnUse">
<stop stop-color="#FFE000"/>
<stop offset="0.409" stop-color="#FFBD00"/>
<stop offset="0.775" stop-color="#FFA500"/>
<stop offset="1" stop-color="#FF9C00"/>
</linearGradient>
<linearGradient id="paint2_linear" x1="24.8062" y1="22.283" x2="2.0561" y2="45.033" gradientUnits="userSpaceOnUse">
<stop stop-color="#FF3A44"/>
<stop offset="1" stop-color="#C31162"/>
</linearGradient>
<linearGradient id="paint3_linear" x1="7.25833" y1="0.217539" x2="17.4178" y2="10.377" gradientUnits="userSpaceOnUse">
<stop stop-color="#32A071"/>
<stop offset="0.069" stop-color="#2DA771"/>
<stop offset="0.476" stop-color="#15CF74"/>
<stop offset="0.801" stop-color="#06E775"/>
<stop offset="1" stop-color="#00F076"/>
</linearGradient>
<clipPath id="clip0">
<rect width="134.953" height="40" fill="white"/>
</clipPath>
</defs>
</svg>
