<svg width="19" height="18" viewBox="0 0 19 18" fill="none" xmlns="http://www.w3.org/2000/svg">
<path d="M9.5 17.1854L9.16471 16.896C1.95588 10.8204 0 8.67947 0 5.20768C0 2.31453 2.23529 0 5.02941 0C7.32059 0 8.60588 1.33085 9.5 2.37239C10.3941 1.33085 11.6794 0 13.9706 0C16.7647 0 19 2.31453 19 5.20768C19 8.67947 17.0441 10.8204 9.83529 16.896L9.5 17.1854ZM5.02941 1.15726C2.85 1.15726 1.11765 2.95102 1.11765 5.20768C1.11765 8.1587 2.90588 10.1261 9.5 15.6809C16.0941 10.1261 17.8824 8.1587 17.8824 5.20768C17.8824 2.95102 16.15 1.15726 13.9706 1.15726C12.0147 1.15726 10.9529 2.37239 10.1147 3.35606L9.5 4.10828L8.88529 3.35606C8.04706 2.37239 6.98529 1.15726 5.02941 1.15726Z" fill="black"/>
</svg>
