<svg width="104" height="62" viewBox="0 0 104 62" fill="none" xmlns="http://www.w3.org/2000/svg">
<path fill-rule="evenodd" clip-rule="evenodd" d="M7.46759 56.5932H19.4761V61.2024H2.18799V31.8071H7.46759V56.5932ZM24.178 51.3432C24.2367 52.159 24.3711 52.9821 24.6332 53.7514C24.8858 54.4927 25.2525 55.2011 25.7789 55.786C26.253 56.3127 26.8149 56.7066 27.4746 56.9658C28.197 57.2496 28.9685 57.3622 29.742 57.3622C30.4254 57.3622 31.1467 57.2981 31.8011 57.0915C32.3241 56.9263 32.8468 56.729 33.3363 56.4807C33.7077 56.2923 34.0827 56.0937 34.4338 55.8695C34.7633 55.6592 35.1413 55.489 35.5392 55.489C36.0112 55.489 36.4204 55.6772 36.7002 56.059L38.0698 57.82L37.7829 58.1547C37.2743 58.7481 36.6859 59.2571 36.0303 59.6825C35.3772 60.1063 34.6797 60.4544 33.9467 60.7172C33.2149 60.9795 32.4614 61.1719 31.6936 61.2942C30.9376 61.4147 30.1724 61.4784 29.4068 61.4784C28.022 61.4784 26.6653 61.2486 25.3758 60.7371C24.1378 60.246 23.0486 59.5201 22.1284 58.5577C21.1596 57.5446 20.4719 56.3294 19.9993 55.0152C19.4497 53.4868 19.2444 51.8499 19.2444 50.2315C19.2444 48.8394 19.454 47.4625 19.9272 46.1507C20.3708 44.9205 21.0235 43.8006 21.9013 42.83C22.7826 41.8555 23.8465 41.1149 25.0493 40.5878C26.3652 40.0112 27.7782 39.7734 29.2096 39.7734C30.4344 39.7734 31.6457 39.9635 32.7901 40.4081C33.8738 40.8292 34.8337 41.4526 35.6482 42.2813C36.4916 43.1395 37.1069 44.1659 37.5354 45.2866C38.0246 46.566 38.2086 47.9405 38.2086 49.3048C38.2086 49.7621 38.18 50.3921 37.9252 50.7871C37.6614 51.1959 37.2095 51.3432 36.7421 51.3432H24.178ZM33.6388 47.8776C33.6032 47.4028 33.5172 46.9327 33.3647 46.4798C33.1792 45.9289 32.9001 45.4253 32.5132 44.9901C32.137 44.5669 31.6827 44.2481 31.1634 44.0223C30.574 43.766 29.9276 43.6727 29.2885 43.6727C28.0063 43.6727 26.7827 43.9833 25.8593 44.9132C25.0521 45.7261 24.5982 46.7767 24.3562 47.8776H33.6388ZM50.3478 39.7734C51.7824 39.7734 53.2108 39.9905 54.5459 40.529C55.781 41.0271 56.8712 41.7564 57.7765 42.7331C58.6987 43.7279 59.3595 44.8982 59.809 46.1742C60.3118 47.6013 60.5101 49.1173 60.5101 50.6259C60.5101 52.1377 60.3108 53.6527 59.8093 55.0834C59.3615 56.361 58.7019 57.5343 57.7752 58.5268C56.8685 59.4977 55.7775 60.2195 54.5459 60.7162C53.2102 61.255 51.7836 61.4784 50.3478 61.4784C48.9065 61.4784 47.4774 61.2571 46.1365 60.7162C44.9034 60.2189 43.8072 59.497 42.8955 58.5283C41.9626 57.5371 41.2958 56.3644 40.841 55.0857C40.3322 53.655 40.1262 52.1404 40.1262 50.6259C40.1262 49.1146 40.3311 47.5989 40.8413 46.1719C41.2979 44.8948 41.9658 43.7251 42.8942 42.7315C43.8045 41.7571 44.9 41.0277 46.1365 40.529C47.4767 39.9885 48.9078 39.7734 50.3478 39.7734ZM50.3478 57.4016C51.8682 57.4016 53.2305 56.9684 54.1517 55.7099C55.1876 54.2947 55.4475 52.3535 55.4475 50.6456C55.4475 48.9329 55.1858 46.9883 54.1509 45.5671C53.2313 44.3043 51.8707 43.8699 50.3478 43.8699C48.8136 43.8699 47.4297 44.2975 46.4976 45.5686C45.4558 46.9891 45.1889 48.9294 45.1889 50.6456C45.1889 52.3571 45.4541 54.2939 46.4968 55.7085C47.4305 56.9751 48.8162 57.4016 50.3478 57.4016ZM68.237 42.2782C68.4455 42.0879 68.6597 41.9038 68.8797 41.7266C69.3776 41.3255 69.9156 40.9749 70.4863 40.686C71.0684 40.3914 71.6829 40.1692 72.316 40.0126C72.9993 39.8436 73.7012 39.7734 74.4043 39.7734C75.4739 39.7734 76.55 39.9376 77.5338 40.3714C78.4218 40.7629 79.1936 41.3199 79.8237 42.0599C80.4684 42.8171 80.9166 43.7023 81.21 44.6492C81.5362 45.702 81.668 46.8048 81.668 47.9048V61.2024H76.7236V47.9048C76.7236 46.8671 76.5423 45.727 75.8614 44.9031C75.2172 44.1236 74.231 43.9093 73.2606 43.9093C72.3687 43.9093 71.5349 44.1157 70.7506 44.5408C69.9588 44.9699 69.2548 45.5361 68.6341 46.1856V61.2024H63.7095V40.0889H66.5563C67.3358 40.0889 67.8905 40.5058 68.0848 41.2636L68.0919 41.2911L68.237 42.2782ZM89.5643 51.3432C89.6229 52.159 89.7574 52.9821 90.0195 53.7514C90.2721 54.4927 90.6388 55.2011 91.1652 55.786C91.6393 56.3127 92.2011 56.7066 92.8609 56.9658C93.5833 57.2496 94.3548 57.3622 95.1283 57.3622C95.8117 57.3622 96.533 57.2981 97.1874 57.0915C97.7103 56.9263 98.2331 56.729 98.7226 56.4807C99.0939 56.2923 99.469 56.0937 99.8201 55.8695C100.15 55.6592 100.528 55.489 100.926 55.489C101.397 55.489 101.807 55.6772 102.086 56.059L103.456 57.82L103.169 58.1547C102.661 58.7481 102.072 59.2571 101.417 59.6825C100.763 60.1063 100.066 60.4544 99.333 60.7172C98.6012 60.9795 97.8477 61.1719 97.0799 61.2942C96.3239 61.4147 95.5587 61.4784 94.7931 61.4784C93.4083 61.4784 92.0516 61.2486 90.7621 60.7371C89.524 60.246 88.4349 59.5201 87.5147 58.5577C86.5459 57.5446 85.8582 56.3294 85.3856 55.0152C84.836 53.4868 84.6307 51.8499 84.6307 50.2315C84.6307 48.8394 84.8403 47.4625 85.3134 46.1507C85.7571 44.9205 86.4098 43.8006 87.2875 42.83C88.1689 41.8555 89.2327 41.1149 90.4356 40.5878C91.7515 40.0112 93.1645 39.7734 94.5959 39.7734C95.8206 39.7734 97.032 39.9635 98.1764 40.4081C99.2601 40.8292 100.22 41.4526 101.034 42.2813C101.878 43.1395 102.493 44.1659 102.922 45.2866C103.411 46.566 103.595 47.9405 103.595 49.3048C103.595 49.7621 103.566 50.3921 103.312 50.7871C103.048 51.1959 102.596 51.3432 102.128 51.3432H89.5643ZM99.0251 47.8776C98.9894 47.4028 98.9035 46.9327 98.751 46.4798C98.5655 45.9289 98.2864 45.4253 97.8995 44.9901C97.5233 44.5669 97.069 44.2481 96.5497 44.0223C95.9603 43.766 95.3139 43.6727 94.6748 43.6727C93.3926 43.6727 92.1689 43.9833 91.2456 44.9132C90.4384 45.7261 89.9845 46.7767 89.7425 47.8776H99.0251Z" fill="black"/>
<path fill-rule="evenodd" clip-rule="evenodd" d="M27.1597 6.16072C27.1259 6.0296 27.1013 5.90137 27.0825 5.78935C26.9947 5.26627 26.9797 4.70274 27.0416 4.17618C27.1514 3.24242 27.5325 2.27357 28.4377 1.85625C28.661 1.75332 28.8713 1.6406 29.1017 1.54999C29.428 1.42167 29.7627 1.34144 30.1147 1.33709C31.185 1.32385 32.0448 2.01255 32.7007 2.79323C32.8232 2.939 32.9363 3.08916 33.0431 3.24591C33.1413 3.12275 33.2426 2.98332 33.29 2.92224C33.6055 2.51618 33.9315 2.14457 34.3195 1.80461C35.6249 0.660503 37.2663 0.171705 38.9721 0.0335994C40.1867 -0.0647517 41.3934 0.0449188 42.5422 0.467556C44.3198 1.12159 45.6531 2.41083 46.6922 3.96282C48.0848 6.04265 48.9939 8.63046 49.6555 11.0289C50.29 13.3289 50.5653 15.7121 50.2738 18.0885C50.035 20.0359 49.4266 21.8748 48.4761 23.5896C46.8967 26.4392 44.6044 28.5902 42.0698 30.5761C40.2733 31.9838 38.4507 33.356 36.6217 34.7212C35.0209 35.9161 33.414 37.1052 31.8344 38.328C30.4636 39.3892 29.1063 40.4801 27.8215 41.6446C26.7053 42.6563 25.6336 43.7342 24.6922 44.912C24.6039 45.0225 24.5212 45.1476 24.4418 45.2648C24.3046 45.4673 24.1699 45.6717 24.035 45.8758C23.6787 46.4143 23.3214 46.9519 22.9497 47.4799C22.5259 48.082 22.0669 48.7113 21.5621 49.2476C21.1823 49.6512 20.5759 50.2282 19.9669 50.0021C19.2795 49.7469 19.3123 48.7766 19.3597 48.185C19.8211 42.423 21.4108 33.7848 25.9816 29.8245C26.9736 28.965 28.0162 28.2088 29.1521 27.551C30.0313 27.0419 30.9381 26.613 31.8459 26.1607C32.7208 25.7247 33.5536 25.2697 34.352 24.702C35.3758 23.974 36.2827 23.1146 37.1203 22.1806C37.6436 21.597 37.8473 20.6669 37.9268 19.9088C38.0024 19.1882 37.9892 18.4418 37.9256 17.7189C37.449 18.4208 36.9872 19.1307 36.5251 19.8463C35.9883 20.6776 35.447 21.5144 34.8191 22.2807C34.1694 23.0737 33.4529 23.7474 32.6341 24.3638C31.5323 25.1932 30.3041 25.895 29.0852 26.5356C28.0601 27.0744 27.0196 27.6396 26.049 28.2724C25.5314 28.6098 25.0118 28.9812 24.5688 29.414C24.3368 29.6406 24.1116 30.0733 23.9416 30.3553C23.6387 30.8577 23.2774 31.3921 22.7177 31.6308C22.5163 31.7167 22.2378 31.7609 22.0212 31.7923C21.6672 31.8437 21.3066 31.8735 20.9494 31.8915C19.9885 31.9399 18.996 31.9021 18.0448 31.7574C17.3602 31.6533 16.3163 31.4301 15.8241 30.9072C15.5357 30.6008 15.2561 30.2856 14.9853 29.9636C14.4547 29.3324 13.9084 28.6292 13.497 27.9139C13.1987 27.3952 12.757 26.5034 13.3526 26.0208C13.777 25.677 14.5987 25.6431 15.1249 25.6287C15.9172 25.607 16.7172 25.6409 17.5101 25.6523C18.1834 25.662 18.8769 25.6658 19.5473 25.5992C19.692 25.5848 19.8321 25.5978 19.9677 25.6301C19.8715 25.5003 19.7775 25.369 19.6852 25.2355C19.6456 25.1783 19.5838 25.079 19.5295 25.0088C19.5038 25.0096 19.4779 25.0113 19.4572 25.0122C19.333 25.0176 19.2092 25.0247 19.0849 25.0288C19.0124 25.0311 18.94 25.0359 18.8678 25.0426C18.4906 25.0775 18.1093 25.1528 17.732 25.2008C17.0535 25.2872 16.3747 25.318 15.691 25.318C14.8224 25.318 14.0255 25.0464 13.3752 24.4637C12.5597 23.7332 12.1262 22.6501 11.9525 21.5894C11.7914 20.6053 11.8275 19.4622 12.1385 18.5095C12.288 18.0514 12.7827 17.8953 13.2086 17.8204C13.6321 17.746 14.0826 17.7267 14.5121 17.7065C14.7738 17.6942 15.0438 17.6857 15.31 17.6658C15.316 17.6087 15.3212 17.5505 15.3252 17.494C14.5732 17.468 13.8331 17.4696 13.0755 17.4857C12.6442 17.4948 12.1112 17.5332 11.7523 17.252C11.6809 17.1961 11.6187 17.1307 11.5651 17.0578C11.3118 16.7136 11.1599 16.3095 11.2145 15.8779C11.3276 14.9852 12.2636 14.376 12.9842 13.9792C13.9538 13.4453 15.0272 13.0254 16.0453 12.5884C17.0743 12.1468 18.7762 11.4265 19.564 10.5767C19.5528 10.5579 19.542 10.5386 19.5319 10.5185C19.4482 10.3514 19.4075 10.1765 19.4093 9.98942C19.4166 9.2356 20.2861 8.69654 20.8696 8.37943C21.7096 7.92291 22.6621 7.56249 23.5645 7.24837C24.5116 6.91869 25.4749 6.62532 26.4409 6.35594C26.68 6.28925 26.9196 6.22398 27.1597 6.16071L27.1597 6.16072Z" fill="black"/>
<path fill-rule="evenodd" clip-rule="evenodd" d="M48.0674 3.50586C56.664 9.36715 58.506 14.896 57.0535 21.0557C55.5101 27.6007 50.1562 34.733 42.0494 39.355C40.7301 40.1071 38.4714 42.0917 37.3726 43.2904C36.6647 39.6923 36.7072 38.3807 40.5022 35.4331C46.5834 30.7098 51.6116 26.2422 53.2736 17.5647C54.0281 13.625 52.6513 10.0379 48.0674 3.50586Z" fill="#C4C4C4"/>
<path fill-rule="evenodd" clip-rule="evenodd" d="M48.0371 42.0024L42.5001 44.1996C44.803 39.2518 55.3083 35.8805 58.0564 26.9734C58.408 33.3593 55.129 37.427 48.0371 42.0024Z" fill="#3A3A3A"/>
<path fill-rule="evenodd" clip-rule="evenodd" d="M5.2796 57.1147H17.2881V61.7239H0V32.3286H5.2796V57.1147ZM21.99 51.8646C22.0487 52.6805 22.1831 53.5036 22.4452 54.2728C22.6978 55.0142 23.0645 55.7225 23.5909 56.3074C24.065 56.8342 24.6269 57.2281 25.2866 57.4873C26.009 57.7711 26.7805 57.8837 27.554 57.8837C28.2374 57.8837 28.9587 57.8196 29.6131 57.613C30.1361 57.4478 30.6588 57.2505 31.1484 57.0022C31.5197 56.8138 31.8947 56.6151 32.2458 56.391C32.5753 56.1807 32.9533 56.0104 33.3512 56.0104C33.8232 56.0104 34.2324 56.1987 34.5122 56.5805L35.8818 58.3415L35.5949 58.6762C35.0863 59.2696 34.4979 59.7785 33.8423 60.204C33.1892 60.6278 32.4917 60.9759 31.7587 61.2387C31.0269 61.501 30.2734 61.6934 29.5056 61.8157C28.7496 61.9361 27.9844 61.9999 27.2188 61.9999C25.834 61.9999 24.4774 61.7701 23.1878 61.2586C21.9498 60.7675 20.8606 60.0416 19.9404 59.0792C18.9717 58.0661 18.2839 56.8509 17.8113 55.5366C17.2617 54.0083 17.0564 52.3713 17.0564 50.753C17.0564 49.3609 17.2661 47.984 17.7392 46.6722C18.1828 45.442 18.8355 44.322 19.7133 43.3515C20.5946 42.377 21.6585 41.6364 22.8613 41.1093C24.1772 40.5326 25.5902 40.2949 27.0216 40.2949C28.2464 40.2949 29.4577 40.485 30.6021 40.9296C31.6858 41.3507 32.6458 41.9741 33.4602 42.8028C34.3036 43.661 34.9189 44.6874 35.3475 45.8081C35.8366 47.0875 36.0206 48.462 36.0206 49.8263C36.0206 50.2836 35.992 50.9136 35.7372 51.3086C35.4734 51.7174 35.0215 51.8646 34.5541 51.8646H21.99ZM31.4508 48.3991C31.4152 47.9243 31.3293 47.4542 31.1768 47.0013C30.9912 46.4503 30.7121 45.9468 30.3253 45.5116C29.949 45.0883 29.4948 44.7696 28.9754 44.5438C28.386 44.2875 27.7397 44.1942 27.1005 44.1942C25.8183 44.1942 24.5947 44.5048 23.6713 45.4347C22.8641 46.2476 22.4102 47.2982 22.1682 48.3991H31.4508ZM48.1598 40.2949C49.5944 40.2949 51.0228 40.512 52.358 41.0505C53.593 41.5486 54.6832 42.2779 55.5886 43.2546C56.5107 44.2494 57.1715 45.4197 57.6211 46.6957C58.1239 48.1227 58.3222 49.6388 58.3222 51.1474C58.3222 52.6592 58.1228 54.1741 57.6213 55.6048C57.1735 56.8825 56.5139 58.0558 55.5872 59.0482C54.6805 60.0192 53.5895 60.741 52.358 61.2377C51.0222 61.7764 49.5956 61.9999 48.1598 61.9999C46.7185 61.9999 45.2894 61.7785 43.9485 61.2377C42.7154 60.7404 41.6192 60.0184 40.7075 59.0498C39.7746 58.0586 39.1078 56.8859 38.653 55.6072C38.1442 54.1765 37.9382 52.6618 37.9382 51.1474C37.9382 49.6361 38.1431 48.1204 38.6533 46.6933C39.1099 45.4163 39.7779 44.2466 40.7062 43.253C41.6165 42.2786 42.712 41.5492 43.9485 41.0505C45.2887 40.5099 46.7198 40.2949 48.1598 40.2949ZM48.1598 57.9231C49.6802 57.9231 51.0425 57.4899 51.9637 56.2314C52.9996 54.8161 53.2595 52.875 53.2595 51.1671C53.2595 49.4544 52.9978 47.5098 51.9629 46.0886C51.0433 44.8258 49.6827 44.3914 48.1598 44.3914C46.6256 44.3914 45.2417 44.819 44.3096 46.09C43.2679 47.5106 43.0009 49.4509 43.0009 51.1671C43.0009 52.8785 43.2661 54.8153 44.3088 56.23C45.2425 57.4966 46.6282 57.9231 48.1598 57.9231ZM66.0491 42.7997C66.2575 42.6093 66.4717 42.4253 66.6917 42.2481C67.1896 41.847 67.7277 41.4964 68.2983 41.2075C68.8804 40.9129 69.4949 40.6907 70.128 40.5341C70.8113 40.3651 71.5132 40.2949 72.2163 40.2949C73.2859 40.2949 74.362 40.4591 75.3458 40.8929C76.2338 41.2844 77.0056 41.8414 77.6357 42.5814C78.2804 43.3385 78.7286 44.2238 79.022 45.1707C79.3483 46.2235 79.48 47.3263 79.48 48.4262V61.7239H74.5356V48.4262C74.5356 47.3886 74.3543 46.2484 73.6734 45.4246C73.0293 44.6451 72.043 44.4308 71.0726 44.4308C70.1807 44.4308 69.3469 44.6372 68.5626 45.0623C67.7709 45.4914 67.0668 46.0576 66.4462 46.7071V61.7239H61.5215V40.6104H64.3683C65.1478 40.6104 65.7025 41.0273 65.8968 41.7851L65.9039 41.8126L66.0491 42.7997ZM87.3763 51.8646C87.435 52.6805 87.5694 53.5036 87.8315 54.2728C88.0841 55.0142 88.4508 55.7225 88.9772 56.3074C89.4513 56.8342 90.0132 57.2281 90.6729 57.4873C91.3953 57.7711 92.1668 57.8837 92.9403 57.8837C93.6237 57.8837 94.345 57.8196 94.9994 57.613C95.5224 57.4478 96.0451 57.2505 96.5347 57.0022C96.906 56.8138 97.281 56.6151 97.6321 56.391C97.9616 56.1807 98.3396 56.0104 98.7375 56.0104C99.2095 56.0104 99.6187 56.1987 99.8985 56.5805L101.268 58.3415L100.981 58.6762C100.473 59.2696 99.8842 59.7785 99.2286 60.204C98.5755 60.6278 97.878 60.9759 97.145 61.2387C96.4132 61.501 95.6597 61.6934 94.8919 61.8157C94.1359 61.9361 93.3707 61.9999 92.6051 61.9999C91.2203 61.9999 89.8636 61.7701 88.5741 61.2586C87.3361 60.7675 86.2469 60.0416 85.3267 59.0792C84.3579 58.0661 83.6702 56.8509 83.1976 55.5366C82.648 54.0083 82.4427 52.3713 82.4427 50.753C82.4427 49.3609 82.6523 47.984 83.1255 46.6722C83.5691 45.442 84.2218 44.322 85.0996 43.3515C85.9809 42.377 87.0448 41.6364 88.2476 41.1093C89.5635 40.5326 90.9765 40.2949 92.4079 40.2949C93.6327 40.2949 94.844 40.485 95.9884 40.9296C97.0721 41.3507 98.032 41.9741 98.8465 42.8028C99.6898 43.661 100.305 44.6874 100.734 45.8081C101.223 47.0875 101.407 48.462 101.407 49.8263C101.407 50.2836 101.378 50.9136 101.124 51.3086C100.86 51.7174 100.408 51.8646 99.9404 51.8646H87.3763ZM96.8371 48.3991C96.8015 47.9243 96.7155 47.4542 96.563 47.0013C96.3775 46.4503 96.0984 45.9468 95.7115 45.5116C95.3353 45.0883 94.8811 44.7696 94.3617 44.5438C93.7723 44.2875 93.1259 44.1942 92.4868 44.1942C91.2046 44.1942 89.981 44.5048 89.0576 45.4347C88.2504 46.2476 87.7965 47.2982 87.5545 48.3991H96.8371Z" fill="black"/>
<path fill-rule="evenodd" clip-rule="evenodd" d="M24.9717 6.68221C24.9379 6.55108 24.9133 6.42286 24.8945 6.31085C24.8067 5.78776 24.7917 5.22423 24.8537 4.69767C24.9635 3.76391 25.3445 2.79506 26.2498 2.37773C26.473 2.2748 26.6833 2.16209 26.9137 2.07148C27.24 1.94315 27.5747 1.86294 27.9268 1.85857C28.997 1.84533 29.8568 2.53403 30.5128 3.31472C30.6352 3.46048 30.7483 3.61065 30.8551 3.76739C30.9533 3.64424 31.0546 3.50481 31.1021 3.44373C31.4175 3.03766 31.7435 2.66607 32.1315 2.32609C33.437 1.18199 35.0783 0.69319 36.7841 0.555084C37.9987 0.456733 39.2054 0.566403 40.3542 0.98904C42.1318 1.64307 43.4651 2.93232 44.5042 4.4843C45.8968 6.56414 46.8059 9.15194 47.4675 11.5504C48.102 13.8504 48.3773 16.2336 48.0858 18.61C47.847 20.5574 47.2386 22.3963 46.2881 24.1111C44.7087 26.9606 42.4164 29.1117 39.8818 31.0976C38.0853 32.5053 36.2627 33.8775 34.4337 35.2427C32.8329 36.4376 31.226 37.6267 29.6464 38.8495C28.2757 39.9106 26.9183 41.0016 25.6335 42.1661C24.5173 43.1778 23.4456 44.2556 22.5042 45.4335C22.4159 45.544 22.3332 45.6691 22.2538 45.7863C22.1166 45.9888 21.9819 46.1932 21.847 46.3973C21.4907 46.9357 21.1334 47.4733 20.7617 48.0013C20.3379 48.6035 19.8789 49.2328 19.3741 49.7691C18.9943 50.1727 18.3879 50.7497 17.7789 50.5236C17.0916 50.2684 17.1243 49.2981 17.1717 48.7065C17.6331 42.9445 19.2228 34.3063 23.7936 30.346C24.7856 29.4865 25.8282 28.7303 26.9641 28.0725C27.8433 27.5634 28.7502 27.1344 29.6579 26.6821C30.5328 26.2462 31.3656 25.7912 32.164 25.2234C33.1878 24.4955 34.0947 23.6361 34.9323 22.7021C35.4556 22.1185 35.6593 21.1884 35.7388 20.4303C35.8144 19.7097 35.8013 18.9633 35.7377 18.2404C35.261 18.9423 34.7992 19.6522 34.3371 20.3678C33.8003 21.1991 33.259 22.0359 32.6312 22.8022C31.9814 23.5952 31.2649 24.2689 30.4461 24.8853C29.3444 25.7147 28.1161 26.4165 26.8972 27.0571C25.8721 27.5959 24.8316 28.161 23.861 28.7938C23.3435 29.1313 22.8238 29.5027 22.3808 29.9355C22.1488 30.1621 21.9236 30.5948 21.7536 30.8768C21.4507 31.3791 21.0894 31.9136 20.5298 32.1523C20.3283 32.2382 20.0498 32.2824 19.8332 32.3138C19.4792 32.3651 19.1186 32.395 18.7614 32.413C17.8005 32.4614 16.808 32.4236 15.8568 32.2789C15.1722 32.1748 14.1284 31.9516 13.6361 31.4287C13.3477 31.1223 13.0681 30.8071 12.7973 30.4851C12.2667 29.8539 11.7204 29.1507 11.309 28.4354C11.0108 27.9167 10.569 27.0248 11.1646 26.5423C11.589 26.1985 12.4107 26.1646 12.937 26.1502C13.7292 26.1285 14.5292 26.1624 15.3221 26.1738C15.9954 26.1835 16.6889 26.1873 17.3593 26.1207C17.504 26.1063 17.6441 26.1192 17.7798 26.1516C17.6835 26.0218 17.5895 25.8904 17.4972 25.757C17.4576 25.6998 17.3958 25.6005 17.3415 25.5303C17.3158 25.531 17.2899 25.5328 17.2693 25.5336C17.1451 25.5392 17.0212 25.5462 16.8969 25.5502C16.8244 25.5526 16.752 25.5574 16.6798 25.5641C16.3026 25.599 15.9213 25.6743 15.544 25.7223C14.8655 25.8087 14.1867 25.8395 13.503 25.8395C12.6344 25.8395 11.8376 25.5679 11.1872 24.9852C10.3717 24.2547 9.9382 23.1716 9.76453 22.1109C9.60341 21.1268 9.63952 19.9837 9.9505 19.031C10.1001 18.5729 10.5947 18.4167 11.0206 18.3419C11.4441 18.2675 11.8946 18.2482 12.3241 18.228C12.5858 18.2157 12.8558 18.2072 13.1221 18.1873C13.128 18.1302 13.1332 18.072 13.1372 18.0155C12.3852 17.9895 11.6451 17.991 10.8875 18.0071C10.4562 18.0163 9.92322 18.0547 9.56426 17.7735C9.49294 17.7176 9.43074 17.6522 9.37707 17.5793C9.1238 17.2351 8.97188 16.831 9.02655 16.3993C9.1396 15.5067 10.0756 14.8975 10.7962 14.5007C11.7658 13.9668 12.8392 13.5469 13.8574 13.1099C14.8863 12.6683 16.5882 11.948 17.376 11.0982C17.3649 11.0794 17.354 11.0601 17.3439 11.04C17.2602 10.8729 17.2195 10.698 17.2213 10.5109C17.2286 9.75709 18.0981 9.21802 18.6816 8.90092C19.5216 8.44439 20.4742 8.08398 21.3766 7.76986C22.3237 7.44018 23.2869 7.14681 24.2529 6.87742C24.492 6.81074 24.7316 6.74547 24.9717 6.68219L24.9717 6.68221Z" fill="black"/>
<path fill-rule="evenodd" clip-rule="evenodd" d="M25.7235 7.04957C25.7065 7.0482 17.7756 9.0113 17.761 10.5163C17.7567 10.957 18.1754 10.9953 17.8577 11.3687C15.8186 13.7657 8.05484 14.8721 9.81175 17.2595C10.1023 17.6543 10.6757 17.3486 13.6305 17.4962C13.7306 17.5039 13.6697 18.3263 13.5961 18.6812C12.5562 18.8232 10.6273 18.697 10.4636 19.1987C9.78162 21.2878 10.3758 25.2999 13.5029 25.2999C15.4914 25.2999 16.0922 25.0364 16.8793 25.0109C17.8943 24.978 17.4195 24.8425 18.4869 26.1869C18.8639 26.6616 19.9646 27.3481 18.7846 27.2466C18.4752 27.22 17.9352 26.606 17.4126 26.658C15.3356 26.8643 12.1608 26.43 11.5043 26.9619C10.998 27.3721 12.6117 29.5531 14.0291 31.0588C14.3295 31.378 15.0559 31.6112 15.9379 31.7454C17.9284 32.0482 19.944 31.8154 20.3179 31.6559C21.0799 31.3309 21.4527 30.0876 22.0035 29.5495C22.7207 28.8489 23.9059 28.0196 26.646 26.5794C32.6533 23.422 32.3922 21.9473 36.0757 16.8114C36.099 16.7788 36.9739 21.2341 35.3341 23.0626C31.1709 27.7047 28.6895 26.8184 24.147 30.7541C19.6327 34.6655 18.1373 43.4108 17.7097 48.7497C17.3832 52.8264 21.381 45.9742 22.0825 45.0966C25.7153 40.5513 31.9167 36.653 39.5489 30.6728C43.5671 27.5244 49.7768 21.9522 46.9471 11.6941C44.7535 3.74187 41.5577 0.710251 36.8276 1.09324C32.0974 1.47623 31.4836 4.41049 30.8143 4.48812C30.6069 4.51215 30.5793 4.23326 30.0994 3.66209C28.4361 1.68246 27.1945 2.53669 26.4757 2.86807C24.908 3.59079 25.3236 6.71804 25.7235 7.04957Z" fill="white"/>
<path fill-rule="evenodd" clip-rule="evenodd" d="M36.5958 4.62061C38.3594 4.62061 39.7891 6.14211 39.7891 8.01898C39.7891 8.62361 39.7954 9.31232 39.3806 9.68316C38.1343 10.7975 37.8009 9.79342 38.0196 9.1322C38.1253 8.81265 38.6849 8.25478 38.6838 8.17942C38.6372 4.92359 34.7161 5.26112 34.6646 6.09505C34.5622 7.75443 32.7473 8.19296 34.1578 5.82419C34.6391 5.01584 35.6184 4.62061 36.5958 4.62061Z" fill="white"/>
<path fill-rule="evenodd" clip-rule="evenodd" d="M22.5204 13.397L20.7025 10.9731L27.3681 11.4859L21.0754 14.9818L22.5204 13.397Z" fill="black"/>
<path fill-rule="evenodd" clip-rule="evenodd" d="M47.8487 3.55786C56.4453 9.41916 58.2873 14.948 56.8348 21.1076C55.2914 27.6526 49.9375 34.785 41.8307 39.407C40.5114 40.1591 38.2527 42.1437 37.1539 43.3424C36.4461 39.7443 36.4885 38.4327 40.2835 35.4851C46.3647 30.7618 51.3929 26.2942 53.0549 17.6167C53.8094 13.677 52.4326 10.0899 47.8487 3.55786Z" fill="black"/>
<path fill-rule="evenodd" clip-rule="evenodd" d="M47.63 3.61011C56.2265 9.4714 58.0685 15.0003 56.616 21.1599C55.0726 27.7049 49.7187 34.8373 41.612 39.4592C40.2927 40.2114 38.034 42.196 36.9352 43.3946C36.2273 39.7966 36.2697 38.485 40.0647 35.5374C46.146 30.814 51.1741 26.3464 52.8361 17.669C53.5907 13.7293 52.2138 10.1421 47.63 3.61011Z" fill="black"/>
<path fill-rule="evenodd" clip-rule="evenodd" d="M47.4105 3.66235C56.007 9.52365 57.8491 15.0525 56.3965 21.2121C54.8531 27.7571 49.4992 34.8895 41.3925 39.5114C40.0732 40.2636 37.8145 42.2482 36.7157 43.4469C36.0078 39.8488 36.0502 38.5372 39.8452 35.5896C45.9265 30.8662 50.9547 26.3987 52.6166 17.7212C53.3712 13.7815 51.9943 10.1944 47.4105 3.66235Z" fill="black"/>
<path fill-rule="evenodd" clip-rule="evenodd" d="M47.1917 3.71436C55.7883 9.57565 57.6303 15.1045 56.1778 21.2641C54.6344 27.8091 49.2805 34.9415 41.1737 39.5634C39.8544 40.3156 37.5957 42.3002 36.497 43.4989C35.7891 39.9008 35.8315 38.5892 39.6265 35.6416C45.7078 30.9182 50.7359 26.4507 52.3979 17.7732C53.1525 13.8335 51.7756 10.2464 47.1917 3.71436Z" fill="black"/>
<path fill-rule="evenodd" clip-rule="evenodd" d="M46.973 3.7666C55.5696 9.6279 57.4116 15.1568 55.9591 21.3164C54.4157 27.8614 49.0618 34.9938 40.955 39.6157C39.6358 40.3679 37.377 42.3525 36.2783 43.5511C35.5704 39.9531 35.6128 38.6415 39.4078 35.6939C45.4891 30.9705 50.5172 26.5029 52.1792 17.8255C52.9338 13.8858 51.5569 10.2986 46.973 3.7666Z" fill="black"/>
<path fill-rule="evenodd" clip-rule="evenodd" d="M46.7543 3.81885C55.3509 9.68014 57.1929 15.209 55.7404 21.3686C54.1969 27.9136 48.843 35.046 40.7363 39.6679C39.417 40.4201 37.1583 42.4047 36.0595 43.6034C35.3516 40.0053 35.394 38.6937 39.1891 35.7461C45.2703 31.0227 50.2985 26.5552 51.9604 17.8777C52.715 13.938 51.3382 10.3508 46.7543 3.81885Z" fill="black"/>
<path fill-rule="evenodd" clip-rule="evenodd" d="M46.5356 3.87109C55.1322 9.73239 56.9742 15.2613 55.5217 21.4209C53.9783 27.9659 48.6244 35.0982 40.5176 39.7202C39.1983 40.4723 36.9396 42.457 35.8408 43.6556C35.1329 40.0576 35.1753 38.746 38.9704 35.7984C45.0516 31.075 50.0798 26.6074 51.7418 17.93C52.4963 13.9903 51.1195 10.4031 46.5356 3.87109Z" fill="black"/>
<path fill-rule="evenodd" clip-rule="evenodd" d="M46.3169 3.9231C54.9134 9.78439 56.7554 15.3133 55.3029 21.4729C53.7595 28.0179 48.4056 35.1502 40.2988 39.7722C38.9796 40.5244 36.7209 42.509 35.6221 43.7076C34.9142 40.1096 34.9566 38.798 38.7516 35.8504C44.8329 31.127 49.861 26.6594 51.523 17.982C52.2776 14.0423 50.9007 10.4551 46.3169 3.9231Z" fill="black"/>
<path fill-rule="evenodd" clip-rule="evenodd" d="M46.0974 3.9751C54.6939 9.83639 56.536 15.3653 55.0834 21.5249C53.54 28.0699 48.1861 35.2022 40.0794 39.8242C38.7601 40.5764 36.5014 42.561 35.4026 43.7596C34.6947 40.1616 34.7371 38.85 38.5321 35.9024C44.6134 31.179 49.6416 26.7114 51.3035 18.034C52.0581 14.0943 50.6812 10.5071 46.0974 3.9751Z" fill="black"/>
<path fill-rule="evenodd" clip-rule="evenodd" d="M45.8786 4.02734C54.4752 9.88863 56.3172 15.4175 54.8647 21.5771C53.3213 28.1221 47.9674 35.2545 39.8606 39.8764C38.5413 40.6286 36.2826 42.6132 35.1839 43.8119C34.476 40.2138 34.5184 38.9022 38.3134 35.9546C44.3947 31.2312 49.4228 26.7637 51.0848 18.0862C51.8393 14.1465 50.4625 10.5593 45.8786 4.02734Z" fill="#C4C4C4"/>
<path fill-rule="evenodd" clip-rule="evenodd" d="M47.8184 42.0546C45.9727 42.787 44.127 43.5194 42.2814 44.2518C44.5842 39.304 55.0895 35.9328 57.8377 27.0256C58.1892 33.4116 54.9102 37.4792 47.8184 42.0546Z" fill="#C4C4C4"/>
<path fill-rule="evenodd" clip-rule="evenodd" d="M47.5997 42.1066C45.754 42.839 43.9083 43.5714 42.0627 44.3038C44.3655 39.356 54.8708 35.9848 57.619 27.0776C57.9705 33.4636 54.6915 37.5312 47.5997 42.1066Z" fill="#C4C4C4"/>
<path fill-rule="evenodd" clip-rule="evenodd" d="M47.3809 42.1588C45.5353 42.8913 43.6896 43.6237 41.8439 44.3561C44.1468 39.4082 54.6521 36.037 57.4002 27.1299C57.7518 33.5158 54.4728 37.5835 47.3809 42.1588Z" fill="#C4C4C4"/>
<path fill-rule="evenodd" clip-rule="evenodd" d="M47.1622 42.2111C45.3166 42.9435 43.4709 43.6759 41.6252 44.4083C43.9281 39.4605 54.4334 36.0893 57.1816 27.1821C57.5331 33.5681 54.2541 37.6357 47.1622 42.2111Z" fill="#C4C4C4"/>
<path fill-rule="evenodd" clip-rule="evenodd" d="M46.9435 42.2633C45.0978 42.9958 43.2522 43.7282 41.4065 44.4606C43.7094 39.5127 54.2147 36.1415 56.9628 27.2344C57.3144 33.6203 54.0354 37.6879 46.9435 42.2633Z" fill="#C4C4C4"/>
<path fill-rule="evenodd" clip-rule="evenodd" d="M46.724 42.3153C44.8783 43.0478 43.0327 43.7802 41.187 44.5126C43.4899 39.5647 53.9952 36.1935 56.7433 27.2864C57.0949 33.6723 53.8159 37.74 46.724 42.3153Z" fill="#C4C4C4"/>
<path fill-rule="evenodd" clip-rule="evenodd" d="M46.5052 42.3676C44.6596 43.1 42.8139 43.8324 40.9683 44.5648C43.2711 39.617 53.7764 36.2457 56.5246 27.3386C56.8761 33.7246 53.5971 37.7922 46.5052 42.3676Z" fill="#C4C4C4"/>
<path fill-rule="evenodd" clip-rule="evenodd" d="M46.2866 42.4198C44.4409 43.1522 42.5952 43.8847 40.7496 44.6171C43.0524 39.6692 53.5577 36.298 56.3059 27.3909C56.6574 33.7768 53.3784 37.8444 46.2866 42.4198Z" fill="#C4C4C4"/>
<path fill-rule="evenodd" clip-rule="evenodd" d="M46.0678 42.4718C44.2221 43.2043 42.3765 43.9367 40.5308 44.6691C42.8337 39.7212 53.339 36.35 56.0871 27.4429C56.4387 33.8288 53.1597 37.8964 46.0678 42.4718Z" fill="#C4C4C4"/>
<path fill-rule="evenodd" clip-rule="evenodd" d="M45.8491 42.5238L40.3121 44.7211C42.615 39.7732 53.1203 36.402 55.8684 27.4949C56.22 33.8808 52.941 37.9484 45.8491 42.5238Z" fill="black"/>
<path fill-rule="evenodd" clip-rule="evenodd" d="M16.7482 57.6547V61.1843H0.539612V32.8687H4.73963V57.6547H16.7482Z" fill="white"/>
<path fill-rule="evenodd" clip-rule="evenodd" d="M32.0106 48.939C32.0106 48.1765 31.9054 47.4733 31.6885 46.8291C31.4716 46.185 31.1496 45.6263 30.7289 45.1531C30.3082 44.6798 29.7956 44.3117 29.1909 44.0488C28.5862 43.7859 27.8895 43.6544 27.1007 43.6544C25.4838 43.6544 24.2153 44.1211 23.2885 45.0545C22.3617 45.9878 21.7702 47.2826 21.5204 48.939H32.0106ZM35.1853 58.325C34.712 58.8771 34.1665 59.3503 33.5486 59.7513C32.9308 60.1522 32.2735 60.4808 31.5768 60.7306C30.8801 60.9804 30.1636 61.1644 29.4209 61.2827C28.6782 61.401 27.942 61.4602 27.219 61.4602C25.8387 61.4602 24.5636 61.2236 23.3871 60.7569C22.2105 60.2902 21.1918 59.6067 20.3307 58.7062C19.4697 57.8057 18.7993 56.6883 18.3194 55.354C17.8396 54.0198 17.5964 52.4883 17.5964 50.7531C17.5964 49.3597 17.8133 48.0582 18.2471 46.8554C18.6809 45.6526 19.3054 44.6075 20.1138 43.7136C20.9223 42.8197 21.9082 42.1164 23.0782 41.6037C24.2481 41.0911 25.5627 40.8347 27.0218 40.8347C28.2444 40.8347 29.3749 41.0319 30.4068 41.4328C31.4388 41.8338 32.3261 42.4188 33.0754 43.1812C33.8247 43.9437 34.4163 44.8836 34.8435 46.0009C35.2707 47.1183 35.4811 48.3935 35.4811 49.8263C35.4811 50.4179 35.4153 50.8122 35.2839 51.016C35.1524 51.2198 34.9092 51.3249 34.5543 51.3249H21.4218C21.4613 52.5212 21.6321 53.5597 21.9345 54.447C22.2368 55.3343 22.6575 56.0771 23.1899 56.6686C23.7223 57.2602 24.3533 57.7005 25.0894 57.9897C25.8256 58.279 26.6472 58.4236 27.5542 58.4236C28.4087 58.4236 29.1514 58.325 29.7758 58.1278C30.4003 57.9306 30.9392 57.7137 31.3928 57.4836C31.8463 57.2536 32.2275 57.0433 32.5364 56.8461C32.8454 56.6489 33.1148 56.5503 33.3515 56.5503C33.667 56.5503 33.9101 56.6686 34.081 56.9052L35.1853 58.325Z" fill="white"/>
<path fill-rule="evenodd" clip-rule="evenodd" d="M48.16 40.8347C49.6323 40.8347 50.9666 41.0713 52.1563 41.5512C53.346 42.031 54.3582 42.7211 55.1929 43.6216C56.0277 44.5221 56.6652 45.6066 57.1122 46.8751C57.5591 48.1437 57.7826 49.57 57.7826 51.1475C57.7826 52.7249 57.5591 54.1512 57.1122 55.4264C56.6652 56.7015 56.0277 57.786 55.1929 58.6799C54.3582 59.5738 53.346 60.2574 52.1563 60.7372C50.9666 61.217 49.6323 61.4602 48.16 61.4602C46.6746 61.4602 45.3403 61.217 44.1506 60.7372C42.9609 60.2574 41.9421 59.5738 41.1008 58.6799C40.2595 57.786 39.6154 56.7015 39.1618 55.4264C38.7083 54.1512 38.4783 52.7249 38.4783 51.1475C38.4783 49.57 38.7083 48.1437 39.1618 46.8751C39.6154 45.6066 40.2595 44.5221 41.1008 43.6216C41.9421 42.7211 42.9609 42.031 44.1506 41.5512C45.3403 41.0713 46.6746 40.8347 48.16 40.8347ZM48.16 58.463C50.053 58.463 51.4661 57.8254 52.3995 56.5503C53.3328 55.2752 53.7995 53.4808 53.7995 51.1672C53.7995 48.8535 53.3328 47.0526 52.3995 45.7709C51.4661 44.4892 50.053 43.8516 48.16 43.8516C46.2407 43.8516 44.8145 44.4892 43.8745 45.7709C42.9346 47.0526 42.4614 48.8535 42.4614 51.1672C42.4614 53.4808 42.9346 55.2752 43.8745 56.5503C44.8145 57.8254 46.2407 58.463 48.16 58.463Z" fill="white"/>
<path fill-rule="evenodd" clip-rule="evenodd" d="M65.6698 43.9305C66.1036 43.4704 66.5571 43.0498 67.0303 42.6685C67.5036 42.2873 68.0097 41.9587 68.5421 41.6892C69.0745 41.4197 69.6463 41.2094 70.2576 41.0582C70.8688 40.907 71.5196 40.8347 72.2163 40.8347C73.3205 40.8347 74.2933 41.0188 75.128 41.3868C75.9628 41.7549 76.6595 42.2676 77.2247 42.9314C77.79 43.5953 78.2172 44.3972 78.5064 45.3305C78.7957 46.2639 78.9402 47.2958 78.9402 48.4263V61.1841H75.0754V48.4263C75.0754 46.9934 74.7468 45.8761 74.0895 45.0808C73.4322 44.2854 72.4266 43.8911 71.0726 43.8911C70.0867 43.8911 69.1665 44.1211 68.3054 44.5878C67.4444 45.0545 66.6425 45.692 65.9064 46.4939V61.1841H62.0613V41.1502H64.3683C64.9073 41.1502 65.2425 41.4065 65.374 41.9192L65.6698 43.9305Z" fill="white"/>
<path fill-rule="evenodd" clip-rule="evenodd" d="M97.3967 48.939C97.3967 48.1765 97.2915 47.4733 97.0746 46.8291C96.8577 46.185 96.5357 45.6263 96.115 45.1531C95.6944 44.6798 95.1817 44.3117 94.577 44.0488C93.9723 43.7859 93.2756 43.6544 92.4868 43.6544C90.8699 43.6544 89.6014 44.1211 88.6746 45.0545C87.7478 45.9878 87.1563 47.2826 86.9065 48.939H97.3967ZM100.571 58.325C100.098 58.8771 99.5526 59.3503 98.9347 59.7513C98.3169 60.1522 97.6596 60.4808 96.9629 60.7306C96.2662 60.9804 95.5498 61.1644 94.807 61.2827C94.0643 61.401 93.3281 61.4602 92.6051 61.4602C91.2248 61.4602 89.9497 61.2236 88.7732 60.7569C87.5967 60.2902 86.5779 59.6067 85.7168 58.7062C84.8558 57.8057 84.1854 56.6883 83.7056 55.354C83.2257 54.0198 82.9825 52.4883 82.9825 50.7531C82.9825 49.3597 83.1994 48.0582 83.6333 46.8554C84.0671 45.6526 84.6915 44.6075 85.4999 43.7136C86.3084 42.8197 87.2943 42.1164 88.4643 41.6037C89.6342 41.0911 90.9488 40.8347 92.408 40.8347C93.6305 40.8347 94.761 41.0319 95.7929 41.4328C96.8249 41.8338 97.7122 42.4188 98.4615 43.1812C99.2108 43.9437 99.8024 44.8836 100.23 46.0009C100.657 47.1183 100.867 48.3935 100.867 49.8263C100.867 50.4179 100.801 50.8122 100.67 51.016C100.539 51.2198 100.295 51.3249 99.9404 51.3249H86.8079C86.8474 52.5212 87.0183 53.5597 87.3206 54.447C87.6229 55.3343 88.0436 56.0771 88.576 56.6686C89.1084 57.2602 89.7394 57.7005 90.4755 57.9897C91.2117 58.279 92.0333 58.4236 92.9403 58.4236C93.7948 58.4236 94.5375 58.325 95.162 58.1278C95.7864 57.9306 96.3253 57.7137 96.7789 57.4836C97.2324 57.2536 97.6136 57.0433 97.9225 56.8461C98.2315 56.6489 98.5009 56.5503 98.7376 56.5503C99.0531 56.5503 99.2963 56.6686 99.4672 56.9052L100.571 58.325Z" fill="white"/>
</svg>
