<svg width="60" height="35" viewBox="0 0 60 35" fill="none" xmlns="http://www.w3.org/2000/svg">
<path d="M3.05579 32.1593C3.29491 32.0851 2.78254 30.3216 2.78254 30.3216C2.78254 30.3216 2.51862 29.5353 2.21179 29.1906C1.99207 28.9438 1.81745 28.8366 1.50588 28.7198C1.26042 28.6278 0.842904 28.5992 0.842904 28.5992C0.842904 28.5992 1.11914 28.9537 1.25301 29.2068C1.67642 30.0074 1.07847 30.7553 1.58349 31.5114C1.77637 31.8001 2.19258 32.1592 2.19258 32.1592C2.19258 32.1592 2.53403 32.321 3.05579 32.1593Z" fill="#F09E00"/>
<path fill-rule="evenodd" clip-rule="evenodd" d="M37.2134 0.717004C36.0717 0.725239 35.291 0.730871 34.2609 1.31771C34.1612 1.37454 34.0656 1.42272 33.9748 1.46853C33.6672 1.62365 33.4134 1.75161 33.233 2.09589L33.2075 2.14428C33.0616 2.42109 32.9402 2.65114 33.0671 2.94383C33.1246 3.07636 33.2922 3.23738 33.2922 3.23738C33.2922 3.23738 32.314 3.77058 31.8986 4.32066C31.7425 4.52733 31.666 4.70493 31.5848 4.89379L31.5848 4.89379L31.5848 4.89379C31.5279 5.02592 31.4687 5.16356 31.3781 5.32051C30.3424 7.11591 27.8445 9.28075 27.8445 9.28075C27.8445 9.28075 28.1812 9.23448 28.3962 9.25215C28.5377 9.26377 28.6431 9.30614 28.7479 9.34826C28.8567 9.39198 28.9648 9.43544 29.112 9.44396C29.5519 9.46942 30.2036 9.15845 30.2036 9.15845C30.2036 9.15845 29.5501 9.53238 29.1288 9.76738C29.0342 9.82011 28.9091 9.85652 28.791 9.89089C28.5751 9.95373 28.3825 10.0098 28.4426 10.1463L28.6805 10.6872C28.6805 10.6872 28.9716 11.0958 29.2086 11.3084C29.9205 11.9467 30.5829 12.0027 31.537 12.0652C31.6445 12.0722 31.7435 12.0841 31.8375 12.0953L31.8375 12.0953L31.8376 12.0954C32.1394 12.1315 32.3888 12.1614 32.6975 12.005C33.0421 11.8306 33.1041 11.5209 33.1707 11.1881C33.2212 10.9357 33.2744 10.6698 33.4557 10.4396C33.5347 10.3393 33.627 10.2745 33.7149 10.2128C33.8443 10.1219 33.9639 10.0379 34.0169 9.85735C34.156 9.38306 33.6521 9.19873 33.1506 9.0153L33.1506 9.0153C33.0101 8.96394 32.8699 8.91264 32.7441 8.85507C32.0806 8.55162 30.8979 8.56926 30.8979 8.56926C30.8979 8.56926 32.2622 8.26962 32.7243 8.47458C33.1864 8.67953 34.1907 9.1616 34.5108 9.45022C34.831 9.73884 35.2667 10.0469 35.4445 10.1649C35.6223 10.2828 36.7581 9.44687 37.0627 8.6312C37.3386 7.89243 37.2389 7.35151 36.9582 6.61456C36.69 5.91058 35.7729 5.09269 35.7729 5.09269C35.7729 5.09269 37.9263 5.98997 38.5527 7.19956C38.9307 7.9294 39.0485 8.43489 39.0027 9.25552C38.9602 10.0171 38.4125 11.1174 38.4125 11.1174L42.5669 5.88506L42.3736 2.15617C42.3736 2.15617 39.4317 0.697586 37.4154 0.715434L37.2134 0.717004ZM29.254 12.1835C29.254 12.1835 30.4525 12.4883 31.1218 12.8879C31.6735 13.2173 32.3966 13.9282 32.3966 13.9282C32.3966 13.9282 31.9568 14.19 31.6534 14.3101C31.5721 14.3423 31.4941 14.3745 31.4185 14.4056L31.4184 14.4056C30.9043 14.6175 30.5013 14.7835 29.933 14.6092C29.5699 14.4978 29.3405 14.397 29.1053 14.0989C28.6407 13.5098 29.254 12.1835 29.254 12.1835ZM37.1898 3.75523C37.4481 3.84778 37.7654 3.96146 38.0518 4.17349C38.4509 4.46903 38.6755 4.86158 38.8724 5.20578L38.8724 5.2058C38.9348 5.31494 38.9944 5.4192 39.056 5.51398C39.2196 5.76584 39.1876 5.96018 39.1433 6.06752C39.1102 6.1271 39.0895 6.16083 39.0895 6.16083C39.0895 6.16083 39.1184 6.12797 39.1433 6.06752C39.3204 5.74891 39.8546 4.69098 39.4977 4.09853C39.2548 3.69545 38.978 3.51664 38.526 3.38586C37.9347 3.21481 36.9768 3.67601 36.9768 3.67601C37.041 3.7019 37.1128 3.72762 37.1898 3.75522L37.1898 3.75523ZM31.8839 5.52333L32.8542 5.47303L34.262 5.40005C34.262 5.40005 33.7578 5.98662 33.3312 6.21135C33.1318 6.31637 32.9553 6.34257 32.7778 6.36893C32.6069 6.39429 32.435 6.41981 32.2406 6.51587C31.828 6.71973 31.3048 7.23204 31.3048 7.23204L32.292 6.03631L31.8839 5.52333Z" fill="#F09E00"/>
<path d="M34.0969 20.7242C33.1706 21.1697 31.8709 22.464 31.8709 22.464C31.8709 22.464 32.6182 20.7276 33.5052 20.0422C34.2428 19.4722 36.6019 18.6689 36.6019 18.6689C36.6019 18.6689 38.4001 18.1587 39.9273 17.3999C41.3348 16.7006 41.9819 16.4907 43.0808 15.3671C43.74 14.6931 44.2194 13.99 44.671 13.1625C45.4335 11.7654 45.4193 9.48829 45.4193 9.48829C45.4193 9.48829 45.0162 11.2827 44.4204 12.2723C44.0437 12.8981 43.7486 13.1959 43.2644 13.7429C42.6471 14.4401 42.2829 14.8247 41.5552 15.4057C40.7451 16.0525 39.6148 16.5103 38.6563 16.905C36.9921 17.5904 37.7538 17.2444 35.3329 18.1671C34.3865 18.5278 33.8758 18.8331 33.0957 19.4791C32.4927 19.9786 32.1742 20.3003 31.7224 20.9398C31.4126 21.3783 31.0757 22.9994 30.8467 23.8768C30.5373 25.0623 30.3846 25.4942 30.3846 25.4942C30.3846 25.4942 30.4175 21.8788 30.8635 20.6826C31.182 19.8283 31.4646 19.3723 32.0446 18.6689C32.8884 17.6454 34.7462 16.7252 34.7462 16.7252L37.7437 15.4481C37.7437 15.4481 41.6401 13.5593 42.4454 12.6168C43.2507 11.6742 43.1947 11.6043 43.558 10.722C44.1239 9.34784 44.0186 6.81161 44.0186 6.81161C44.0186 6.81161 43.7378 8.88838 43.1084 10.035C42.7401 10.7061 42.5072 11.0922 41.9473 11.6143C41.2494 12.265 39.9273 13.1625 39.9273 13.1625L37.2975 14.4784L34.3567 15.7276C34.3567 15.7276 32.234 16.7942 31.3142 17.9822C30.7561 18.7031 30.4764 19.1727 30.2022 20.0422C29.9465 20.8531 29.9748 21.3144 29.9246 22.1632C29.8252 23.8444 29.9046 23.8876 29.9216 23.8793C29.9236 23.8777 29.9246 23.8768 29.9246 23.8768C29.9246 23.8768 29.9235 23.8784 29.9216 23.8793C29.8854 23.9077 29.5326 24.1373 29.3666 22.464C29.2569 21.3582 29.0814 20.7069 29.2284 19.6054C29.3441 18.7377 29.3028 18.5837 29.69 17.7987C30.1486 16.869 30.6967 16.3312 31.4242 15.5927C32.3132 14.6904 34.0122 13.7526 34.0122 13.7526C34.0122 13.7526 36.0115 12.6717 37.0397 11.8239C37.9506 11.0728 38.69 10.6839 39.4205 9.75654C40.0837 8.9147 40.2391 8.30949 40.6216 7.30839C40.9413 6.47167 41.0867 5.92174 40.9438 5.03751C40.7857 4.05984 40.3975 3.5462 39.7403 2.80528C39.0445 2.02069 37.5244 1.28837 37.5244 1.28837C37.5244 1.28837 39.722 1.67156 41.0787 2.10494C42.7688 2.64485 43.8795 2.78976 45.2396 3.92902C46.3733 4.8786 46.9483 5.59713 47.4942 6.97151C47.9584 8.14014 48.0677 8.8956 48.001 10.1513C47.9365 11.3655 47.2094 13.1625 47.2094 13.1625C45.0135 16.8955 43.1959 18.4473 38.2055 19.6054C38.2055 19.6054 35.1378 20.2235 34.0969 20.7242Z" fill="#F09E00"/>
<path fill-rule="evenodd" clip-rule="evenodd" d="M35.6217 20.1795C34.962 20.3947 33.8815 20.9264 33.4266 21.4504C33.065 21.8669 32.753 22.4047 32.5408 22.9138C32.2664 23.5723 31.9632 24.6468 31.9632 24.6468C31.9632 24.6468 32.8941 23.0517 33.7732 22.2977C34.3451 21.8071 34.7623 21.59 35.3732 21.2721C35.4525 21.2308 35.5351 21.1878 35.6217 21.1423C36.8179 20.514 38.4634 20.1142 39.8984 19.8653C43.0304 20.8127 45.309 23.7252 45.309 27.1337C45.309 31.3608 41.9033 34.7665 37.6962 34.7665C34.1311 34.7665 31.1415 32.3209 30.3121 29.0023L30.4424 24.832C30.5503 24.4954 30.6813 24.1688 30.8334 23.8539C30.8143 24.0226 30.797 24.1897 30.7801 24.3539L30.78 24.3542L30.7697 24.4543C30.761 24.5383 30.7532 24.6108 30.7464 24.6746C30.6973 25.1327 30.6962 25.143 30.7312 25.8021C30.7834 26.7857 31.0778 27.7662 31.0778 27.7662C31.0778 27.7662 31.0846 26.0836 31.2703 24.9549C31.4066 24.1271 31.4902 23.6712 31.7325 22.8753C31.7755 22.734 31.9596 22.3265 32.1273 21.966C33.5165 20.4771 35.4969 19.5409 37.6962 19.5409C37.9291 19.5409 38.1596 19.5514 38.3871 19.5719C37.3521 19.7471 36.3022 19.9576 35.6217 20.1795ZM42.6045 27.1337C42.6045 29.8583 40.4208 32.082 37.6962 32.082C34.9917 32.082 32.7879 29.8583 32.7879 27.1337C32.7879 24.4492 34.9917 22.2454 37.6962 22.2454C40.4208 22.2454 42.6045 24.4492 42.6045 27.1337ZM6.35207 20.0217V20.0217H15.5008V34.2857H12.7963V22.7263H9.05662C9.03659 25.4108 8.95645 27.6946 8.47565 29.5578C7.77446 32.2423 6.3721 33.9051 3.76772 34.7064L2.96637 32.1221C4.54903 31.6212 5.41048 30.6596 5.87126 28.8566C6.35207 26.9133 6.35207 24.1887 6.35207 20.0217ZM29.7122 34.2857H18.195V20.0217H28.0427L28.321 22.7062H20.8795V25.7914H27.07V28.4359H20.8795V31.6212H29.434L29.7122 34.2857ZM49.9431 34.2857H47.2586V20.0217H49.9431V25.7914H57.3155V20.0217H60V34.2857H57.3155V28.4559H49.9431V34.2857Z" fill="#F09E00"/>
</svg>
