<svg width="10" height="18" viewBox="0 0 10 18" fill="none" xmlns="http://www.w3.org/2000/svg">
<path d="M5.00037 0C2.54327 0 0.544441 2.08388 0.544441 4.64569C0.544441 7.20731 2.54327 9.29025 5.00037 9.29025C7.45738 9.29025 9.45523 7.20731 9.45523 4.64569C9.45523 2.08388 7.4574 0 5.00037 0ZM5.00037 2.72194C6.0173 2.72194 6.84425 3.58535 6.84425 4.64569C6.84425 5.70559 6.01731 6.56833 5.00037 6.56833C3.98323 6.56833 3.15542 5.7056 3.15542 4.64569C3.15542 3.58535 3.98323 2.72194 5.00037 2.72194ZM1.32666 9.44831C0.88581 9.44116 0.452293 9.66775 0.20081 10.0856C-0.183509 10.7222 0.000597408 11.5623 0.609728 11.9627C1.41545 12.4897 2.28975 12.8637 3.19644 13.0792L0.706296 15.6769C0.196529 16.2087 0.19696 17.0699 0.706831 17.6017C0.962387 17.8672 1.2957 18 1.62985 18C1.96366 18 2.29809 17.867 2.55287 17.6012L4.99932 15.0491L7.44792 17.6012C7.95726 18.1328 8.78317 18.1328 9.29341 17.6012C9.8034 17.0697 9.8034 16.2075 9.29341 15.6769L6.80218 13.0798C7.70913 12.8643 8.58372 12.4901 9.38889 11.9627C9.99923 11.5623 10.1836 10.7213 9.79941 10.0856C9.41478 9.44888 8.60948 9.25708 7.99869 9.65813C6.17451 10.8546 3.82406 10.8538 2.00044 9.65813C1.79053 9.52027 1.55759 9.45207 1.32666 9.44833V9.44831Z" fill="white"/>
</svg>
