<svg width="25" height="16" viewBox="0 0 25 16" fill="none" xmlns="http://www.w3.org/2000/svg">
<path d="M24.7727 4.11429C24.5455 2.4 24.3182 1.14286 23.6364 0.685714C22.9545 0.114286 17.0455 0 12.5 0C7.95455 0 2.04545 0.114286 1.36364 0.685714C0.681818 1.14286 0.454545 2.4 0.227273 4.11429C5.07994e-08 5.82857 0 6.85714 0 8C0 9.14286 5.07994e-08 10.1714 0.227273 11.8857C0.454545 13.6 0.681818 14.8571 1.36364 15.3143C2.04545 15.8857 7.95455 16 12.5 16C17.0455 16 22.9545 15.8857 23.6364 15.3143C24.3182 14.8571 24.5455 13.6 24.7727 11.8857C25 10.1714 25 9.14286 25 8C25 6.85714 25 5.82857 24.7727 4.11429ZM10.2273 12.1143V3.88571L17.0455 8L10.2273 12.1143Z" fill="white"/>
</svg>
