<svg width="17" height="12" viewBox="0 0 17 12" fill="none" xmlns="http://www.w3.org/2000/svg">
<path fill-rule="evenodd" clip-rule="evenodd" d="M16.6101 0.812571C16.7276 0.344571 16.6101 0 16.047 0H14.1876C13.7145 0 13.4963 0.297429 13.378 0.625714C13.378 0.625714 12.4324 3.36514 11.093 5.14457C10.6595 5.66057 10.4626 5.82429 10.226 5.82429C10.1077 5.82429 9.92992 5.66057 9.92992 5.19171V0.812571C9.92992 0.250286 9.79959 0 9.40576 0H6.48182C6.18645 0 6.00867 0.260571 6.00867 0.508286C6.00867 1.04057 6.67873 1.164 6.74744 2.66229V5.91771C6.74744 6.63171 6.63907 6.76114 6.40249 6.76114C5.77209 6.76114 4.23858 4.00886 3.32839 0.859714C3.15202 0.246857 2.97352 0 2.49824 0H0.637487C0.106248 0 0 0.297429 0 0.625714C0 1.21029 0.630403 4.11429 2.93598 7.95514C4.47303 10.578 6.63694 12 8.60819 12C9.79038 12 9.93629 11.6846 9.93629 11.1403V9.15771C9.93629 8.526 10.0482 8.4 10.4229 8.4C10.6992 8.4 11.1716 8.56457 12.2752 9.82886C13.536 11.328 13.7435 12 14.4532 12H16.3126C16.8438 12 17.1101 11.6846 16.9571 11.0606C16.7886 10.44 16.1865 9.53914 15.3882 8.47029C14.9547 7.86171 14.3045 7.206 14.1069 6.87771C13.8313 6.45686 13.91 6.26914 14.1069 5.89457C14.1069 5.89457 16.3735 2.10086 16.6094 0.812571H16.6101Z" fill="white"/>
</svg>
