<svg width="17" height="20" viewBox="0 0 17 20" fill="none" xmlns="http://www.w3.org/2000/svg">
<path d="M11.6149 4.88336C11.6149 5.07239 11.6023 5.26143 11.5791 5.44831C11.5875 5.39031 11.5938 5.33446 11.6023 5.27646C11.5518 5.65024 11.4551 6.01327 11.3121 6.36127C11.3332 6.30971 11.3542 6.25816 11.3752 6.2066C11.2701 6.45793 11.1419 6.70067 10.9926 6.92622C10.9569 6.97993 10.919 7.03363 10.8812 7.08733C10.8539 7.126 10.7803 7.20763 10.9127 7.04652C10.8896 7.07444 10.8665 7.10452 10.8433 7.13459C10.7614 7.23555 10.6752 7.33222 10.5848 7.42459C10.4944 7.51696 10.3998 7.60503 10.301 7.68881C10.2842 7.70385 10.2379 7.75755 10.2148 7.7597C10.2421 7.75755 10.3535 7.65229 10.2547 7.72747C10.2022 7.76614 10.1517 7.80481 10.0971 7.84133C9.87422 7.99384 9.63877 8.12488 9.39281 8.23228C9.44326 8.2108 9.49371 8.18932 9.54417 8.16784C9.20361 8.31391 8.84833 8.41273 8.48254 8.46428C8.5393 8.45569 8.59396 8.44924 8.65072 8.44065C8.28283 8.49006 7.91073 8.49006 7.54284 8.44065C7.5996 8.44924 7.65426 8.45569 7.71102 8.46428C7.34523 8.41273 6.98995 8.31391 6.64939 8.16784C6.69985 8.18932 6.7503 8.2108 6.80075 8.23228C6.55479 8.12488 6.31724 7.99384 6.0965 7.84133C6.04395 7.80481 5.99139 7.76614 5.93884 7.72747C5.901 7.69955 5.82111 7.62436 5.97878 7.7597C5.95145 7.73607 5.92202 7.71244 5.89259 7.68881C5.79378 7.60503 5.69918 7.51696 5.60879 7.42459C5.51839 7.33222 5.4322 7.23555 5.35021 7.13459C5.3355 7.11741 5.28294 7.07015 5.28084 7.04652C5.28294 7.07444 5.38595 7.1883 5.31237 7.08733C5.27453 7.03363 5.23669 6.98208 5.20095 6.92622C5.05169 6.69852 4.92346 6.45793 4.81835 6.2066C4.83937 6.25816 4.86039 6.30971 4.88141 6.36127C4.73846 6.01327 4.64176 5.65024 4.5913 5.27646C4.59971 5.33446 4.60602 5.39031 4.61443 5.44831C4.56608 5.07239 4.56608 4.69217 4.61443 4.31625C4.60602 4.37425 4.59971 4.4301 4.5913 4.4881C4.64176 4.11433 4.73846 3.75129 4.88141 3.4033C4.86039 3.45485 4.83937 3.50641 4.81835 3.55796C4.92346 3.30663 5.05169 3.06389 5.20095 2.83834C5.23669 2.78464 5.27453 2.73093 5.31237 2.67723C5.3397 2.63857 5.41328 2.55694 5.28084 2.71805C5.30396 2.69012 5.32709 2.66005 5.35021 2.62997C5.4322 2.52901 5.51839 2.43235 5.60879 2.33998C5.69918 2.24761 5.79378 2.15953 5.89259 2.07576C5.9094 2.06072 5.95565 2.00702 5.97878 2.00487C5.95145 2.00702 5.84003 2.11227 5.93884 2.03709C5.99139 1.99842 6.04185 1.95976 6.0965 1.92324C6.31934 1.77072 6.55479 1.63969 6.80075 1.53228C6.7503 1.55376 6.69985 1.57524 6.64939 1.59672C6.98995 1.45065 7.34523 1.35184 7.71102 1.30028C7.65426 1.30888 7.5996 1.31532 7.54284 1.32391C7.91073 1.27451 8.28283 1.27451 8.65072 1.32391C8.59396 1.31532 8.5393 1.30888 8.48254 1.30028C8.84833 1.35184 9.20361 1.45065 9.54417 1.59672C9.49371 1.57524 9.44326 1.55376 9.39281 1.53228C9.63877 1.63969 9.87632 1.77072 10.0971 1.92324C10.1496 1.95976 10.2022 1.99842 10.2547 2.03709C10.2926 2.06502 10.3724 2.1402 10.2148 2.00487C10.2421 2.0285 10.2715 2.05213 10.301 2.07576C10.3998 2.15953 10.4944 2.24761 10.5848 2.33998C10.6752 2.43235 10.7614 2.52901 10.8433 2.62997C10.8581 2.64716 10.9106 2.69442 10.9127 2.71805C10.9106 2.69012 10.8076 2.57627 10.8812 2.67723C10.919 2.73093 10.9569 2.78249 10.9926 2.83834C11.1419 3.06604 11.2701 3.30663 11.3752 3.55796C11.3542 3.50641 11.3332 3.45485 11.3121 3.4033C11.4551 3.75129 11.5518 4.11433 11.6023 4.4881C11.5938 4.4301 11.5875 4.37425 11.5791 4.31625C11.6023 4.50529 11.6149 4.69432 11.6149 4.88336C11.617 5.22061 11.905 5.54283 12.2455 5.52779C12.5861 5.51276 12.8783 5.24424 12.8762 4.88336C12.872 3.89737 12.5819 2.89849 12.0185 2.09509C11.4341 1.25947 10.6415 0.636512 9.69763 0.282072C7.86659 -0.407477 5.67606 0.200443 4.43994 1.7428C3.79246 2.55049 3.40775 3.5107 3.32786 4.55469C3.25428 5.54283 3.50025 6.56963 4.00688 7.416C4.4946 8.23443 5.22828 8.92398 6.08599 9.31494C6.57581 9.53834 7.06774 9.67582 7.5996 9.74027C8.08942 9.80042 8.58765 9.7639 9.07117 9.66723C10.9506 9.28701 12.5104 7.65014 12.8047 5.71038C12.8468 5.43757 12.8762 5.16261 12.8762 4.8855C12.8783 4.54825 12.5861 4.22603 12.2455 4.24107C11.9029 4.25396 11.617 4.52247 11.6149 4.88336Z" fill="#222222"/>
<path d="M12.8636 9.60279C12.975 9.67582 13.0843 9.75101 13.1915 9.83264C13.2294 9.86056 13.3114 9.93789 13.16 9.80686C13.1831 9.82619 13.2083 9.84552 13.2315 9.86486C13.2798 9.90352 13.3261 9.94434 13.3723 9.98515C13.5636 10.157 13.7423 10.3417 13.9084 10.5394C13.9483 10.5866 13.9862 10.636 14.024 10.6833C14.0955 10.7757 13.9357 10.563 14.0009 10.6511C14.0198 10.6769 14.0366 10.7005 14.0555 10.7263C14.1333 10.8358 14.2069 10.9497 14.2763 11.0635C14.4108 11.2869 14.5264 11.5211 14.6273 11.7638C14.6063 11.7122 14.5853 11.6607 14.5643 11.6091C14.7388 12.0345 14.8565 12.4813 14.9175 12.9388C14.909 12.8808 14.9027 12.825 14.8943 12.767C14.9637 13.319 14.9385 13.8861 14.9385 14.4404C14.9385 15.1385 14.9385 15.8366 14.9385 16.5348C14.9385 16.7432 14.949 16.9558 14.9259 17.162C14.9343 17.104 14.9406 17.0482 14.949 16.9902C14.9301 17.1341 14.8943 17.2716 14.8418 17.4069C14.8628 17.3554 14.8838 17.3038 14.9048 17.2523C14.8649 17.3468 14.8187 17.4391 14.764 17.5272C14.7619 17.5315 14.7219 17.5981 14.7177 17.596C14.7198 17.596 14.8334 17.4542 14.7577 17.5423C14.7241 17.5809 14.6925 17.6196 14.6568 17.6561C14.6252 17.6883 14.5916 17.7206 14.5559 17.7506C14.5117 17.7871 14.4424 17.8172 14.5979 17.7184C14.5748 17.7334 14.5538 17.7506 14.5306 17.7657C14.4466 17.8237 14.3562 17.8709 14.2616 17.9096C14.312 17.8881 14.3625 17.8666 14.4129 17.8451C14.2805 17.8988 14.1459 17.9354 14.0051 17.9547C14.0618 17.9461 14.1165 17.9397 14.1733 17.9311C14.0156 17.9504 13.8537 17.944 13.694 17.944C13.4144 17.944 13.1348 17.944 12.8552 17.944C11.9113 17.944 10.9653 17.944 10.0214 17.944C8.87353 17.944 7.72782 17.944 6.57999 17.944C5.59405 17.944 4.6081 17.944 3.62215 17.944C3.16176 17.944 2.69927 17.9461 2.23888 17.944C2.1674 17.944 2.09803 17.9397 2.02655 17.9311C2.08331 17.9397 2.13797 17.9461 2.19473 17.9547C2.05388 17.9354 1.91934 17.8988 1.7869 17.8451C1.83735 17.8666 1.88781 17.8881 1.93826 17.9096C1.84576 17.8688 1.75537 17.8215 1.66917 17.7657C1.66497 17.7635 1.5998 17.7227 1.6019 17.7184C1.6019 17.7206 1.74065 17.8366 1.65446 17.7592C1.61662 17.7248 1.57878 17.6926 1.54304 17.6561C1.51151 17.6239 1.47997 17.5895 1.45054 17.553C1.4148 17.5079 1.38537 17.437 1.48208 17.596C1.46736 17.5723 1.45054 17.5509 1.43583 17.5272C1.37907 17.4413 1.33282 17.3489 1.29498 17.2523C1.316 17.3038 1.33702 17.3554 1.35804 17.4069C1.30549 17.2716 1.26975 17.1341 1.25083 16.9902C1.25924 17.0482 1.26555 17.104 1.27395 17.162C1.25293 16.9859 1.26134 16.8076 1.26134 16.6315C1.26134 16.3178 1.26134 16.0063 1.26134 15.6927C1.26134 15.0268 1.26134 14.3609 1.26134 13.6971C1.26134 13.3856 1.26765 13.0742 1.30549 12.7627C1.29708 12.8207 1.29077 12.8765 1.28236 12.9345C1.34333 12.477 1.46316 12.028 1.63764 11.6027C1.61662 11.6542 1.5956 11.7058 1.57457 11.7574C1.67338 11.5211 1.789 11.2891 1.91934 11.07C1.98661 10.9583 2.05599 10.8487 2.13167 10.7434C2.1632 10.6983 2.30195 10.5286 2.1611 10.6983C2.20104 10.6511 2.23678 10.5995 2.27672 10.5523C2.43439 10.3611 2.60677 10.1806 2.78967 10.0152C2.83591 9.97441 2.88216 9.9336 2.92841 9.89278C2.95154 9.87345 2.97676 9.85412 2.99989 9.83264C3.01671 9.81975 3.03142 9.80686 3.04824 9.79397C3.02091 9.81545 2.99568 9.83478 2.96836 9.85627C3.06296 9.76604 3.18699 9.69301 3.2942 9.62212C3.5717 9.43953 3.71044 9.04213 3.52124 8.74139C3.34255 8.45998 2.95364 8.31391 2.65933 8.50939C1.80582 9.07435 1.08686 9.85841 0.628568 10.7886C0.214428 11.6285 0 12.55 0 13.4909C0 14.5198 0 15.5467 0 16.5756C0 16.7002 0 16.8248 0 16.9494C0.00420447 17.4993 0.193406 17.9955 0.527661 18.4208C0.954415 18.9643 1.62713 19.2371 2.29774 19.2371C2.92841 19.2371 3.55908 19.2371 4.18975 19.2371C5.34808 19.2371 6.50642 19.2371 7.66475 19.2371C8.88404 19.2371 10.1033 19.2371 11.3226 19.2371C12.1131 19.2371 12.9056 19.2371 13.6961 19.2371C13.9736 19.2371 14.2405 19.2371 14.5138 19.1705C15.5103 18.9299 16.204 17.974 16.2103 16.9429C16.2166 15.9312 16.2103 14.9194 16.2103 13.9076C16.2103 13.3255 16.1935 12.7498 16.0716 12.1762C15.8551 11.1537 15.3463 10.1978 14.6463 9.43523C14.312 9.07005 13.9231 8.74998 13.509 8.48147C13.2294 8.30102 12.8005 8.41273 12.647 8.71346C12.4726 9.03998 12.5651 9.40946 12.8636 9.60279Z" fill="#222222"/>
</svg>
